STARTFONT 2.1
COMMENT
COMMENT Converted from OpenType font "Montserrat-Bold.otf" by "otf2bdf 3.0".
COMMENT
FONT -FreeType-Montserrat-Bold-R-Normal--19-140-100-100-P-117-ISO10646-1
SIZE 14 100 100
FONTBOUNDINGBOX 50 27 -17 -5
STARTPROPERTIES 19
FOUNDRY "FreeType"
FAMILY_NAME "Montserrat"
WEIGHT_NAME "Bold"
SLANT "R"
SETWIDTH_NAME "Normal"
ADD_STYLE_NAME ""
PIXEL_SIZE 19
POINT_SIZE 140
RESOLUTION_X 100
RESOLUTION_Y 100
SPACING "P"
AVERAGE_WIDTH 117
CHARSET_REGISTRY "ISO10646"
CHARSET_ENCODING "1"
FONT_ASCENT 18
FONT_DESCENT 4
COPYRIGHT "Copyright 2011 The Montserrat Project Authors (https://github.com/JulietaUla/Montserrat)"
_OTF_FONTFILE "Montserrat-Bold.otf"
_OTF_PSNAME "Montserrat-Bold"
ENDPROPERTIES
CHARS 969
STARTCHAR 0000
ENCODING 0
SWIDTH 0 0
DWIDTH 0 0
BBX 0 0 0 0
BITMAP
ENDCHAR
STARTCHAR 000D
ENCODING 13
SWIDTH 308 0
DWIDTH 6 0
BBX 0 0 0 0
BITMAP
ENDCHAR
STARTCHAR 0020
ENCODING 32
SWIDTH 308 0
DWIDTH 6 0
BBX 0 0 0 0
BITMAP
ENDCHAR
STARTCHAR 0021
ENCODING 33
SWIDTH 308 0
DWIDTH 6 0
BBX 4 14 1 0
BITMAP
F0
F0
E0
E0
E0
E0
E0
60
60
00
00
F0
F0
E0
ENDCHAR
STARTCHAR 0022
ENCODING 34
SWIDTH 462 0
DWIDTH 9 0
BBX 7 6 1 8
BITMAP
EE
CC
CC
CC
CC
CC
ENDCHAR
STARTCHAR 0023
ENCODING 35
SWIDTH 720 0
DWIDTH 14 0
BBX 14 14 0 0
BITMAP
0C60
0C60
0C60
7FFC
7FFC
0C60
1CE0
1CE0
18C0
FFF8
FFF8
18C0
18C0
18C0
ENDCHAR
STARTCHAR 0024
ENCODING 36
SWIDTH 617 0
DWIDTH 12 0
BBX 11 18 1 -2
BITMAP
0C00
0C00
3F80
7FC0
FFC0
EC00
EC00
FC00
7F00
3FC0
0FE0
0CE0
8CE0
FFC0
FFC0
3F00
0C00
0C00
ENDCHAR
STARTCHAR 0025
ENCODING 37
SWIDTH 874 0
DWIDTH 17 0
BBX 16 14 1 0
BITMAP
7818
FC30
CC70
8C60
CCC0
CDC0
F998
333E
0766
0666
0C63
1C66
187E
303C
ENDCHAR
STARTCHAR 0026
ENCODING 38
SWIDTH 720 0
DWIDTH 14 0
BBX 12 14 1 0
BITMAP
1F00
3F80
7180
7180
7B80
3F00
3E00
7F30
E7F0
E3F0
E1E0
F3F0
7FF0
3F20
ENDCHAR
STARTCHAR 0027
ENCODING 39
SWIDTH 205 0
DWIDTH 4 0
BBX 3 6 1 8
BITMAP
E0
C0
C0
C0
C0
C0
ENDCHAR
STARTCHAR 0028
ENCODING 40
SWIDTH 360 0
DWIDTH 7 0
BBX 5 19 1 -4
BITMAP
18
38
38
70
70
70
70
E0
E0
E0
E0
E0
70
70
70
70
38
38
18
ENDCHAR
STARTCHAR 0029
ENCODING 41
SWIDTH 360 0
DWIDTH 7 0
BBX 6 19 0 -4
BITMAP
E0
70
70
38
38
38
38
38
1C
1C
1C
38
38
38
38
38
70
70
E0
ENDCHAR
STARTCHAR 002A
ENCODING 42
SWIDTH 411 0
DWIDTH 8 0
BBX 8 8 0 7
BITMAP
18
58
7F
7E
7E
FF
58
18
ENDCHAR
STARTCHAR 002B
ENCODING 43
SWIDTH 617 0
DWIDTH 12 0
BBX 9 9 1 2
BITMAP
0C00
0C00
0C00
FF80
FF80
0C00
0C00
0C00
0C00
ENDCHAR
STARTCHAR 002C
ENCODING 44
SWIDTH 257 0
DWIDTH 5 0
BBX 3 7 1 -3
BITMAP
40
E0
E0
E0
60
C0
C0
ENDCHAR
STARTCHAR 002D
ENCODING 45
SWIDTH 411 0
DWIDTH 8 0
BBX 6 2 1 4
BITMAP
FC
FC
ENDCHAR
STARTCHAR 002E
ENCODING 46
SWIDTH 257 0
DWIDTH 5 0
BBX 3 4 1 0
BITMAP
60
E0
E0
E0
ENDCHAR
STARTCHAR 002F
ENCODING 47
SWIDTH 411 0
DWIDTH 8 0
BBX 8 18 0 -2
BITMAP
07
07
06
0E
0E
0C
1C
1C
18
38
38
30
70
70
60
E0
E0
C0
ENDCHAR
STARTCHAR 0030
ENCODING 48
SWIDTH 668 0
DWIDTH 13 0
BBX 11 14 1 0
BITMAP
1F00
3F80
7FC0
F1E0
E0E0
E0E0
E0E0
E0E0
E0E0
E0E0
F1E0
7FC0
3F80
1F00
ENDCHAR
STARTCHAR 0031
ENCODING 49
SWIDTH 411 0
DWIDTH 8 0
BBX 6 14 0 0
BITMAP
FC
FC
FC
1C
1C
1C
1C
1C
1C
1C
1C
1C
1C
1C
ENDCHAR
STARTCHAR 0032
ENCODING 50
SWIDTH 565 0
DWIDTH 11 0
BBX 11 14 0 0
BITMAP
1F00
7FC0
FFC0
61C0
01C0
01C0
03C0
0780
0F00
1E00
3C00
7FE0
7FE0
7FE0
ENDCHAR
STARTCHAR 0033
ENCODING 51
SWIDTH 617 0
DWIDTH 12 0
BBX 11 14 0 0
BITMAP
7FC0
7FC0
7FC0
0380
0700
0E00
0F80
0FC0
01E0
00E0
41E0
7FC0
FFC0
3F00
ENDCHAR
STARTCHAR 0034
ENCODING 52
SWIDTH 668 0
DWIDTH 13 0
BBX 12 14 1 0
BITMAP
0380
0700
0F00
1E00
1C00
3800
79C0
71C0
FFF0
FFF0
FFF0
01C0
01C0
01C0
ENDCHAR
STARTCHAR 0035
ENCODING 53
SWIDTH 617 0
DWIDTH 12 0
BBX 11 14 0 0
BITMAP
3FC0
3FC0
3FC0
3000
7000
7F80
7FC0
7FE0
00E0
00E0
40E0
7FE0
FFC0
3F00
ENDCHAR
STARTCHAR 0036
ENCODING 54
SWIDTH 617 0
DWIDTH 12 0
BBX 11 14 1 0
BITMAP
0FC0
3FC0
7FC0
7000
E000
EF80
FFC0
F9E0
F0E0
E0E0
E0E0
79C0
3FC0
1F00
ENDCHAR
STARTCHAR 0037
ENCODING 55
SWIDTH 617 0
DWIDTH 12 0
BBX 10 14 1 0
BITMAP
FFC0
FFC0
FFC0
C3C0
C380
0380
0780
0700
0F00
0E00
1E00
1C00
1C00
3C00
ENDCHAR
STARTCHAR 0038
ENCODING 56
SWIDTH 668 0
DWIDTH 13 0
BBX 11 14 1 0
BITMAP
1F00
7FC0
F3C0
E1E0
E1E0
F1C0
7FC0
7FC0
F1E0
E0E0
E0E0
F1E0
7FC0
3F00
ENDCHAR
STARTCHAR 0039
ENCODING 57
SWIDTH 617 0
DWIDTH 12 0
BBX 12 14 0 0
BITMAP
1F00
3FC0
79E0
70E0
E0E0
F0F0
79F0
7FF0
1EE0
00E0
01E0
3FC0
7F80
3F00
ENDCHAR
STARTCHAR 003A
ENCODING 58
SWIDTH 257 0
DWIDTH 5 0
BBX 3 11 1 0
BITMAP
E0
E0
E0
60
00
00
00
60
E0
E0
E0
ENDCHAR
STARTCHAR 003B
ENCODING 59
SWIDTH 257 0
DWIDTH 5 0
BBX 3 14 1 -3
BITMAP
E0
E0
E0
60
00
00
00
E0
E0
E0
60
E0
C0
C0
ENDCHAR
STARTCHAR 003C
ENCODING 60
SWIDTH 617 0
DWIDTH 12 0
BBX 9 9 1 3
BITMAP
0180
0F80
7F00
F800
F000
FC00
1F80
0380
0080
ENDCHAR
STARTCHAR 003D
ENCODING 61
SWIDTH 617 0
DWIDTH 12 0
BBX 9 7 1 3
BITMAP
FF80
FF80
0000
0000
0000
FF80
FF80
ENDCHAR
STARTCHAR 003E
ENCODING 62
SWIDTH 617 0
DWIDTH 12 0
BBX 9 9 1 3
BITMAP
E000
FC00
3F00
0780
0380
1F80
FE00
F000
C000
ENDCHAR
STARTCHAR 003F
ENCODING 63
SWIDTH 565 0
DWIDTH 11 0
BBX 10 14 0 0
BITMAP
1F00
7FC0
FFC0
61C0
01C0
01C0
0780
0700
0E00
0000
0000
0E00
0F00
0E00
ENDCHAR
STARTCHAR 0040
ENCODING 64
SWIDTH 1028 0
DWIDTH 20 0
BBX 18 18 1 -4
BITMAP
03F800
0FFE00
3C0700
700380
63DD80
E7FCC0
CF3CC0
CE1CC0
CE1CC0
CE1CC0
CE1CC0
CF3CC0
E7FF80
63C700
300000
3C0800
0FF800
03F000
ENDCHAR
STARTCHAR 0041
ENCODING 65
SWIDTH 771 0
DWIDTH 15 0
BBX 15 14 0 0
BITMAP
0380
07C0
07C0
0EE0
0EE0
1EE0
1C70
1C70
3838
3FF8
7FFC
701C
F01C
E00E
ENDCHAR
STARTCHAR 0042
ENCODING 66
SWIDTH 771 0
DWIDTH 15 0
BBX 12 14 2 0
BITMAP
FF80
FFE0
E1E0
E0E0
E0E0
E1E0
FFC0
FFE0
E0F0
E070
E070
E0F0
FFE0
FFC0
ENDCHAR
STARTCHAR 0043
ENCODING 67
SWIDTH 720 0
DWIDTH 14 0
BBX 13 14 1 0
BITMAP
0FC0
3FF0
7FF0
7830
F000
E000
E000
E000
E000
F000
7830
7FF8
3FF0
0FC0
ENDCHAR
STARTCHAR 0044
ENCODING 68
SWIDTH 822 0
DWIDTH 16 0
BBX 13 14 2 0
BITMAP
FF80
FFE0
FFF0
E070
E078
E038
E038
E038
E038
E078
E070
FFF0
FFE0
FF80
ENDCHAR
STARTCHAR 0045
ENCODING 69
SWIDTH 668 0
DWIDTH 13 0
BBX 10 14 2 0
BITMAP
FFC0
FFC0
FFC0
E000
E000
E000
FF80
FF80
E000
E000
E000
FFC0
FFC0
FFC0
ENDCHAR
STARTCHAR 0046
ENCODING 70
SWIDTH 617 0
DWIDTH 12 0
BBX 10 14 2 0
BITMAP
FFC0
FFC0
FFC0
E000
E000
E000
FF80
FF80
FF80
E000
E000
E000
E000
E000
ENDCHAR
STARTCHAR 0047
ENCODING 71
SWIDTH 771 0
DWIDTH 15 0
BBX 13 14 1 0
BITMAP
0FC0
3FF0
7FF8
7830
F000
E000
E000
E038
E038
F038
7838
7FF8
3FF0
0FC0
ENDCHAR
STARTCHAR 0048
ENCODING 72
SWIDTH 822 0
DWIDTH 16 0
BBX 12 14 2 0
BITMAP
E070
E070
E070
E070
E070
FFF0
FFF0
FFF0
E070
E070
E070
E070
E070
E070
ENDCHAR
STARTCHAR 0049
ENCODING 73
SWIDTH 308 0
DWIDTH 6 0
BBX 3 14 2 0
BITMAP
E0
E0
E0
E0
E0
E0
E0
E0
E0
E0
E0
E0
E0
E0
ENDCHAR
STARTCHAR 004A
ENCODING 74
SWIDTH 565 0
DWIDTH 11 0
BBX 9 14 0 0
BITMAP
7F80
7F80
7F80
0380
0380
0380
0380
0380
0380
0380
4380
FF80
FF00
3E00
ENDCHAR
STARTCHAR 004B
ENCODING 75
SWIDTH 720 0
DWIDTH 14 0
BBX 12 14 2 0
BITMAP
E0F0
E1E0
E3C0
E380
E700
EE00
FE00
FF00
FF00
F780
E3C0
E1E0
E0E0
E070
ENDCHAR
STARTCHAR 004C
ENCODING 76
SWIDTH 617 0
DWIDTH 12 0
BBX 10 14 2 0
BITMAP
E000
E000
E000
E000
E000
E000
E000
E000
E000
E000
E000
FFC0
FFC0
FFC0
ENDCHAR
STARTCHAR 004D
ENCODING 77
SWIDTH 977 0
DWIDTH 19 0
BBX 15 14 2 0
BITMAP
C00E
E01E
F01E
F03E
F83E
F87E
FC6E
EEEE
EFCE
E7CE
E78E
E38E
E10E
E00E
ENDCHAR
STARTCHAR 004E
ENCODING 78
SWIDTH 822 0
DWIDTH 16 0
BBX 12 14 2 0
BITMAP
E070
E070
F070
F870
FC70
FE70
EE70
EF70
E7F0
E3F0
E1F0
E0F0
E0F0
E070
ENDCHAR
STARTCHAR 004F
ENCODING 79
SWIDTH 822 0
DWIDTH 16 0
BBX 15 14 1 0
BITMAP
0FC0
3FF0
7FF8
783C
F01C
E01C
E01E
E01E
E01C
F01C
783C
7FF8
3FF0
0FC0
ENDCHAR
STARTCHAR 0050
ENCODING 80
SWIDTH 720 0
DWIDTH 14 0
BBX 11 14 2 0
BITMAP
FF00
FFC0
FFE0
E0E0
E0E0
E0E0
E0E0
FFE0
FFC0
FF00
E000
E000
E000
E000
ENDCHAR
STARTCHAR 0051
ENCODING 81
SWIDTH 822 0
DWIDTH 16 0
BBX 15 17 1 -3
BITMAP
0FC0
3FF0
7FF8
783C
F01C
E01C
E01E
E01E
E01E
F01C
703C
7FF8
3FF0
0FC0
01E6
00FE
007C
ENDCHAR
STARTCHAR 0052
ENCODING 82
SWIDTH 720 0
DWIDTH 14 0
BBX 11 14 2 0
BITMAP
FF00
FFC0
FFE0
E0E0
E0E0
E0E0
E0E0
E7E0
FFC0
FF80
E380
E1C0
E1E0
E0E0
ENDCHAR
STARTCHAR 0053
ENCODING 83
SWIDTH 617 0
DWIDTH 12 0
BBX 11 14 1 0
BITMAP
1F80
7FC0
FFC0
E000
E000
F000
7F00
3FC0
07E0
00E0
80E0
FFC0
FFC0
3F00
ENDCHAR
STARTCHAR 0054
ENCODING 84
SWIDTH 617 0
DWIDTH 12 0
BBX 12 14 0 0
BITMAP
FFF0
FFF0
FFF0
0F00
0F00
0F00
0F00
0F00
0F00
0F00
0F00
0F00
0F00
0F00
ENDCHAR
STARTCHAR 0055
ENCODING 85
SWIDTH 771 0
DWIDTH 15 0
BBX 13 14 1 0
BITMAP
F038
F038
F038
F038
F038
F038
F038
F038
7038
7078
7070
7FF0
3FE0
0F80
ENDCHAR
STARTCHAR 0056
ENCODING 86
SWIDTH 771 0
DWIDTH 15 0
BBX 14 14 0 0
BITMAP
E01C
F01C
701C
7838
3838
3870
1C70
1CF0
1EE0
0EE0
0FC0
07C0
0780
0780
ENDCHAR
STARTCHAR 0057
ENCODING 87
SWIDTH 1182 0
DWIDTH 23 0
BBX 21 14 1 0
BITMAP
E07038
E0F038
E0F870
70F870
71F870
71DCE0
79DCE0
399CE0
3B8FC0
3F8FC0
1F0FC0
1F07C0
1F0780
0E0780
ENDCHAR
STARTCHAR 0058
ENCODING 88
SWIDTH 720 0
DWIDTH 14 0
BBX 13 14 0 0
BITMAP
7038
7870
3CF0
1CE0
1FC0
0FC0
0780
0780
0FC0
1FE0
1CE0
38F0
7878
F038
ENDCHAR
STARTCHAR 0059
ENCODING 89
SWIDTH 668 0
DWIDTH 13 0
BBX 13 14 0 0
BITMAP
E038
7078
7870
38E0
3CE0
1DC0
0FC0
0F80
0700
0700
0700
0700
0700
0700
ENDCHAR
STARTCHAR 005A
ENCODING 90
SWIDTH 668 0
DWIDTH 13 0
BBX 12 14 1 0
BITMAP
FFE0
FFE0
FFE0
03C0
0380
0780
0F00
1E00
3C00
3800
7800
FFF0
FFF0
FFF0
ENDCHAR
STARTCHAR 005B
ENCODING 91
SWIDTH 360 0
DWIDTH 7 0
BBX 5 19 2 -4
BITMAP
F8
F8
E0
E0
E0
E0
E0
E0
E0
E0
E0
E0
E0
E0
E0
E0
E0
F8
F8
ENDCHAR
STARTCHAR 005C
ENCODING 92
SWIDTH 411 0
DWIDTH 8 0
BBX 9 18 -1 -2
BITMAP
E000
6000
7000
7000
3800
3800
1800
1C00
1C00
0C00
0E00
0E00
0600
0700
0700
0300
0380
0380
ENDCHAR
STARTCHAR 005D
ENCODING 93
SWIDTH 360 0
DWIDTH 7 0
BBX 6 19 0 -4
BITMAP
FC
FC
3C
3C
3C
3C
3C
3C
3C
3C
3C
3C
3C
3C
3C
3C
3C
FC
FC
ENDCHAR
STARTCHAR 005E
ENCODING 94
SWIDTH 617 0
DWIDTH 12 0
BBX 9 8 1 3
BITMAP
1C00
1E00
1E00
3700
3300
7300
6180
E180
ENDCHAR
STARTCHAR 005F
ENCODING 95
SWIDTH 514 0
DWIDTH 10 0
BBX 10 2 0 -2
BITMAP
FFC0
FFC0
ENDCHAR
STARTCHAR 0060
ENCODING 96
SWIDTH 617 0
DWIDTH 12 0
BBX 5 3 2 12
BITMAP
E0
30
18
ENDCHAR
STARTCHAR 0061
ENCODING 97
SWIDTH 617 0
DWIDTH 12 0
BBX 10 11 1 0
BITMAP
3E00
FF80
6780
03C0
3FC0
FFC0
E1C0
E1C0
E3C0
FFC0
7DC0
ENDCHAR
STARTCHAR 0062
ENCODING 98
SWIDTH 668 0
DWIDTH 13 0
BBX 12 15 1 0
BITMAP
E000
E000
E000
E000
EF80
FFC0
FFE0
F0E0
F070
E070
F070
F0E0
FFE0
FFC0
EF80
ENDCHAR
STARTCHAR 0063
ENCODING 99
SWIDTH 565 0
DWIDTH 11 0
BBX 10 11 1 0
BITMAP
1F00
7F80
FFC0
E180
E000
E000
E000
E180
FBC0
7F80
1F00
ENDCHAR
STARTCHAR 0064
ENCODING 100
SWIDTH 668 0
DWIDTH 13 0
BBX 11 15 1 0
BITMAP
00E0
00E0
00E0
00E0
1EE0
7FE0
FFE0
E1E0
E0E0
E0E0
E0E0
E1E0
FBE0
7FE0
1EE0
ENDCHAR
STARTCHAR 0065
ENCODING 101
SWIDTH 617 0
DWIDTH 12 0
BBX 11 11 1 0
BITMAP
1F00
7F80
F3C0
E0C0
FFE0
FFE0
E000
E000
FB80
7FC0
1F00
ENDCHAR
STARTCHAR 0066
ENCODING 102
SWIDTH 411 0
DWIDTH 8 0
BBX 8 15 0 0
BITMAP
0F
3F
3C
38
38
FE
FE
38
38
38
38
38
38
38
38
ENDCHAR
STARTCHAR 0067
ENCODING 103
SWIDTH 720 0
DWIDTH 14 0
BBX 11 15 1 -4
BITMAP
3EE0
7FE0
FFE0
E0E0
E0E0
E0E0
E0E0
F1E0
7FE0
3FE0
00E0
40E0
73E0
FFC0
3F00
ENDCHAR
STARTCHAR 0068
ENCODING 104
SWIDTH 668 0
DWIDTH 13 0
BBX 11 15 1 0
BITMAP
E000
E000
E000
E000
EF80
FFC0
FFE0
F0E0
F0E0
E0E0
E0E0
E0E0
E0E0
E0E0
E0E0
ENDCHAR
STARTCHAR 0069
ENCODING 105
SWIDTH 308 0
DWIDTH 6 0
BBX 4 16 1 0
BITMAP
60
F0
F0
00
00
E0
E0
E0
E0
E0
E0
E0
E0
E0
E0
E0
ENDCHAR
STARTCHAR 006A
ENCODING 106
SWIDTH 308 0
DWIDTH 6 0
BBX 7 20 -2 -4
BITMAP
0C
1E
1E
00
00
0E
0E
0E
0E
0E
0E
0E
0E
0E
0E
0E
1E
5C
7C
F8
ENDCHAR
STARTCHAR 006B
ENCODING 107
SWIDTH 668 0
DWIDTH 13 0
BBX 11 15 1 0
BITMAP
E000
E000
E000
E000
E1E0
E3C0
E780
EF00
FE00
FF00
FF00
F780
E3C0
E1E0
E0E0
ENDCHAR
STARTCHAR 006C
ENCODING 108
SWIDTH 308 0
DWIDTH 6 0
BBX 3 15 1 0
BITMAP
E0
E0
E0
E0
E0
E0
E0
E0
E0
E0
E0
E0
E0
E0
E0
ENDCHAR
STARTCHAR 006D
ENCODING 109
SWIDTH 1028 0
DWIDTH 20 0
BBX 18 11 1 0
BITMAP
EF8F00
FFFF80
FFFFC0
F1E1C0
F0E1C0
E0E1C0
E0E1C0
E0E1C0
E0E1C0
E0E1C0
E0E1C0
ENDCHAR
STARTCHAR 006E
ENCODING 110
SWIDTH 668 0
DWIDTH 13 0
BBX 11 11 1 0
BITMAP
EF80
FFC0
FFE0
F0E0
F0E0
E0E0
E0E0
E0E0
E0E0
E0E0
E0E0
ENDCHAR
STARTCHAR 006F
ENCODING 111
SWIDTH 668 0
DWIDTH 13 0
BBX 11 11 1 0
BITMAP
1F00
7F80
FFC0
E1E0
E0E0
E0E0
E0E0
E1E0
FBC0
7F80
1F00
ENDCHAR
STARTCHAR 0070
ENCODING 112
SWIDTH 668 0
DWIDTH 13 0
BBX 12 15 1 -4
BITMAP
EF80
FFC0
FFE0
F0E0
F070
E070
F070
F0E0
FFE0
FFC0
EF80
E000
E000
E000
E000
ENDCHAR
STARTCHAR 0071
ENCODING 113
SWIDTH 668 0
DWIDTH 13 0
BBX 11 15 1 -4
BITMAP
1EE0
7FE0
FFE0
E1E0
E0E0
E0E0
E0E0
E1E0
FBE0
7FE0
1EE0
00E0
00E0
00E0
00E0
ENDCHAR
STARTCHAR 0072
ENCODING 114
SWIDTH 411 0
DWIDTH 8 0
BBX 7 11 1 0
BITMAP
EE
FE
FE
F0
F0
E0
E0
E0
E0
E0
E0
ENDCHAR
STARTCHAR 0073
ENCODING 115
SWIDTH 514 0
DWIDTH 10 0
BBX 9 11 1 0
BITMAP
3F00
FF00
E300
E000
F000
FF00
3F80
0380
C780
FF00
7E00
ENDCHAR
STARTCHAR 0074
ENCODING 116
SWIDTH 411 0
DWIDTH 8 0
BBX 8 13 0 0
BITMAP
38
38
38
FE
FE
38
38
38
38
38
3C
3F
1F
ENDCHAR
STARTCHAR 0075
ENCODING 117
SWIDTH 668 0
DWIDTH 13 0
BBX 11 11 1 0
BITMAP
E0E0
E0E0
E0E0
E0E0
E0E0
E0E0
E0E0
F1E0
7FE0
7FE0
3EE0
ENDCHAR
STARTCHAR 0076
ENCODING 118
SWIDTH 617 0
DWIDTH 12 0
BBX 12 11 0 0
BITMAP
E070
F0E0
70E0
71C0
39C0
39C0
3B80
1F80
1F00
0F00
0F00
ENDCHAR
STARTCHAR 0077
ENCODING 119
SWIDTH 925 0
DWIDTH 18 0
BBX 18 11 0 0
BITMAP
E0E1C0
61E1C0
71E180
71F380
33F380
3BB300
3B3F00
1F3F00
1F1E00
1E1E00
0E1E00
ENDCHAR
STARTCHAR 0078
ENCODING 120
SWIDTH 617 0
DWIDTH 12 0
BBX 11 11 0 0
BITMAP
70E0
79C0
3BC0
1F80
1F00
0F00
1F00
1F80
3BC0
71C0
F0E0
ENDCHAR
STARTCHAR 0079
ENCODING 121
SWIDTH 617 0
DWIDTH 12 0
BBX 12 15 0 -4
BITMAP
E070
F0E0
70E0
71C0
39C0
39C0
3F80
1F80
1F00
0F00
0F00
0E00
5E00
FC00
F800
ENDCHAR
STARTCHAR 007A
ENCODING 122
SWIDTH 565 0
DWIDTH 11 0
BBX 9 11 1 0
BITMAP
FF80
FF80
0700
0F00
1E00
1C00
3800
7000
F000
FF80
FF80
ENDCHAR
STARTCHAR 007B
ENCODING 123
SWIDTH 411 0
DWIDTH 8 0
BBX 6 19 1 -4
BITMAP
1C
3C
38
38
78
78
78
78
70
F0
F0
78
78
78
78
78
38
3C
1C
ENDCHAR
STARTCHAR 007C
ENCODING 124
SWIDTH 308 0
DWIDTH 6 0
BBX 2 19 2 -4
BITMAP
C0
C0
C0
C0
C0
C0
C0
C0
C0
C0
C0
C0
C0
C0
C0
C0
C0
C0
C0
ENDCHAR
STARTCHAR 007D
ENCODING 125
SWIDTH 411 0
DWIDTH 8 0
BBX 7 19 0 -4
BITMAP
F0
F8
78
38
38
38
38
38
38
1E
3E
38
38
38
38
38
78
F8
F0
ENDCHAR
STARTCHAR 007E
ENCODING 126
SWIDTH 617 0
DWIDTH 12 0
BBX 10 4 1 5
BITMAP
70C0
FDC0
CF80
C780
ENDCHAR
STARTCHAR 00A0
ENCODING 160
SWIDTH 308 0
DWIDTH 6 0
BBX 0 0 0 0
BITMAP
ENDCHAR
STARTCHAR 00A1
ENCODING 161
SWIDTH 308 0
DWIDTH 6 0
BBX 4 14 1 -3
BITMAP
E0
F0
F0
40
00
60
E0
E0
E0
E0
E0
E0
F0
F0
ENDCHAR
STARTCHAR 00A2
ENCODING 162
SWIDTH 565 0
DWIDTH 11 0
BBX 10 15 1 -2
BITMAP
0C00
0C00
0E00
3F80
7FC0
FD80
EC00
EC00
EC00
EC00
FFC0
7FC0
3F00
0C00
0C00
ENDCHAR
STARTCHAR 00A3
ENCODING 163
SWIDTH 668 0
DWIDTH 13 0
BBX 12 14 1 0
BITMAP
07E0
1FF0
3FE0
3800
3800
3800
FF80
FF80
3800
3800
3800
FFE0
FFE0
FFE0
ENDCHAR
STARTCHAR 00A4
ENCODING 164
SWIDTH 720 0
DWIDTH 14 0
BBX 12 13 1 0
BITMAP
0020
C070
FFF0
7FE0
7BC0
70E0
60E0
60E0
70E0
79C0
7FE0
EF70
4020
ENDCHAR
STARTCHAR 00A5
ENCODING 165
SWIDTH 720 0
DWIDTH 14 0
BBX 14 14 0 0
BITMAP
E01C
703C
7838
3870
1C70
1EE0
0FC0
07C0
3FF0
3FF0
0380
3FF0
0380
0380
ENDCHAR
STARTCHAR 00A6
ENCODING 166
SWIDTH 308 0
DWIDTH 6 0
BBX 2 19 2 -4
BITMAP
C0
C0
C0
C0
C0
C0
C0
00
00
00
00
00
C0
C0
C0
C0
C0
C0
C0
ENDCHAR
STARTCHAR 00A7
ENCODING 167
SWIDTH 514 0
DWIDTH 10 0
BBX 9 16 1 -2
BITMAP
3F00
7F80
E100
E000
F000
7E00
FF00
C380
C380
FF00
7E00
0F00
0300
C700
FF00
7C00
ENDCHAR
STARTCHAR 00A8
ENCODING 168
SWIDTH 617 0
DWIDTH 12 0
BBX 6 3 3 12
BITMAP
CC
DC
CC
ENDCHAR
STARTCHAR 00A9
ENCODING 169
SWIDTH 771 0
DWIDTH 15 0
BBX 13 14 1 0
BITMAP
0F80
38E0
6030
4798
CFC8
9C88
9808
9808
9C88
CFC8
4798
6030
38E0
0F80
ENDCHAR
STARTCHAR 00AA
ENCODING 170
SWIDTH 411 0
DWIDTH 8 0
BBX 6 7 1 8
BITMAP
F8
FC
0C
FC
CC
DC
FC
ENDCHAR
STARTCHAR 00AB
ENCODING 171
SWIDTH 565 0
DWIDTH 11 0
BBX 9 8 1 1
BITMAP
3B80
7380
6700
EE00
E600
7700
3380
3980
ENDCHAR
STARTCHAR 00AC
ENCODING 172
SWIDTH 617 0
DWIDTH 12 0
BBX 9 6 1 2
BITMAP
FF80
FF80
0180
0180
0180
0180
ENDCHAR
STARTCHAR 00AD
ENCODING 173
SWIDTH 411 0
DWIDTH 8 0
BBX 6 2 1 4
BITMAP
FC
FC
ENDCHAR
STARTCHAR 00AE
ENCODING 174
SWIDTH 771 0
DWIDTH 15 0
BBX 13 14 1 0
BITMAP
0F80
38E0
6030
4F98
CDC8
8CC8
8CC8
8FC8
8F88
CCC8
4CD8
6030
38E0
0F80
ENDCHAR
STARTCHAR 00AF
ENCODING 175
SWIDTH 617 0
DWIDTH 12 0
BBX 7 2 2 12
BITMAP
FE
FE
ENDCHAR
STARTCHAR 00B0
ENCODING 176
SWIDTH 411 0
DWIDTH 8 0
BBX 6 6 1 8
BITMAP
78
FC
84
84
CC
7C
ENDCHAR
STARTCHAR 00B1
ENCODING 177
SWIDTH 617 0
DWIDTH 12 0
BBX 9 12 1 0
BITMAP
0C00
0C00
0C00
FF80
FF80
0C00
0C00
0C00
0000
0000
FF80
FF80
ENDCHAR
STARTCHAR 00B2
ENCODING 178
SWIDTH 411 0
DWIDTH 8 0
BBX 8 9 0 6
BITMAP
3C
FE
06
06
0C
18
30
7F
7F
ENDCHAR
STARTCHAR 00B3
ENCODING 179
SWIDTH 411 0
DWIDTH 8 0
BBX 7 9 1 6
BITMAP
FC
FC
18
38
3C
0E
06
FC
F8
ENDCHAR
STARTCHAR 00B4
ENCODING 180
SWIDTH 617 0
DWIDTH 12 0
BBX 5 3 4 12
BITMAP
38
70
E0
ENDCHAR
STARTCHAR 00B5
ENCODING 181
SWIDTH 668 0
DWIDTH 13 0
BBX 11 15 1 -4
BITMAP
E0E0
E0E0
E0E0
E0E0
E0E0
E0E0
E0E0
F1E0
FFE0
FFE0
EEE0
E000
E000
E000
E000
ENDCHAR
STARTCHAR 00B6
ENCODING 182
SWIDTH 668 0
DWIDTH 13 0
BBX 12 17 0 -2
BITMAP
3FF0
7FF0
FE70
FE70
FE70
7E70
7E70
1E70
0E70
0E70
0E70
0E70
0E70
0E70
0E70
0E70
0E70
ENDCHAR
STARTCHAR 00B7
ENCODING 183
SWIDTH 308 0
DWIDTH 6 0
BBX 4 4 1 3
BITMAP
60
F0
F0
60
ENDCHAR
STARTCHAR 00B8
ENCODING 184
SWIDTH 617 0
DWIDTH 12 0
BBX 4 4 4 -4
BITMAP
40
70
30
F0
ENDCHAR
STARTCHAR 00B9
ENCODING 185
SWIDTH 411 0
DWIDTH 8 0
BBX 6 9 1 6
BITMAP
78
78
38
38
38
38
38
FC
FC
ENDCHAR
STARTCHAR 00BA
ENCODING 186
SWIDTH 411 0
DWIDTH 8 0
BBX 8 7 0 8
BITMAP
3C
7E
63
E3
67
7E
18
ENDCHAR
STARTCHAR 00BB
ENCODING 187
SWIDTH 565 0
DWIDTH 11 0
BBX 9 8 1 1
BITMAP
EE00
6700
7300
3B80
3380
7700
E600
CE00
ENDCHAR
STARTCHAR 00BC
ENCODING 188
SWIDTH 1028 0
DWIDTH 20 0
BBX 19 14 1 0
BITMAP
780E00
780C00
381800
383800
383000
386000
38E380
FCC300
FD8600
038EC0
030CC0
061FE0
0E1FE0
0C00C0
ENDCHAR
STARTCHAR 00BD
ENCODING 189
SWIDTH 1028 0
DWIDTH 20 0
BBX 19 14 1 0
BITMAP
780E00
780C00
381800
383800
383000
386700
FCEFC0
FCC8C0
0180C0
0381C0
030380
060700
0E0FE0
0C0FE0
ENDCHAR
STARTCHAR 00BE
ENCODING 190
SWIDTH 1028 0
DWIDTH 20 0
BBX 20 14 0 0
BITMAP
7E0700
7E0600
0C0C00
1C1C00
1E1800
073000
4771C0
FE6180
3CC300
01C760
018660
030FF0
070FF0
060060
ENDCHAR
STARTCHAR 00BF
ENCODING 191
SWIDTH 565 0
DWIDTH 11 0
BBX 10 14 1 -3
BITMAP
1C00
1E00
1C00
0800
0000
1C00
3C00
7800
7000
E000
E080
FFC0
7F80
3F00
ENDCHAR
STARTCHAR 00C0
ENCODING 192
SWIDTH 771 0
DWIDTH 15 0
BBX 15 18 0 0
BITMAP
0E00
0700
0380
0000
0380
07C0
07C0
0EE0
0EE0
1EE0
1C70
1C70
3838
3FF8
7FFC
701C
F01C
E00E
ENDCHAR
STARTCHAR 00C1
ENCODING 193
SWIDTH 771 0
DWIDTH 15 0
BBX 15 18 0 0
BITMAP
00E0
01C0
0300
0000
0380
07C0
07C0
0EE0
0EE0
1EE0
1C70
1C70
3838
3FF8
7FFC
701C
F01C
E00E
ENDCHAR
STARTCHAR 00C2
ENCODING 194
SWIDTH 771 0
DWIDTH 15 0
BBX 15 18 0 0
BITMAP
0380
06C0
0C60
0000
0380
07C0
07C0
0EE0
0EE0
1EE0
1C70
1C70
3838
3FF8
7FFC
701C
F01C
E00E
ENDCHAR
STARTCHAR 00C3
ENCODING 195
SWIDTH 771 0
DWIDTH 15 0
BBX 15 18 0 0
BITMAP
0620
0FE0
09C0
0000
0380
07C0
07C0
0EE0
0EE0
1EE0
1C70
1C70
3838
3FF8
7FFC
701C
F01C
E00E
ENDCHAR
STARTCHAR 00C4
ENCODING 196
SWIDTH 771 0
DWIDTH 15 0
BBX 15 18 0 0
BITMAP
0EC0
0EE0
0440
0000
0380
07C0
07C0
0EE0
0EE0
1EE0
1C70
1C70
3838
3FF8
7FFC
701C
F01C
E00E
ENDCHAR
STARTCHAR 00C5
ENCODING 197
SWIDTH 771 0
DWIDTH 15 0
BBX 15 20 0 0
BITMAP
0380
06C0
0440
06C0
0380
0000
0380
07C0
07C0
0EE0
0EE0
1EE0
1C70
1C70
3838
3FF8
7FFC
701C
F01C
E00E
ENDCHAR
STARTCHAR 00C6
ENCODING 198
SWIDTH 1080 0
DWIDTH 21 0
BBX 20 14 0 0
BITMAP
01FFF0
01FFF0
03FFF0
03B800
073800
0F3800
0E3FE0
1E3FE0
1C3800
3FF800
3FF800
703FF0
703FF0
E03FF0
ENDCHAR
STARTCHAR 00C7
ENCODING 199
SWIDTH 720 0
DWIDTH 14 0
BBX 13 18 1 -4
BITMAP
0FC0
3FF0
7FF0
7830
F000
E000
E000
E000
E000
F000
7830
7FF8
3FF0
0FC0
0200
0700
0180
0F80
ENDCHAR
STARTCHAR 00C8
ENCODING 200
SWIDTH 668 0
DWIDTH 13 0
BBX 10 18 2 0
BITMAP
7000
1800
0C00
0000
FFC0
FFC0
FFC0
E000
E000
E000
FF80
FF80
E000
E000
E000
FFC0
FFC0
FFC0
ENDCHAR
STARTCHAR 00C9
ENCODING 201
SWIDTH 668 0
DWIDTH 13 0
BBX 10 18 2 0
BITMAP
0700
0E00
1C00
0000
FFC0
FFC0
FFC0
E000
E000
E000
FF80
FF80
E000
E000
E000
FFC0
FFC0
FFC0
ENDCHAR
STARTCHAR 00CA
ENCODING 202
SWIDTH 668 0
DWIDTH 13 0
BBX 10 18 2 0
BITMAP
1E00
3E00
6300
0000
FFC0
FFC0
FFC0
E000
E000
E000
FF80
FF80
E000
E000
E000
FFC0
FFC0
FFC0
ENDCHAR
STARTCHAR 00CB
ENCODING 203
SWIDTH 668 0
DWIDTH 13 0
BBX 10 18 2 0
BITMAP
3300
7700
3200
0000
FFC0
FFC0
FFC0
E000
E000
E000
FF80
FF80
E000
E000
E000
FFC0
FFC0
FFC0
ENDCHAR
STARTCHAR 00CC
ENCODING 204
SWIDTH 308 0
DWIDTH 6 0
BBX 5 18 0 0
BITMAP
E0
70
38
00
38
38
38
38
38
38
38
38
38
38
38
38
38
38
ENDCHAR
STARTCHAR 00CD
ENCODING 205
SWIDTH 308 0
DWIDTH 6 0
BBX 5 18 2 0
BITMAP
38
60
C0
00
E0
E0
E0
E0
E0
E0
E0
E0
E0
E0
E0
E0
E0
E0
ENDCHAR
STARTCHAR 00CE
ENCODING 206
SWIDTH 308 0
DWIDTH 6 0
BBX 7 18 0 0
BITMAP
78
FC
C6
00
38
38
38
38
38
38
38
38
38
38
38
38
38
38
ENDCHAR
STARTCHAR 00CF
ENCODING 207
SWIDTH 308 0
DWIDTH 6 0
BBX 6 18 0 0
BITMAP
CC
EC
CC
00
38
38
38
38
38
38
38
38
38
38
38
38
38
38
ENDCHAR
STARTCHAR 00D0
ENCODING 208
SWIDTH 822 0
DWIDTH 16 0
BBX 16 14 0 0
BITMAP
3FE0
3FF8
3FFC
381E
380E
380E
FF0F
FF0F
380E
380E
381E
3FFC
3FF8
3FE0
ENDCHAR
STARTCHAR 00D1
ENCODING 209
SWIDTH 822 0
DWIDTH 16 0
BBX 12 18 2 0
BITMAP
1CC0
3F80
3380
0000
E070
E070
F070
F870
FC70
FE70
EE70
EF70
E7F0
E3F0
E1F0
E0F0
E0F0
E070
ENDCHAR
STARTCHAR 00D2
ENCODING 210
SWIDTH 822 0
DWIDTH 16 0
BBX 15 18 1 0
BITMAP
1E00
0700
0300
0000
0FC0
3FF0
7FF8
783C
F01C
E01C
E01E
E01E
E01C
F01C
783C
7FF8
3FF0
0FC0
ENDCHAR
STARTCHAR 00D3
ENCODING 211
SWIDTH 822 0
DWIDTH 16 0
BBX 15 18 1 0
BITMAP
00E0
01C0
0300
0000
0FC0
3FF0
7FF8
783C
F01C
E01C
E01E
E01E
E01C
F01C
783C
7FF8
3FF0
0FC0
ENDCHAR
STARTCHAR 00D4
ENCODING 212
SWIDTH 822 0
DWIDTH 16 0
BBX 15 18 1 0
BITMAP
0380
07C0
0CE0
0000
0FC0
3FF0
7FF8
783C
F01C
E01C
E01E
E01E
E01C
F01C
783C
7FF8
3FF0
0FC0
ENDCHAR
STARTCHAR 00D5
ENCODING 213
SWIDTH 822 0
DWIDTH 16 0
BBX 15 18 1 0
BITMAP
0660
0FE0
09C0
0000
0FC0
3FF0
7FF8
783C
F01C
E01C
E01E
E01E
E01C
F01C
783C
7FF8
3FF0
0FC0
ENDCHAR
STARTCHAR 00D6
ENCODING 214
SWIDTH 822 0
DWIDTH 16 0
BBX 15 18 1 0
BITMAP
04C0
0EE0
0CC0
0000
0FC0
3FF0
7FF8
783C
F01C
E01C
E01E
E01E
E01C
F01C
783C
7FF8
3FF0
0FC0
ENDCHAR
STARTCHAR 00D7
ENCODING 215
SWIDTH 617 0
DWIDTH 12 0
BBX 8 8 2 3
BITMAP
42
E7
7E
3C
3C
7E
E7
46
ENDCHAR
STARTCHAR 00D8
ENCODING 216
SWIDTH 822 0
DWIDTH 16 0
BBX 15 16 1 -1
BITMAP
000C
0FD8
3FF0
7FF8
787C
F0DC
E19C
E19E
E31E
E61C
FC1C
7C3C
7FF8
3FF0
3FC0
6000
ENDCHAR
STARTCHAR 00D9
ENCODING 217
SWIDTH 771 0
DWIDTH 15 0
BBX 13 18 1 0
BITMAP
1C00
0E00
0300
0000
F038
F038
F038
F038
F038
F038
F038
F038
7038
7078
7070
7FF0
3FE0
0F80
ENDCHAR
STARTCHAR 00DA
ENCODING 218
SWIDTH 771 0
DWIDTH 15 0
BBX 13 18 1 0
BITMAP
01C0
0380
0700
0000
F038
F038
F038
F038
F038
F038
F038
F038
7038
7078
7070
7FF0
3FE0
0F80
ENDCHAR
STARTCHAR 00DB
ENCODING 219
SWIDTH 771 0
DWIDTH 15 0
BBX 13 18 1 0
BITMAP
0700
0D80
18C0
0000
F038
F038
F038
F038
F038
F038
F038
F038
7038
7078
7070
7FF0
3FE0
0F80
ENDCHAR
STARTCHAR 00DC
ENCODING 220
SWIDTH 771 0
DWIDTH 15 0
BBX 13 18 1 0
BITMAP
0CC0
1DC0
0880
0000
F038
F038
F038
F038
F038
F038
F038
F038
7038
7078
7070
7FF0
3FE0
0F80
ENDCHAR
STARTCHAR 00DD
ENCODING 221
SWIDTH 668 0
DWIDTH 13 0
BBX 13 18 0 0
BITMAP
01C0
0380
0700
0000
E038
7078
7870
38E0
3CE0
1DC0
0FC0
0F80
0700
0700
0700
0700
0700
0700
ENDCHAR
STARTCHAR 00DE
ENCODING 222
SWIDTH 720 0
DWIDTH 14 0
BBX 11 14 2 0
BITMAP
E000
FE00
FF80
FFC0
E1E0
E0E0
E0E0
E0E0
E1E0
FFE0
FF80
FE00
E000
E000
ENDCHAR
STARTCHAR 00DF
ENCODING 223
SWIDTH 668 0
DWIDTH 13 0
BBX 12 15 1 0
BITMAP
1F00
3FC0
7FC0
70E0
E0E0
E1C0
E3C0
E7C0
E7E0
E0F0
E070
E070
E5F0
E7E0
E7C0
ENDCHAR
STARTCHAR 00E0
ENCODING 224
SWIDTH 617 0
DWIDTH 12 0
BBX 10 15 1 0
BITMAP
7800
1800
0C00
0000
3E00
FF80
6780
03C0
3FC0
FFC0
E1C0
E1C0
E3C0
FFC0
7DC0
ENDCHAR
STARTCHAR 00E1
ENCODING 225
SWIDTH 617 0
DWIDTH 12 0
BBX 10 15 1 0
BITMAP
0700
0E00
1C00
0000
3E00
FF80
6780
03C0
3FC0
FFC0
E1C0
E1C0
E3C0
FFC0
7DC0
ENDCHAR
STARTCHAR 00E2
ENCODING 226
SWIDTH 617 0
DWIDTH 12 0
BBX 10 15 1 0
BITMAP
1E00
3F00
7380
0000
3E00
FF80
6780
03C0
3FC0
FFC0
E1C0
E1C0
E3C0
FFC0
7DC0
ENDCHAR
STARTCHAR 00E3
ENCODING 227
SWIDTH 617 0
DWIDTH 12 0
BBX 10 15 1 0
BITMAP
3980
7F00
6600
0000
3E00
FF80
6780
03C0
3FC0
FFC0
E1C0
E1C0
E3C0
FFC0
7DC0
ENDCHAR
STARTCHAR 00E4
ENCODING 228
SWIDTH 617 0
DWIDTH 12 0
BBX 10 15 1 0
BITMAP
3300
3300
3300
0000
3E00
FF80
6780
03C0
3FC0
FFC0
E1C0
E1C0
E3C0
FFC0
7DC0
ENDCHAR
STARTCHAR 00E5
ENCODING 229
SWIDTH 617 0
DWIDTH 12 0
BBX 10 17 1 0
BITMAP
1C00
1200
1200
1200
1E00
0000
3E00
FF80
6780
03C0
3FC0
FFC0
E1C0
E1C0
E3C0
FFC0
7DC0
ENDCHAR
STARTCHAR 00E6
ENCODING 230
SWIDTH 977 0
DWIDTH 19 0
BBX 18 11 1 0
BITMAP
3E3E00
FFFF00
67E780
03C180
3FFFC0
FFFFC0
E1C000
E3C000
E3F700
FFFF80
3E3E00
ENDCHAR
STARTCHAR 00E7
ENCODING 231
SWIDTH 565 0
DWIDTH 11 0
BBX 10 15 1 -4
BITMAP
1F00
7F80
FFC0
E180
E000
E000
E000
E180
FBC0
7F80
1F00
0C00
0E00
0600
1E00
ENDCHAR
STARTCHAR 00E8
ENCODING 232
SWIDTH 617 0
DWIDTH 12 0
BBX 11 15 1 0
BITMAP
3800
1C00
0E00
0000
1F00
7F80
F3C0
E0C0
FFE0
FFE0
E000
E000
FB80
7FC0
1F00
ENDCHAR
STARTCHAR 00E9
ENCODING 233
SWIDTH 617 0
DWIDTH 12 0
BBX 11 15 1 0
BITMAP
0380
0600
0C00
0000
1F00
7F80
F3C0
E0C0
FFE0
FFE0
E000
E000
FB80
7FC0
1F00
ENDCHAR
STARTCHAR 00EA
ENCODING 234
SWIDTH 617 0
DWIDTH 12 0
BBX 11 15 1 0
BITMAP
1E00
3F00
3380
0000
1F00
7F80
F3C0
E0C0
FFE0
FFE0
E000
E000
FB80
7FC0
1F00
ENDCHAR
STARTCHAR 00EB
ENCODING 235
SWIDTH 617 0
DWIDTH 12 0
BBX 11 15 1 0
BITMAP
3300
3B00
3300
0000
1F00
7F80
F3C0
E0C0
FFE0
FFE0
E000
E000
FB80
7FC0
1F00
ENDCHAR
STARTCHAR 00EC
ENCODING 236
SWIDTH 308 0
DWIDTH 6 0
BBX 5 15 -1 0
BITMAP
F0
30
18
00
38
38
38
38
38
38
38
38
38
38
38
ENDCHAR
STARTCHAR 00ED
ENCODING 237
SWIDTH 308 0
DWIDTH 6 0
BBX 5 15 1 0
BITMAP
38
70
E0
00
E0
E0
E0
E0
E0
E0
E0
E0
E0
E0
E0
ENDCHAR
STARTCHAR 00EE
ENCODING 238
SWIDTH 308 0
DWIDTH 6 0
BBX 6 15 0 0
BITMAP
78
F8
CC
00
70
70
70
70
70
70
70
70
70
70
70
ENDCHAR
STARTCHAR 00EF
ENCODING 239
SWIDTH 308 0
DWIDTH 6 0
BBX 6 15 0 0
BITMAP
DC
FC
48
00
70
70
70
70
70
70
70
70
70
70
70
ENDCHAR
STARTCHAR 00F0
ENCODING 240
SWIDTH 668 0
DWIDTH 13 0
BBX 11 14 1 0
BITMAP
7F40
7FE0
0FC0
7DC0
20E0
3EE0
7FE0
F3E0
E1E0
E0E0
E1C0
F3C0
7F80
3F00
ENDCHAR
STARTCHAR 00F1
ENCODING 241
SWIDTH 668 0
DWIDTH 13 0
BBX 11 15 1 0
BITMAP
1C80
3F80
3300
0000
EF80
FFC0
FFE0
F0E0
F0E0
E0E0
E0E0
E0E0
E0E0
E0E0
E0E0
ENDCHAR
STARTCHAR 00F2
ENCODING 242
SWIDTH 668 0
DWIDTH 13 0
BBX 11 15 1 0
BITMAP
3800
1C00
0E00
0000
1F00
7F80
FFC0
E1E0
E0E0
E0E0
E0E0
E1E0
FBC0
7F80
1F00
ENDCHAR
STARTCHAR 00F3
ENCODING 243
SWIDTH 668 0
DWIDTH 13 0
BBX 11 15 1 0
BITMAP
0380
0700
0C00
0000
1F00
7F80
FFC0
E1E0
E0E0
E0E0
E0E0
E1E0
FBC0
7F80
1F00
ENDCHAR
STARTCHAR 00F4
ENCODING 244
SWIDTH 668 0
DWIDTH 13 0
BBX 11 15 1 0
BITMAP
0E00
1B00
3180
0000
1F00
7F80
FFC0
E1E0
E0E0
E0E0
E0E0
E1E0
FBC0
7F80
1F00
ENDCHAR
STARTCHAR 00F5
ENCODING 245
SWIDTH 668 0
DWIDTH 13 0
BBX 11 15 1 0
BITMAP
1980
3F80
2300
0000
1F00
7F80
FFC0
E1E0
E0E0
E0E0
E0E0
E1E0
FBC0
7F80
1F00
ENDCHAR
STARTCHAR 00F6
ENCODING 246
SWIDTH 668 0
DWIDTH 13 0
BBX 11 15 1 0
BITMAP
3300
3B80
1100
0000
1F00
7F80
FFC0
E1E0
E0E0
E0E0
E0E0
E1E0
FBC0
7F80
1F00
ENDCHAR
STARTCHAR 00F7
ENCODING 247
SWIDTH 617 0
DWIDTH 12 0
BBX 9 11 1 1
BITMAP
1C00
1C00
0C00
0000
FF80
FF80
0000
0000
1C00
1C00
0C00
ENDCHAR
STARTCHAR 00F8
ENCODING 248
SWIDTH 668 0
DWIDTH 13 0
BBX 11 13 1 -1
BITMAP
00C0
1F80
7F80
FFC0
E3E0
E6E0
E4E0
E8E0
F9E0
FBC0
7F80
7F00
4000
ENDCHAR
STARTCHAR 00F9
ENCODING 249
SWIDTH 668 0
DWIDTH 13 0
BBX 11 15 1 0
BITMAP
3800
1C00
0600
0000
E0E0
E0E0
E0E0
E0E0
E0E0
E0E0
E0E0
F1E0
7FE0
7FE0
3EE0
ENDCHAR
STARTCHAR 00FA
ENCODING 250
SWIDTH 668 0
DWIDTH 13 0
BBX 11 15 1 0
BITMAP
0380
0700
0E00
0000
E0E0
E0E0
E0E0
E0E0
E0E0
E0E0
E0E0
F1E0
7FE0
7FE0
3EE0
ENDCHAR
STARTCHAR 00FB
ENCODING 251
SWIDTH 668 0
DWIDTH 13 0
BBX 11 15 1 0
BITMAP
0E00
1B00
3180
0000
E0E0
E0E0
E0E0
E0E0
E0E0
E0E0
E0E0
F1E0
7FE0
7FE0
3EE0
ENDCHAR
STARTCHAR 00FC
ENCODING 252
SWIDTH 668 0
DWIDTH 13 0
BBX 11 15 1 0
BITMAP
1980
3B80
1100
0000
E0E0
E0E0
E0E0
E0E0
E0E0
E0E0
E0E0
F1E0
7FE0
7FE0
3EE0
ENDCHAR
STARTCHAR 00FD
ENCODING 253
SWIDTH 617 0
DWIDTH 12 0
BBX 12 19 0 -4
BITMAP
0380
0700
0E00
0000
E070
F0E0
70E0
71C0
39C0
39C0
3F80
1F80
1F00
0F00
0F00
0E00
5E00
FC00
F800
ENDCHAR
STARTCHAR 00FE
ENCODING 254
SWIDTH 668 0
DWIDTH 13 0
BBX 12 19 1 -4
BITMAP
E000
E000
E000
E000
EF80
FFC0
FFE0
F0E0
F070
E070
F070
F0E0
FFE0
FFC0
EF80
E000
E000
E000
E000
ENDCHAR
STARTCHAR 00FF
ENCODING 255
SWIDTH 617 0
DWIDTH 12 0
BBX 12 19 0 -4
BITMAP
1B80
3B80
1100
0000
E070
F0E0
70E0
71C0
39C0
39C0
3F80
1F80
1F00
0F00
0F00
0E00
5E00
FC00
F800
ENDCHAR
STARTCHAR 0100
ENCODING 256
SWIDTH 771 0
DWIDTH 15 0
BBX 15 18 0 0
BITMAP
0FE0
0FE0
0000
0000
0380
07C0
07C0
0EE0
0EE0
1EE0
1C70
1C70
3838
3FF8
7FFC
701C
F01C
E00E
ENDCHAR
STARTCHAR 0101
ENCODING 257
SWIDTH 617 0
DWIDTH 12 0
BBX 10 15 1 0
BITMAP
7F80
7F80
0000
0000
3E00
FF80
6780
03C0
3FC0
FFC0
E1C0
E1C0
E3C0
FFC0
7DC0
ENDCHAR
STARTCHAR 0102
ENCODING 258
SWIDTH 771 0
DWIDTH 15 0
BBX 15 18 0 0
BITMAP
0C60
0FE0
07C0
0000
0380
07C0
07C0
0EE0
0EE0
1EE0
1C70
1C70
3838
3FF8
7FFC
701C
F01C
E00E
ENDCHAR
STARTCHAR 0103
ENCODING 259
SWIDTH 617 0
DWIDTH 12 0
BBX 10 15 1 0
BITMAP
6300
3F00
1E00
0000
3E00
FF80
6780
03C0
3FC0
FFC0
E1C0
E1C0
E3C0
FFC0
7DC0
ENDCHAR
STARTCHAR 0104
ENCODING 260
SWIDTH 771 0
DWIDTH 15 0
BBX 15 19 0 -5
BITMAP
0380
07C0
07C0
0EE0
0EE0
1EE0
1C70
1C70
3838
3FF8
7FFC
701C
F01C
E00E
000C
0018
0018
001E
0004
ENDCHAR
STARTCHAR 0105
ENCODING 261
SWIDTH 617 0
DWIDTH 12 0
BBX 10 16 1 -5
BITMAP
3E00
FF80
6780
03C0
3FC0
FFC0
E1C0
E1C0
E3C0
FFC0
7DC0
0380
0300
0600
03C0
0100
ENDCHAR
STARTCHAR 0106
ENCODING 262
SWIDTH 720 0
DWIDTH 14 0
BBX 13 18 1 0
BITMAP
00E0
01C0
0300
0000
0FC0
3FF0
7FF0
7830
F000
E000
E000
E000
E000
F000
7830
7FF8
3FF0
0FC0
ENDCHAR
STARTCHAR 0107
ENCODING 263
SWIDTH 565 0
DWIDTH 11 0
BBX 10 15 1 0
BITMAP
0780
0600
0C00
0000
1F00
7F80
FFC0
E180
E000
E000
E000
E180
FBC0
7F80
1F00
ENDCHAR
STARTCHAR 0108
ENCODING 264
SWIDTH 720 0
DWIDTH 14 0
BBX 13 18 1 0
BITMAP
0780
07C0
0CC0
0000
0FC0
3FF0
7FF0
7830
F000
E000
E000
E000
E000
F000
7830
7FF8
3FF0
0FC0
ENDCHAR
STARTCHAR 0109
ENCODING 265
SWIDTH 565 0
DWIDTH 11 0
BBX 10 15 1 0
BITMAP
1E00
3F00
7380
0000
1F00
7F80
FFC0
E180
E000
E000
E000
E180
FBC0
7F80
1F00
ENDCHAR
STARTCHAR 010A
ENCODING 266
SWIDTH 720 0
DWIDTH 14 0
BBX 13 18 1 0
BITMAP
0300
0780
0300
0000
0FC0
3FF0
7FF0
7830
F000
E000
E000
E000
E000
F000
7830
7FF8
3FF0
0FC0
ENDCHAR
STARTCHAR 010B
ENCODING 267
SWIDTH 565 0
DWIDTH 11 0
BBX 10 15 1 0
BITMAP
0C00
1E00
0C00
0000
1F00
7F80
FFC0
E180
E000
E000
E000
E180
FBC0
7F80
1F00
ENDCHAR
STARTCHAR 010C
ENCODING 268
SWIDTH 720 0
DWIDTH 14 0
BBX 13 18 1 0
BITMAP
1CE0
0FC0
0780
0000
0FC0
3FF0
7FF0
7830
F000
E000
E000
E000
E000
F000
7830
7FF8
3FF0
0FC0
ENDCHAR
STARTCHAR 010D
ENCODING 269
SWIDTH 565 0
DWIDTH 11 0
BBX 10 15 1 0
BITMAP
3380
1F00
1E00
0000
1F00
7F80
FFC0
E180
E000
E000
E000
E180
FBC0
7F80
1F00
ENDCHAR
STARTCHAR 010E
ENCODING 270
SWIDTH 822 0
DWIDTH 16 0
BBX 13 18 2 0
BITMAP
3180
3F00
1E00
0000
FF80
FFE0
FFF0
E070
E078
E038
E038
E038
E038
E078
E070
FFF0
FFE0
FF80
ENDCHAR
STARTCHAR 010F
ENCODING 271
SWIDTH 668 0
DWIDTH 13 0
BBX 15 16 1 0
BITMAP
0006
00E6
00E6
00E6
00E0
1EE0
7FE0
FFE0
E1E0
E0E0
E0E0
E0E0
E1E0
FBE0
7FE0
1EE0
ENDCHAR
STARTCHAR 0110
ENCODING 272
SWIDTH 822 0
DWIDTH 16 0
BBX 16 14 0 0
BITMAP
3FE0
3FF8
3FFC
381E
380E
380E
FF0F
FF0F
380E
380E
381E
3FFC
3FF8
3FE0
ENDCHAR
STARTCHAR 0111
ENCODING 273
SWIDTH 668 0
DWIDTH 13 0
BBX 12 15 1 0
BITMAP
00E0
0FF0
0FF0
00E0
1EE0
7FE0
FFE0
E1E0
E0E0
E0E0
E0E0
E1E0
FBE0
7FE0
1EE0
ENDCHAR
STARTCHAR 0112
ENCODING 274
SWIDTH 668 0
DWIDTH 13 0
BBX 10 18 2 0
BITMAP
7F00
7F00
0000
0000
FFC0
FFC0
FFC0
E000
E000
E000
FF80
FF80
E000
E000
E000
FFC0
FFC0
FFC0
ENDCHAR
STARTCHAR 0113
ENCODING 275
SWIDTH 617 0
DWIDTH 12 0
BBX 11 15 1 0
BITMAP
3F80
3F80
0000
0000
1F00
7F80
F3C0
E0C0
FFE0
FFE0
E000
E000
FB80
7FC0
1F00
ENDCHAR
STARTCHAR 0114
ENCODING 276
SWIDTH 668 0
DWIDTH 13 0
BBX 10 18 2 0
BITMAP
6300
3F00
1E00
0000
FFC0
FFC0
FFC0
E000
E000
E000
FF80
FF80
E000
E000
E000
FFC0
FFC0
FFC0
ENDCHAR
STARTCHAR 0115
ENCODING 277
SWIDTH 617 0
DWIDTH 12 0
BBX 11 15 1 0
BITMAP
3180
3F00
1E00
0000
1F00
7F80
F3C0
E0C0
FFE0
FFE0
E000
E000
FB80
7FC0
1F00
ENDCHAR
STARTCHAR 0116
ENCODING 278
SWIDTH 668 0
DWIDTH 13 0
BBX 10 18 2 0
BITMAP
1C00
1C00
0C00
0000
FFC0
FFC0
FFC0
E000
E000
E000
FF80
FF80
E000
E000
E000
FFC0
FFC0
FFC0
ENDCHAR
STARTCHAR 0117
ENCODING 279
SWIDTH 617 0
DWIDTH 12 0
BBX 11 15 1 0
BITMAP
0E00
0E00
0C00
0000
1F00
7F80
F3C0
E0C0
FFE0
FFE0
E000
E000
FB80
7FC0
1F00
ENDCHAR
STARTCHAR 0118
ENCODING 280
SWIDTH 668 0
DWIDTH 13 0
BBX 10 19 2 -5
BITMAP
FFC0
FFC0
FFC0
E000
E000
E000
FF80
FF80
E000
E000
E000
FFC0
FFC0
FFC0
0180
0300
0300
03C0
0080
ENDCHAR
STARTCHAR 0119
ENCODING 281
SWIDTH 617 0
DWIDTH 12 0
BBX 11 16 1 -5
BITMAP
1F00
7F80
F3C0
E0C0
FFE0
FFE0
E000
E000
FB80
7FC0
1F80
0300
0600
0600
07C0
0100
ENDCHAR
STARTCHAR 011A
ENCODING 282
SWIDTH 668 0
DWIDTH 13 0
BBX 10 18 2 0
BITMAP
7300
3E00
1C00
0000
FFC0
FFC0
FFC0
E000
E000
E000
FF80
FF80
E000
E000
E000
FFC0
FFC0
FFC0
ENDCHAR
STARTCHAR 011B
ENCODING 283
SWIDTH 617 0
DWIDTH 12 0
BBX 11 15 1 0
BITMAP
3380
1F00
0E00
0000
1F00
7F80
F3C0
E0C0
FFE0
FFE0
E000
E000
FB80
7FC0
1F00
ENDCHAR
STARTCHAR 011C
ENCODING 284
SWIDTH 771 0
DWIDTH 15 0
BBX 13 18 1 0
BITMAP
0780
07C0
0CE0
0000
0FC0
3FF0
7FF8
7830
F000
E000
E000
E038
E038
F038
7838
7FF8
3FF0
0FC0
ENDCHAR
STARTCHAR 011D
ENCODING 285
SWIDTH 720 0
DWIDTH 14 0
BBX 11 19 1 -4
BITMAP
0E00
1B00
3180
0000
3EE0
7FE0
FFE0
E0E0
E0E0
E0E0
E0E0
F1E0
7FE0
3FE0
00E0
40E0
73E0
FFC0
3F00
ENDCHAR
STARTCHAR 011E
ENCODING 286
SWIDTH 771 0
DWIDTH 15 0
BBX 13 18 1 0
BITMAP
0C60
0FC0
0780
0000
0FC0
3FF0
7FF8
7830
F000
E000
E000
E038
E038
F038
7838
7FF8
3FF0
0FC0
ENDCHAR
STARTCHAR 011F
ENCODING 287
SWIDTH 720 0
DWIDTH 14 0
BBX 11 19 1 -4
BITMAP
3180
1F80
0F00
0000
3EE0
7FE0
FFE0
E0E0
E0E0
E0E0
E0E0
F1E0
7FE0
3FE0
00E0
40E0
73E0
FFC0
3F00
ENDCHAR
STARTCHAR 0120
ENCODING 288
SWIDTH 771 0
DWIDTH 15 0
BBX 13 18 1 0
BITMAP
0380
0780
0300
0000
0FC0
3FF0
7FF8
7830
F000
E000
E000
E038
E038
F038
7838
7FF8
3FF0
0FC0
ENDCHAR
STARTCHAR 0121
ENCODING 289
SWIDTH 720 0
DWIDTH 14 0
BBX 11 19 1 -4
BITMAP
0E00
0E00
0E00
0000
3EE0
7FE0
FFE0
E0E0
E0E0
E0E0
E0E0
F1E0
7FE0
3FE0
00E0
40E0
73E0
FFC0
3F00
ENDCHAR
STARTCHAR 0122
ENCODING 290
SWIDTH 771 0
DWIDTH 15 0
BBX 13 19 1 -5
BITMAP
0FC0
3FF0
7FF8
7830
F000
E000
E000
E038
E038
F038
7838
7FF8
3FF0
0FC0
0000
0300
0300
0300
0200
ENDCHAR
STARTCHAR 0123
ENCODING 291
SWIDTH 720 0
DWIDTH 14 0
BBX 11 20 1 -4
BITMAP
0600
0400
0E00
0E00
0000
3EE0
7FE0
FFE0
E0E0
E0E0
E0E0
E0E0
F1E0
7FE0
3FE0
00E0
40E0
73E0
FFC0
3F00
ENDCHAR
STARTCHAR 0124
ENCODING 292
SWIDTH 822 0
DWIDTH 16 0
BBX 12 18 2 0
BITMAP
0F00
1F80
3980
0000
E070
E070
E070
E070
E070
FFF0
FFF0
FFF0
E070
E070
E070
E070
E070
E070
ENDCHAR
STARTCHAR 0125
ENCODING 293
SWIDTH 668 0
DWIDTH 13 0
BBX 13 19 -1 0
BITMAP
3C00
7E00
E700
0000
3800
3800
3800
3800
3BE0
3FF0
3FF8
3C38
3C38
3838
3838
3838
3838
3838
3838
ENDCHAR
STARTCHAR 0126
ENCODING 294
SWIDTH 822 0
DWIDTH 16 0
BBX 16 14 0 0
BITMAP
381C
381C
FFFF
FFFF
381C
3FFC
3FFC
3FFC
381C
381C
381C
381C
381C
381C
ENDCHAR
STARTCHAR 0127
ENCODING 295
SWIDTH 668 0
DWIDTH 13 0
BBX 12 15 0 0
BITMAP
7000
FF00
FF00
7000
77C0
7FE0
7FF0
7870
7870
7070
7070
7070
7070
7070
7070
ENDCHAR
STARTCHAR 0128
ENCODING 296
SWIDTH 308 0
DWIDTH 6 0
BBX 8 18 -1 0
BITMAP
73
7F
CE
00
1C
1C
1C
1C
1C
1C
1C
1C
1C
1C
1C
1C
1C
1C
ENDCHAR
STARTCHAR 0129
ENCODING 297
SWIDTH 308 0
DWIDTH 6 0
BBX 6 15 0 0
BITMAP
E4
FC
98
00
70
70
70
70
70
70
70
70
70
70
70
ENDCHAR
STARTCHAR 012A
ENCODING 298
SWIDTH 308 0
DWIDTH 6 0
BBX 6 18 0 0
BITMAP
FC
FC
00
00
38
38
38
38
38
38
38
38
38
38
38
38
38
38
ENDCHAR
STARTCHAR 012B
ENCODING 299
SWIDTH 308 0
DWIDTH 6 0
BBX 6 15 0 0
BITMAP
FC
FC
00
00
70
70
70
70
70
70
70
70
70
70
70
ENDCHAR
STARTCHAR 012C
ENCODING 300
SWIDTH 308 0
DWIDTH 6 0
BBX 7 18 0 0
BITMAP
C6
FC
78
00
38
38
38
38
38
38
38
38
38
38
38
38
38
38
ENDCHAR
STARTCHAR 012D
ENCODING 301
SWIDTH 308 0
DWIDTH 6 0
BBX 6 15 0 0
BITMAP
CC
FC
78
00
70
70
70
70
70
70
70
70
70
70
70
ENDCHAR
STARTCHAR 012E
ENCODING 302
SWIDTH 308 0
DWIDTH 6 0
BBX 3 19 2 -5
BITMAP
E0
E0
E0
E0
E0
E0
E0
E0
E0
E0
E0
E0
E0
E0
C0
C0
C0
E0
40
ENDCHAR
STARTCHAR 012F
ENCODING 303
SWIDTH 308 0
DWIDTH 6 0
BBX 4 21 1 -5
BITMAP
60
F0
F0
00
00
E0
E0
E0
E0
E0
E0
E0
E0
E0
E0
E0
60
C0
C0
70
20
ENDCHAR
STARTCHAR 0130
ENCODING 304
SWIDTH 308 0
DWIDTH 6 0
BBX 3 18 2 0
BITMAP
E0
E0
C0
00
E0
E0
E0
E0
E0
E0
E0
E0
E0
E0
E0
E0
E0
E0
ENDCHAR
STARTCHAR 0131
ENCODING 305
SWIDTH 308 0
DWIDTH 6 0
BBX 3 11 1 0
BITMAP
E0
E0
E0
E0
E0
E0
E0
E0
E0
E0
E0
ENDCHAR
STARTCHAR 0132
ENCODING 306
SWIDTH 720 0
DWIDTH 14 0
BBX 12 14 1 0
BITMAP
F0F0
F0F0
F0F0
F0F0
F0F0
F0F0
F0F0
00F0
00F0
00E0
40E0
7FE0
FFC0
3F00
ENDCHAR
STARTCHAR 0133
ENCODING 307
SWIDTH 617 0
DWIDTH 12 0
BBX 10 20 1 -4
BITMAP
6180
F3C0
F3C0
0000
0000
E380
E380
E380
E380
E380
E380
E380
E380
E380
E380
E380
0380
0380
1F80
1F00
ENDCHAR
STARTCHAR 0134
ENCODING 308
SWIDTH 565 0
DWIDTH 11 0
BBX 9 18 0 0
BITMAP
1E00
3F00
7380
0000
7F80
7F80
7F80
0380
0380
0380
0380
0380
0380
0380
4380
FF80
FF00
3E00
ENDCHAR
STARTCHAR 0135
ENCODING 309
SWIDTH 308 0
DWIDTH 6 0
BBX 8 19 -2 -4
BITMAP
1E
1E
33
00
0E
0E
0E
0E
0E
0E
0E
0E
0E
0E
0E
1E
5C
7C
F8
ENDCHAR
STARTCHAR 0136
ENCODING 310
SWIDTH 720 0
DWIDTH 14 0
BBX 12 19 2 -5
BITMAP
E0F0
E1E0
E3C0
E380
E700
EE00
FE00
FF00
FF00
F780
E3C0
E1E0
E0E0
E070
0000
0C00
0E00
0400
0C00
ENDCHAR
STARTCHAR 0137
ENCODING 311
SWIDTH 668 0
DWIDTH 13 0
BBX 11 20 1 -5
BITMAP
E000
E000
E000
E000
E1E0
E3C0
E780
EF00
FE00
FF00
FF00
F780
E3C0
E1E0
E0E0
0000
0C00
0E00
0400
0C00
ENDCHAR
STARTCHAR 0138
ENCODING 312
SWIDTH 668 0
DWIDTH 13 0
BBX 11 11 1 0
BITMAP
E1E0
E3C0
E780
EF00
FE00
FF00
FF00
F780
E3C0
E1E0
E0E0
ENDCHAR
STARTCHAR 0139
ENCODING 313
SWIDTH 617 0
DWIDTH 12 0
BBX 10 18 2 0
BITMAP
3800
6000
C000
0000
E000
E000
E000
E000
E000
E000
E000
E000
E000
E000
E000
FFC0
FFC0
FFC0
ENDCHAR
STARTCHAR 013A
ENCODING 314
SWIDTH 308 0
DWIDTH 6 0
BBX 5 19 1 0
BITMAP
38
70
E0
00
E0
E0
E0
E0
E0
E0
E0
E0
E0
E0
E0
E0
E0
E0
E0
ENDCHAR
STARTCHAR 013B
ENCODING 315
SWIDTH 617 0
DWIDTH 12 0
BBX 10 19 2 -5
BITMAP
E000
E000
E000
E000
E000
E000
E000
E000
E000
E000
E000
FFC0
FFC0
FFC0
0000
0C00
1C00
0C00
0800
ENDCHAR
STARTCHAR 013C
ENCODING 316
SWIDTH 308 0
DWIDTH 6 0
BBX 3 20 1 -5
BITMAP
E0
E0
E0
E0
E0
E0
E0
E0
E0
E0
E0
E0
E0
E0
E0
00
60
60
60
40
ENDCHAR
STARTCHAR 013D
ENCODING 317
SWIDTH 617 0
DWIDTH 12 0
BBX 10 15 2 0
BITMAP
0380
E380
E300
E300
E000
E000
E000
E000
E000
E000
E000
E000
FFC0
FFC0
FFC0
ENDCHAR
STARTCHAR 013E
ENCODING 318
SWIDTH 308 0
DWIDTH 6 0
BBX 7 16 1 0
BITMAP
06
E6
E6
E6
E0
E0
E0
E0
E0
E0
E0
E0
E0
E0
E0
E0
ENDCHAR
STARTCHAR 013F
ENCODING 319
SWIDTH 617 0
DWIDTH 12 0
BBX 10 14 2 0
BITMAP
E000
E000
E000
E000
E300
E780
E380
E000
E000
E000
E000
FFC0
FFC0
FFC0
ENDCHAR
STARTCHAR 0140
ENCODING 320
SWIDTH 411 0
DWIDTH 8 0
BBX 8 15 1 0
BITMAP
E0
E0
E0
E0
E0
E0
E6
EF
E6
E0
E0
E0
E0
E0
E0
ENDCHAR
STARTCHAR 0141
ENCODING 321
SWIDTH 617 0
DWIDTH 12 0
BBX 12 14 0 0
BITMAP
3800
3800
3800
3A00
3F00
3E00
3800
7800
F800
3800
3800
3FF0
3FF0
3FF0
ENDCHAR
STARTCHAR 0142
ENCODING 322
SWIDTH 308 0
DWIDTH 6 0
BBX 7 15 0 0
BITMAP
38
38
38
38
38
3E
3C
38
78
F8
B8
38
38
38
38
ENDCHAR
STARTCHAR 0143
ENCODING 323
SWIDTH 822 0
DWIDTH 16 0
BBX 12 18 2 0
BITMAP
0380
0700
0E00
0000
E070
E070
F070
F870
FC70
FE70
EE70
EF70
E7F0
E3F0
E1F0
E0F0
E0F0
E070
ENDCHAR
STARTCHAR 0144
ENCODING 324
SWIDTH 668 0
DWIDTH 13 0
BBX 11 15 1 0
BITMAP
0380
0700
0E00
0000
EF80
FFC0
FFE0
F0E0
F0E0
E0E0
E0E0
E0E0
E0E0
E0E0
E0E0
ENDCHAR
STARTCHAR 0145
ENCODING 325
SWIDTH 822 0
DWIDTH 16 0
BBX 12 19 2 -5
BITMAP
E070
E070
F070
F870
FC70
FE70
EE70
EF70
E7F0
E3F0
E1F0
E0F0
E0F0
E070
0000
0600
0600
0600
0400
ENDCHAR
STARTCHAR 0146
ENCODING 326
SWIDTH 668 0
DWIDTH 13 0
BBX 11 16 1 -5
BITMAP
EF80
FFC0
FFE0
F0E0
F0E0
E0E0
E0E0
E0E0
E0E0
E0E0
E0E0
0000
0600
0E00
0600
0400
ENDCHAR
STARTCHAR 0147
ENCODING 327
SWIDTH 822 0
DWIDTH 16 0
BBX 12 18 2 0
BITMAP
3980
1F00
0E00
0000
E070
E070
F070
F870
FC70
FE70
EE70
EF70
E7F0
E3F0
E1F0
E0F0
E0F0
E070
ENDCHAR
STARTCHAR 0148
ENCODING 328
SWIDTH 668 0
DWIDTH 13 0
BBX 11 15 1 0
BITMAP
3980
1F00
0E00
0000
EF80
FFC0
FFE0
F0E0
F0E0
E0E0
E0E0
E0E0
E0E0
E0E0
E0E0
ENDCHAR
STARTCHAR 0149
ENCODING 329
SWIDTH 822 0
DWIDTH 16 0
BBX 14 14 1 0
BITMAP
C000
C000
C000
DDF0
9FF8
1FF8
1E3C
1C1C
1C1C
1C1C
1C1C
1C1C
1C1C
1C1C
ENDCHAR
STARTCHAR 014A
ENCODING 330
SWIDTH 822 0
DWIDTH 16 0
BBX 12 18 2 -4
BITMAP
E070
E070
F070
F870
FC70
FE70
EE70
EF70
E7F0
E3F0
E1F0
E1F0
E0F0
E070
0070
0FF0
0FE0
07C0
ENDCHAR
STARTCHAR 014B
ENCODING 331
SWIDTH 668 0
DWIDTH 13 0
BBX 11 15 1 -4
BITMAP
EF80
FFC0
FFE0
F0E0
F0E0
E0E0
E0E0
E0E0
E0E0
E0E0
E0E0
00E0
05E0
07C0
0780
ENDCHAR
STARTCHAR 014C
ENCODING 332
SWIDTH 822 0
DWIDTH 16 0
BBX 15 17 1 0
BITMAP
0FE0
0FE0
0000
0FC0
3FF0
7FF8
783C
F01C
E01C
E01E
E01E
E01C
F01C
783C
7FF8
3FF0
0FC0
ENDCHAR
STARTCHAR 014D
ENCODING 333
SWIDTH 668 0
DWIDTH 13 0
BBX 11 15 1 0
BITMAP
3F80
3F80
0000
0000
1F00
7F80
FFC0
E1E0
E0E0
E0E0
E0E0
E1E0
FBC0
7F80
1F00
ENDCHAR
STARTCHAR 014E
ENCODING 334
SWIDTH 822 0
DWIDTH 16 0
BBX 15 18 1 0
BITMAP
0C60
0FC0
0780
0000
0FC0
3FF0
7FF8
783C
F01C
E01C
E01E
E01E
E01C
F01C
783C
7FF8
3FF0
0FC0
ENDCHAR
STARTCHAR 014F
ENCODING 335
SWIDTH 668 0
DWIDTH 13 0
BBX 11 15 1 0
BITMAP
3180
3F00
1E00
0000
1F00
7F80
FFC0
E1E0
E0E0
E0E0
E0E0
E1E0
FBC0
7F80
1F00
ENDCHAR
STARTCHAR 0150
ENCODING 336
SWIDTH 822 0
DWIDTH 16 0
BBX 15 18 1 0
BITMAP
0770
0660
0EE0
0000
0FC0
3FF0
7FF8
783C
F01C
E01C
E01E
E01E
E01C
F01C
783C
7FF8
3FF0
0FC0
ENDCHAR
STARTCHAR 0151
ENCODING 337
SWIDTH 668 0
DWIDTH 13 0
BBX 11 15 1 0
BITMAP
1DC0
1980
3B80
0000
1F00
7F80
FFC0
E1E0
E0E0
E0E0
E0E0
E1E0
FBC0
7F80
1F00
ENDCHAR
STARTCHAR 0152
ENCODING 338
SWIDTH 1131 0
DWIDTH 22 0
BBX 20 14 1 0
BITMAP
0FFFF0
3FFFF0
7FFFF0
703800
F03800
E03800
E03FE0
E03FE0
E03800
F03800
783800
7FFFF0
3FFFF0
0FFFF0
ENDCHAR
STARTCHAR 0153
ENCODING 339
SWIDTH 1080 0
DWIDTH 21 0
BBX 19 11 1 0
BITMAP
1F1F00
7FBFC0
FFF1C0
E0E0E0
E0FFE0
E0FFE0
E0E000
E1F000
FBF9C0
7FBFC0
1F1F80
ENDCHAR
STARTCHAR 0154
ENCODING 340
SWIDTH 720 0
DWIDTH 14 0
BBX 11 18 2 0
BITMAP
0380
0700
0C00
0000
FF00
FFC0
FFE0
E0E0
E0E0
E0E0
E0E0
E7E0
FFC0
FF80
E380
E1C0
E1E0
E0E0
ENDCHAR
STARTCHAR 0155
ENCODING 341
SWIDTH 411 0
DWIDTH 8 0
BBX 7 15 1 0
BITMAP
0E
1C
38
00
EE
FE
FE
F0
F0
E0
E0
E0
E0
E0
E0
ENDCHAR
STARTCHAR 0156
ENCODING 342
SWIDTH 720 0
DWIDTH 14 0
BBX 11 19 2 -5
BITMAP
FF00
FFC0
FFE0
E0E0
E0E0
E0E0
E0E0
E7E0
FFC0
FF80
E380
E1C0
E1E0
E0E0
0000
0C00
0E00
0400
0C00
ENDCHAR
STARTCHAR 0157
ENCODING 343
SWIDTH 411 0
DWIDTH 8 0
BBX 7 16 1 -5
BITMAP
EE
FE
FE
F0
F0
E0
E0
E0
E0
E0
E0
00
60
60
60
40
ENDCHAR
STARTCHAR 0158
ENCODING 344
SWIDTH 720 0
DWIDTH 14 0
BBX 11 18 2 0
BITMAP
3380
1F00
0E00
0000
FF00
FFC0
FFE0
E0E0
E0E0
E0E0
E0E0
E7E0
FFC0
FF80
E380
E1C0
E1E0
E0E0
ENDCHAR
STARTCHAR 0159
ENCODING 345
SWIDTH 411 0
DWIDTH 8 0
BBX 7 15 1 0
BITMAP
E6
7C
38
00
EE
FE
FE
F0
F0
E0
E0
E0
E0
E0
E0
ENDCHAR
STARTCHAR 015A
ENCODING 346
SWIDTH 617 0
DWIDTH 12 0
BBX 11 18 1 0
BITMAP
0380
0700
0E00
0000
1F80
7FC0
FFC0
E000
E000
F000
7F00
3FC0
07E0
00E0
80E0
FFC0
FFC0
3F00
ENDCHAR
STARTCHAR 015B
ENCODING 347
SWIDTH 514 0
DWIDTH 10 0
BBX 9 15 1 0
BITMAP
0F00
0C00
1800
0000
3F00
FF00
E300
E000
F000
FF00
3F80
0380
C780
FF00
7E00
ENDCHAR
STARTCHAR 015C
ENCODING 348
SWIDTH 617 0
DWIDTH 12 0
BBX 11 18 1 0
BITMAP
0E00
1F00
3380
0000
1F80
7FC0
FFC0
E000
E000
F000
7F00
3FC0
07E0
00E0
80E0
FFC0
FFC0
3F00
ENDCHAR
STARTCHAR 015D
ENCODING 349
SWIDTH 514 0
DWIDTH 10 0
BBX 9 15 1 0
BITMAP
3C00
7E00
E700
0000
3F00
FF00
E300
E000
F000
FF00
3F80
0380
C780
FF00
7E00
ENDCHAR
STARTCHAR 015E
ENCODING 350
SWIDTH 617 0
DWIDTH 12 0
BBX 11 18 1 -4
BITMAP
1F80
7FC0
FFC0
E000
E000
F000
7F00
3FC0
07E0
01E0
80E0
FFC0
FFC0
3F00
0C00
0E00
0300
1E00
ENDCHAR
STARTCHAR 015F
ENCODING 351
SWIDTH 514 0
DWIDTH 10 0
BBX 9 15 1 -4
BITMAP
3F00
FF00
E300
E000
F000
FF00
3F80
0380
C380
FF00
7E00
1800
1C00
0C00
3C00
ENDCHAR
STARTCHAR 0160
ENCODING 352
SWIDTH 617 0
DWIDTH 12 0
BBX 11 18 1 0
BITMAP
3180
1B00
0E00
0000
1F80
7FC0
FFC0
E000
E000
F000
7F00
3FC0
07E0
00E0
80E0
FFC0
FFC0
3F00
ENDCHAR
STARTCHAR 0161
ENCODING 353
SWIDTH 514 0
DWIDTH 10 0
BBX 9 15 1 0
BITMAP
6700
3E00
3C00
0000
3F00
FF00
E300
E000
F000
FF00
3F80
0380
C780
FF00
7E00
ENDCHAR
STARTCHAR 0162
ENCODING 354
SWIDTH 617 0
DWIDTH 12 0
BBX 12 18 0 -4
BITMAP
FFF0
FFF0
FFF0
0F00
0F00
0F00
0F00
0F00
0F00
0F00
0F00
0F00
0F00
0F00
0600
0700
0300
0F00
ENDCHAR
STARTCHAR 0163
ENCODING 355
SWIDTH 411 0
DWIDTH 8 0
BBX 8 17 0 -4
BITMAP
38
38
38
FE
FE
38
38
38
38
38
3C
3F
1F
0C
0E
06
1E
ENDCHAR
STARTCHAR 0164
ENCODING 356
SWIDTH 617 0
DWIDTH 12 0
BBX 12 18 0 0
BITMAP
1980
1F80
0F00
0000
FFF0
FFF0
FFF0
0F00
0F00
0F00
0F00
0F00
0F00
0F00
0F00
0F00
0F00
0F00
ENDCHAR
STARTCHAR 0165
ENCODING 357
SWIDTH 411 0
DWIDTH 8 0
BBX 8 15 0 0
BITMAP
03
03
3B
38
38
FE
FE
38
38
38
38
38
3C
3F
1F
ENDCHAR
STARTCHAR 0166
ENCODING 358
SWIDTH 617 0
DWIDTH 12 0
BBX 12 14 0 0
BITMAP
FFF0
FFF0
FFF0
0F00
0F00
0F00
3FC0
3FC0
0F00
0F00
0F00
0F00
0F00
0F00
ENDCHAR
STARTCHAR 0167
ENCODING 359
SWIDTH 462 0
DWIDTH 9 0
BBX 8 13 0 0
BITMAP
38
38
38
FF
FF
38
FE
FE
38
38
3D
3F
0F
ENDCHAR
STARTCHAR 0168
ENCODING 360
SWIDTH 771 0
DWIDTH 15 0
BBX 13 18 1 0
BITMAP
0E40
1FC0
19C0
0000
F038
F038
F038
F038
F038
F038
F038
F038
7038
7078
7070
7FF0
3FE0
0F80
ENDCHAR
STARTCHAR 0169
ENCODING 361
SWIDTH 668 0
DWIDTH 13 0
BBX 11 15 1 0
BITMAP
1C80
3F80
2300
0000
E0E0
E0E0
E0E0
E0E0
E0E0
E0E0
E0E0
F1E0
7FE0
7FE0
3EE0
ENDCHAR
STARTCHAR 016A
ENCODING 362
SWIDTH 771 0
DWIDTH 15 0
BBX 13 18 1 0
BITMAP
1FC0
1FC0
0000
0000
F038
F038
F038
F038
F038
F038
F038
F038
7038
7078
7070
7FF0
3FE0
0F80
ENDCHAR
STARTCHAR 016B
ENCODING 363
SWIDTH 668 0
DWIDTH 13 0
BBX 11 15 1 0
BITMAP
3F80
3F80
0000
0000
E0E0
E0E0
E0E0
E0E0
E0E0
E0E0
E0E0
F1E0
7FE0
7FE0
3EE0
ENDCHAR
STARTCHAR 016C
ENCODING 364
SWIDTH 771 0
DWIDTH 15 0
BBX 13 18 1 0
BITMAP
18C0
0FC0
0780
0000
F038
F038
F038
F038
F038
F038
F038
F038
7038
7078
7070
7FF0
3FE0
0F80
ENDCHAR
STARTCHAR 016D
ENCODING 365
SWIDTH 668 0
DWIDTH 13 0
BBX 11 15 1 0
BITMAP
3180
1F80
0F00
0000
E0E0
E0E0
E0E0
E0E0
E0E0
E0E0
E0E0
F1E0
7FE0
7FE0
3EE0
ENDCHAR
STARTCHAR 016E
ENCODING 366
SWIDTH 771 0
DWIDTH 15 0
BBX 13 20 1 0
BITMAP
0700
0D80
0880
0D80
0700
0000
F038
F038
F038
F038
F038
F038
F038
F038
7038
7078
7070
7FF0
3FE0
0F80
ENDCHAR
STARTCHAR 016F
ENCODING 367
SWIDTH 668 0
DWIDTH 13 0
BBX 11 17 1 0
BITMAP
0E00
1B00
1100
1B00
0E00
0000
E0E0
E0E0
E0E0
E0E0
E0E0
E0E0
E0E0
F1E0
7FE0
7FE0
3EE0
ENDCHAR
STARTCHAR 0170
ENCODING 368
SWIDTH 771 0
DWIDTH 15 0
BBX 13 18 1 0
BITMAP
0660
0EE0
0CC0
0000
F038
F038
F038
F038
F038
F038
F038
F038
7038
7078
7070
7FF0
3FE0
0F80
ENDCHAR
STARTCHAR 0171
ENCODING 369
SWIDTH 668 0
DWIDTH 13 0
BBX 11 15 1 0
BITMAP
0CC0
1DC0
1980
0000
E0E0
E0E0
E0E0
E0E0
E0E0
E0E0
E0E0
F1E0
7FE0
7FE0
3EE0
ENDCHAR
STARTCHAR 0172
ENCODING 370
SWIDTH 771 0
DWIDTH 15 0
BBX 13 19 1 -5
BITMAP
F038
F038
F038
F038
F038
F038
F038
F038
7038
7078
7070
7FF0
3FE0
0FC0
0700
0600
0600
0780
0100
ENDCHAR
STARTCHAR 0173
ENCODING 371
SWIDTH 668 0
DWIDTH 13 0
BBX 11 16 1 -5
BITMAP
E0E0
E0E0
E0E0
E0E0
E0E0
E0E0
E0E0
F1E0
7FE0
7FE0
3EE0
01C0
0180
0180
01E0
0040
ENDCHAR
STARTCHAR 0174
ENCODING 372
SWIDTH 1182 0
DWIDTH 23 0
BBX 21 18 1 0
BITMAP
007000
00D800
018C00
000000
E07038
E0F038
E0F870
70F870
71F870
71DCE0
79DCE0
399CE0
3B8FC0
3F8FC0
1F0FC0
1F07C0
1F0780
0E0780
ENDCHAR
STARTCHAR 0175
ENCODING 373
SWIDTH 925 0
DWIDTH 18 0
BBX 18 15 0 0
BITMAP
01E000
03F000
073800
000000
E0E1C0
61E1C0
71E180
71F380
33F380
3BB300
3B3F00
1F3F00
1F1E00
1E1E00
0E1E00
ENDCHAR
STARTCHAR 0176
ENCODING 374
SWIDTH 668 0
DWIDTH 13 0
BBX 13 18 0 0
BITMAP
0700
0D80
18C0
0000
E038
7078
7870
38E0
3CE0
1DC0
0FC0
0F80
0700
0700
0700
0700
0700
0700
ENDCHAR
STARTCHAR 0177
ENCODING 375
SWIDTH 617 0
DWIDTH 12 0
BBX 12 19 0 -4
BITMAP
0E00
1B00
3180
0000
E070
F0E0
70E0
71C0
39C0
39C0
3F80
1F80
1F00
0F00
0F00
0E00
5E00
FC00
F800
ENDCHAR
STARTCHAR 0178
ENCODING 376
SWIDTH 668 0
DWIDTH 13 0
BBX 13 18 0 0
BITMAP
0DC0
1DC0
0880
0000
E038
7078
7870
38E0
3CE0
1DC0
0FC0
0F80
0700
0700
0700
0700
0700
0700
ENDCHAR
STARTCHAR 0179
ENCODING 377
SWIDTH 668 0
DWIDTH 13 0
BBX 12 18 1 0
BITMAP
0380
0700
0E00
0000
FFE0
FFE0
FFE0
03C0
0380
0780
0F00
1E00
3C00
3800
7800
FFF0
FFF0
FFF0
ENDCHAR
STARTCHAR 017A
ENCODING 378
SWIDTH 565 0
DWIDTH 11 0
BBX 9 15 1 0
BITMAP
0700
0E00
1800
0000
FF80
FF80
0700
0F00
1E00
1C00
3800
7000
F000
FF80
FF80
ENDCHAR
STARTCHAR 017B
ENCODING 379
SWIDTH 668 0
DWIDTH 13 0
BBX 12 18 1 0
BITMAP
0E00
0E00
0E00
0000
FFE0
FFE0
FFE0
03C0
0380
0780
0F00
1E00
3C00
3800
7800
FFF0
FFF0
FFF0
ENDCHAR
STARTCHAR 017C
ENCODING 380
SWIDTH 565 0
DWIDTH 11 0
BBX 9 16 1 0
BITMAP
1C00
1C00
1C00
0000
0000
FF80
FF80
0700
0F00
1E00
1C00
3800
7000
F000
FF80
FF80
ENDCHAR
STARTCHAR 017D
ENCODING 381
SWIDTH 668 0
DWIDTH 13 0
BBX 12 18 1 0
BITMAP
3980
1F00
0E00
0000
FFE0
FFE0
FFE0
03C0
0380
0780
0F00
1E00
3C00
3800
7800
FFF0
FFF0
FFF0
ENDCHAR
STARTCHAR 017E
ENCODING 382
SWIDTH 565 0
DWIDTH 11 0
BBX 9 15 1 0
BITMAP
6700
3E00
1C00
0000
FF80
FF80
0700
0F00
1E00
1C00
3800
7000
F000
FF80
FF80
ENDCHAR
STARTCHAR 017F
ENCODING 383
SWIDTH 308 0
DWIDTH 6 0
BBX 8 15 0 0
BITMAP
0F
1F
3D
38
38
F8
F8
38
38
38
38
38
38
38
38
ENDCHAR
STARTCHAR 018F
ENCODING 399
SWIDTH 822 0
DWIDTH 16 0
BBX 14 14 1 0
BITMAP
0FC0
3FF0
7FF8
3078
003C
001C
FFFC
FFFC
E01C
E03C
7038
7FF8
3FE0
0FC0
ENDCHAR
STARTCHAR 0192
ENCODING 402
SWIDTH 462 0
DWIDTH 9 0
BBX 12 19 -2 -4
BITMAP
01F0
03F0
03A0
0700
0700
1FE0
1FE0
0700
0700
0700
0E00
0E00
0E00
0E00
0E00
0E00
5E00
7C00
F800
ENDCHAR
STARTCHAR 01A0
ENCODING 416
SWIDTH 822 0
DWIDTH 16 0
BBX 15 17 1 0
BITMAP
0004
000C
000C
0FFC
3FF8
7FF8
783C
F01C
E01C
E01E
E01E
E01C
F01C
783C
7FF8
3FF0
0FC0
ENDCHAR
STARTCHAR 01A1
ENCODING 417
SWIDTH 668 0
DWIDTH 13 0
BBX 11 14 1 0
BITMAP
0060
0060
0060
1FE0
7FC0
FFC0
E1E0
E0E0
E0E0
E0E0
E1E0
FBC0
7F80
1F00
ENDCHAR
STARTCHAR 01AF
ENCODING 431
SWIDTH 822 0
DWIDTH 16 0
BBX 15 17 1 0
BITMAP
0006
0006
0006
F03E
F03C
F038
F038
F038
F038
F038
F038
7038
7078
7070
7FF0
3FE0
0F80
ENDCHAR
STARTCHAR 01B0
ENCODING 432
SWIDTH 720 0
DWIDTH 14 0
BBX 13 14 1 0
BITMAP
0010
0018
0038
E0F0
E0F0
E0E0
E0E0
E0E0
E0E0
E0E0
F1E0
7FE0
7FE0
3EE0
ENDCHAR
STARTCHAR 01B7
ENCODING 439
SWIDTH 617 0
DWIDTH 12 0
BBX 11 14 1 0
BITMAP
FFC0
FFC0
FFC0
0780
0F00
0E00
1F80
1FC0
01E0
01E0
81E0
FFC0
FF80
7F00
ENDCHAR
STARTCHAR 01C4
ENCODING 452
SWIDTH 1440 0
DWIDTH 28 0
BBX 26 18 2 0
BITMAP
0000E600
00007C00
00003800
00000000
FF83FF80
FFE3FF80
FFF3FF80
E0700700
E0780E00
E0381E00
E0383C00
E0387800
E0387000
E078F000
E071E000
FFF3FFC0
FFE3FFC0
FF83FFC0
ENDCHAR
STARTCHAR 01C5
ENCODING 453
SWIDTH 1388 0
DWIDTH 27 0
BBX 24 15 2 0
BITMAP
0000C6
FF807C
FFE038
FFF000
E079FF
E039FF
E0380E
E0381E
E0383C
E03838
E07870
E070E0
FFF1E0
FFE1FF
FF81FF
ENDCHAR
STARTCHAR 01C6
ENCODING 454
SWIDTH 1234 0
DWIDTH 24 0
BBX 22 15 1 0
BITMAP
00E398
00E1F0
00E0E0
00E000
1EE7FC
7FE7FC
F3E03C
E0E078
E0E070
E0E0E0
E0E1C0
E0E3C0
F3E380
7FE7FC
1EE7FC
ENDCHAR
STARTCHAR 01C7
ENCODING 455
SWIDTH 1131 0
DWIDTH 22 0
BBX 19 14 2 0
BITMAP
E01FE0
E01FE0
E01FE0
E000E0
E000E0
E000E0
E000E0
E000E0
E000E0
E000E0
E011E0
FFFFC0
FFFFC0
FFDF00
ENDCHAR
STARTCHAR 01C8
ENCODING 456
SWIDTH 925 0
DWIDTH 18 0
BBX 15 20 2 -4
BITMAP
001C
001E
E01C
E000
E000
E01C
E01C
E01C
E01C
E01C
E01C
E01C
E01C
FFDC
FFDC
FFDC
001C
001C
00FC
00F8
ENDCHAR
STARTCHAR 01C9
ENCODING 457
SWIDTH 617 0
DWIDTH 12 0
BBX 10 20 1 -4
BITMAP
0180
E3C0
E3C0
E000
E000
E380
E380
E380
E380
E380
E380
E380
E380
E380
E380
E380
0380
0380
1F80
1F00
ENDCHAR
STARTCHAR 01CA
ENCODING 458
SWIDTH 1337 0
DWIDTH 26 0
BBX 23 14 2 0
BITMAP
E071FE
E071FE
F071FE
F8700E
FC700E
FE700E
EE700E
EF700E
E7F00E
E3F00E
E1F11E
E0F3FC
E0F3FC
E071F0
ENDCHAR
STARTCHAR 01CB
ENCODING 459
SWIDTH 1131 0
DWIDTH 22 0
BBX 19 20 2 -4
BITMAP
0001C0
0001E0
E071C0
E07000
F07000
F871C0
FC71C0
FE71C0
EE71C0
EF71C0
E7F1C0
E3F1C0
E1F1C0
E0F1C0
E0F1C0
E071C0
0001C0
0003C0
000FC0
000F00
ENDCHAR
STARTCHAR 01CC
ENCODING 460
SWIDTH 977 0
DWIDTH 19 0
BBX 17 19 1 -4
BITMAP
000380
000380
000380
000000
EF8380
FFC380
FFE380
F0E380
F0E380
E0E380
E0E380
E0E380
E0E380
E0E380
E0E380
000380
001780
001F00
001E00
ENDCHAR
STARTCHAR 01CD
ENCODING 461
SWIDTH 771 0
DWIDTH 15 0
BBX 15 18 0 0
BITMAP
0C60
07C0
0380
0000
0380
07C0
07C0
0EE0
0EE0
1EE0
1C70
1C70
3838
3FF8
7FFC
701C
F01C
E00E
ENDCHAR
STARTCHAR 01CE
ENCODING 462
SWIDTH 617 0
DWIDTH 12 0
BBX 10 15 1 0
BITMAP
7300
3E00
1E00
0000
3E00
FF80
6780
03C0
3FC0
FFC0
E1C0
E1C0
E3C0
FFC0
7DC0
ENDCHAR
STARTCHAR 01D3
ENCODING 467
SWIDTH 771 0
DWIDTH 15 0
BBX 13 18 1 0
BITMAP
1CC0
0F80
0700
0000
F038
F038
F038
F038
F038
F038
F038
F038
7038
7078
7070
7FF0
3FE0
0F80
ENDCHAR
STARTCHAR 01D4
ENCODING 468
SWIDTH 668 0
DWIDTH 13 0
BBX 11 15 1 0
BITMAP
3980
1F00
0E00
0000
E0E0
E0E0
E0E0
E0E0
E0E0
E0E0
E0E0
F1E0
7FE0
7FE0
3EE0
ENDCHAR
STARTCHAR 01E4
ENCODING 484
SWIDTH 822 0
DWIDTH 16 0
BBX 14 14 1 0
BITMAP
0FC0
3FF0
7FF8
7830
F000
E000
E000
E038
E1FC
F1FC
7838
7FF8
3FF0
0FC0
ENDCHAR
STARTCHAR 01E5
ENCODING 485
SWIDTH 720 0
DWIDTH 14 0
BBX 12 15 1 -4
BITMAP
3EE0
7FE0
F1E0
E0E0
E0E0
E0E0
F1E0
7FE0
3FE0
00E0
0FF0
40E0
73C0
FFC0
3F00
ENDCHAR
STARTCHAR 01E6
ENCODING 486
SWIDTH 771 0
DWIDTH 15 0
BBX 13 18 1 0
BITMAP
1CE0
0FC0
0780
0000
0FC0
3FF0
7FF8
7830
F000
E000
E000
E038
E038
F038
7838
7FF8
3FF0
0FC0
ENDCHAR
STARTCHAR 01E7
ENCODING 487
SWIDTH 720 0
DWIDTH 14 0
BBX 11 19 1 -4
BITMAP
3980
1F00
0E00
0000
3EE0
7FE0
FFE0
E0E0
E0E0
E0E0
E0E0
F1E0
7FE0
3FE0
00E0
40E0
73E0
FFC0
3F00
ENDCHAR
STARTCHAR 01E8
ENCODING 488
SWIDTH 720 0
DWIDTH 14 0
BBX 12 18 2 0
BITMAP
3380
1F00
0E00
0000
E0F0
E1E0
E3C0
E380
E700
EE00
FE00
FF00
FF00
F780
E3C0
E1E0
E0E0
E070
ENDCHAR
STARTCHAR 01E9
ENCODING 489
SWIDTH 668 0
DWIDTH 13 0
BBX 13 19 -1 0
BITMAP
E600
7C00
3C00
0000
3800
3800
3800
3800
3878
38F0
39E0
3BC0
3F80
3FC0
3FC0
3DE0
38F0
3878
3838
ENDCHAR
STARTCHAR 01EA
ENCODING 490
SWIDTH 822 0
DWIDTH 16 0
BBX 15 19 1 -5
BITMAP
0FC0
3FF0
7FF8
783C
F01C
E01C
E01E
E01E
E01C
F01C
703C
7FF8
3FF0
0FC0
0300
0600
0600
0780
0100
ENDCHAR
STARTCHAR 01EB
ENCODING 491
SWIDTH 668 0
DWIDTH 13 0
BBX 11 16 1 -5
BITMAP
1F00
7F80
FFC0
E1E0
E0E0
E0E0
E0E0
E1E0
FFC0
7F80
1F00
0C00
1800
1800
0F00
0400
ENDCHAR
STARTCHAR 01EE
ENCODING 494
SWIDTH 617 0
DWIDTH 12 0
BBX 11 18 1 0
BITMAP
3300
3F00
1E00
0000
FFC0
FFC0
FFC0
0780
0F00
0E00
1F80
1FC0
01E0
01E0
81E0
FFC0
FF80
7F00
ENDCHAR
STARTCHAR 01EF
ENCODING 495
SWIDTH 565 0
DWIDTH 11 0
BBX 10 19 0 -4
BITMAP
7300
3E00
1C00
0000
FFC0
FFC0
FF80
0700
0700
0E00
1F00
1F80
03C0
01C0
01C0
81C0
FFC0
FF80
3F00
ENDCHAR
STARTCHAR 01FA
ENCODING 506
SWIDTH 771 0
DWIDTH 15 0
BBX 15 21 0 1
BITMAP
0060
03C0
06C0
0440
06C0
0380
0000
0380
07C0
07C0
0EE0
0EE0
1EE0
1C70
1C70
3838
3FF8
7FFC
701C
F01C
E00E
ENDCHAR
STARTCHAR 01FB
ENCODING 507
SWIDTH 617 0
DWIDTH 12 0
BBX 10 18 1 1
BITMAP
0180
1F00
1200
1200
1200
1E00
0000
3E00
FF80
6780
03C0
3FC0
FFC0
E1C0
E1C0
E3C0
FFC0
7DC0
ENDCHAR
STARTCHAR 01FC
ENCODING 508
SWIDTH 1080 0
DWIDTH 21 0
BBX 20 18 0 0
BITMAP
000E00
001800
003000
000000
01FFF0
01FFF0
03FFF0
03B800
073800
0F3800
0E3FE0
1E3FE0
1C3800
3FF800
3FF800
703FF0
703FF0
E03FF0
ENDCHAR
STARTCHAR 01FD
ENCODING 509
SWIDTH 977 0
DWIDTH 19 0
BBX 18 15 1 0
BITMAP
007000
00C000
018000
000000
3E3E00
FFFF00
67E780
03C180
3FFFC0
FFFFC0
E1C000
E3C000
E3F700
FFFF80
3E3E00
ENDCHAR
STARTCHAR 01FE
ENCODING 510
SWIDTH 822 0
DWIDTH 16 0
BBX 15 19 1 -1
BITMAP
00E0
01C0
0300
000C
0FD8
3FF0
7FF8
787C
F0DC
E19C
E19E
E31E
E61C
FC1C
7C3C
7FF8
3FF0
3FC0
6000
ENDCHAR
STARTCHAR 01FF
ENCODING 511
SWIDTH 668 0
DWIDTH 13 0
BBX 11 16 1 -1
BITMAP
0380
0700
0C00
00C0
1F80
7F80
FFC0
E3E0
E6E0
E4E0
E8E0
F9E0
FBC0
7F80
7F00
4000
ENDCHAR
STARTCHAR 0200
ENCODING 512
SWIDTH 771 0
DWIDTH 15 0
BBX 15 18 0 0
BITMAP
1980
1DC0
0CC0
0000
0380
07C0
07C0
0EE0
0EE0
1EE0
1C70
1C70
3838
3FF8
7FFC
701C
F01C
E00E
ENDCHAR
STARTCHAR 0201
ENCODING 513
SWIDTH 617 0
DWIDTH 12 0
BBX 10 15 1 0
BITMAP
EE00
6600
3300
0000
3E00
FF80
6780
03C0
3FC0
FFC0
E1C0
E1C0
E3C0
FFC0
7DC0
ENDCHAR
STARTCHAR 0202
ENCODING 514
SWIDTH 771 0
DWIDTH 15 0
BBX 15 18 0 0
BITMAP
07C0
0FE0
0C60
0000
0380
07C0
07C0
0EE0
0EE0
1EE0
1C70
1C70
3838
3FF8
7FFC
701C
F01C
E00E
ENDCHAR
STARTCHAR 0203
ENCODING 515
SWIDTH 617 0
DWIDTH 12 0
BBX 10 15 1 0
BITMAP
1E00
3F00
6100
0000
3E00
FF80
6780
03C0
3FC0
FFC0
E1C0
E1C0
E3C0
FFC0
7DC0
ENDCHAR
STARTCHAR 0204
ENCODING 516
SWIDTH 668 0
DWIDTH 13 0
BBX 10 18 2 0
BITMAP
EE00
6600
7700
0000
FFC0
FFC0
FFC0
E000
E000
E000
FF80
FF80
E000
E000
E000
FFC0
FFC0
FFC0
ENDCHAR
STARTCHAR 0205
ENCODING 517
SWIDTH 617 0
DWIDTH 12 0
BBX 11 15 1 0
BITMAP
EE00
7700
3300
0000
1F00
7F80
F3C0
E0C0
FFE0
FFE0
E000
E000
FB80
7FC0
1F00
ENDCHAR
STARTCHAR 0206
ENCODING 518
SWIDTH 668 0
DWIDTH 13 0
BBX 10 18 2 0
BITMAP
1E00
3F00
6300
0000
FFC0
FFC0
FFC0
E000
E000
E000
FF80
FF80
E000
E000
E000
FFC0
FFC0
FFC0
ENDCHAR
STARTCHAR 0207
ENCODING 519
SWIDTH 617 0
DWIDTH 12 0
BBX 11 15 1 0
BITMAP
1E00
3F00
3180
0000
1F00
7F80
F3C0
E0C0
FFE0
FFE0
E000
E000
FB80
7FC0
1F00
ENDCHAR
STARTCHAR 0208
ENCODING 520
SWIDTH 308 0
DWIDTH 6 0
BBX 8 18 -2 0
BITMAP
EE
77
33
00
0E
0E
0E
0E
0E
0E
0E
0E
0E
0E
0E
0E
0E
0E
ENDCHAR
STARTCHAR 0209
ENCODING 521
SWIDTH 308 0
DWIDTH 6 0
BBX 8 15 -2 0
BITMAP
EE
66
33
00
1C
1C
1C
1C
1C
1C
1C
1C
1C
1C
1C
ENDCHAR
STARTCHAR 020A
ENCODING 522
SWIDTH 308 0
DWIDTH 6 0
BBX 7 18 0 0
BITMAP
78
FC
C6
00
38
38
38
38
38
38
38
38
38
38
38
38
38
38
ENDCHAR
STARTCHAR 020B
ENCODING 523
SWIDTH 308 0
DWIDTH 6 0
BBX 6 15 0 0
BITMAP
78
FC
CC
00
70
70
70
70
70
70
70
70
70
70
70
ENDCHAR
STARTCHAR 020C
ENCODING 524
SWIDTH 822 0
DWIDTH 16 0
BBX 15 18 1 0
BITMAP
3B80
1DC0
0CC0
0000
0FC0
3FF0
7FF8
783C
F01C
E01C
E01E
E01E
E01C
F01C
783C
7FF8
3FF0
0FC0
ENDCHAR
STARTCHAR 020D
ENCODING 525
SWIDTH 668 0
DWIDTH 13 0
BBX 11 15 1 0
BITMAP
6600
7700
3300
0000
1F00
7F80
FFC0
E1E0
E0E0
E0E0
E0E0
E1E0
FBC0
7F80
1F00
ENDCHAR
STARTCHAR 020E
ENCODING 526
SWIDTH 822 0
DWIDTH 16 0
BBX 15 18 1 0
BITMAP
0780
0FC0
0C60
0000
0FC0
3FF0
7FF8
783C
F01C
E01C
E01E
E01E
E01C
F01C
783C
7FF8
3FF0
0FC0
ENDCHAR
STARTCHAR 020F
ENCODING 527
SWIDTH 668 0
DWIDTH 13 0
BBX 11 15 1 0
BITMAP
1E00
3F00
3180
0000
1F00
7F80
FFC0
E1E0
E0E0
E0E0
E0E0
E1E0
FBC0
7F80
1F00
ENDCHAR
STARTCHAR 0210
ENCODING 528
SWIDTH 720 0
DWIDTH 14 0
BBX 11 18 2 0
BITMAP
6E00
7700
3300
0000
FF00
FFC0
FFE0
E0E0
E0E0
E0E0
E0E0
E7E0
FFC0
FF80
E380
E1C0
E1E0
E0E0
ENDCHAR
STARTCHAR 0211
ENCODING 529
SWIDTH 411 0
DWIDTH 8 0
BBX 8 15 0 0
BITMAP
EE
66
77
00
77
7F
7F
78
78
70
70
70
70
70
70
ENDCHAR
STARTCHAR 0212
ENCODING 530
SWIDTH 720 0
DWIDTH 14 0
BBX 11 18 2 0
BITMAP
1E00
3F00
3180
0000
FF00
FFC0
FFE0
E0E0
E0E0
E0E0
E0E0
E7E0
FFC0
FF80
E380
E1C0
E1E0
E0E0
ENDCHAR
STARTCHAR 0213
ENCODING 531
SWIDTH 411 0
DWIDTH 8 0
BBX 7 15 1 0
BITMAP
3C
FE
C6
00
EE
FE
FE
F0
F0
E0
E0
E0
E0
E0
E0
ENDCHAR
STARTCHAR 0214
ENCODING 532
SWIDTH 771 0
DWIDTH 15 0
BBX 13 18 1 0
BITMAP
3B80
1980
1DC0
0000
F038
F038
F038
F038
F038
F038
F038
F038
7038
7078
7070
7FF0
3FE0
0F80
ENDCHAR
STARTCHAR 0215
ENCODING 533
SWIDTH 668 0
DWIDTH 13 0
BBX 11 15 1 0
BITMAP
7700
3300
3B80
0000
E0E0
E0E0
E0E0
E0E0
E0E0
E0E0
E0E0
F1E0
7FE0
7FE0
3EE0
ENDCHAR
STARTCHAR 0216
ENCODING 534
SWIDTH 771 0
DWIDTH 15 0
BBX 13 18 1 0
BITMAP
0780
0FC0
18C0
0000
F038
F038
F038
F038
F038
F038
F038
F038
7038
7078
7070
7FF0
3FE0
0F80
ENDCHAR
STARTCHAR 0217
ENCODING 535
SWIDTH 668 0
DWIDTH 13 0
BBX 11 15 1 0
BITMAP
0F00
3F80
3180
0000
E0E0
E0E0
E0E0
E0E0
E0E0
E0E0
E0E0
F1E0
7FE0
7FE0
3EE0
ENDCHAR
STARTCHAR 0218
ENCODING 536
SWIDTH 617 0
DWIDTH 12 0
BBX 11 19 1 -5
BITMAP
1F80
7FC0
FFC0
E000
E000
F000
7F00
3FC0
07E0
00E0
80E0
FFC0
FFC0
3F00
0000
0C00
0E00
0400
0C00
ENDCHAR
STARTCHAR 0219
ENCODING 537
SWIDTH 514 0
DWIDTH 10 0
BBX 9 16 1 -5
BITMAP
3F00
FF00
E300
E000
F000
FF00
3F80
0380
C780
FF00
7E00
0000
1800
1800
1800
1800
ENDCHAR
STARTCHAR 021A
ENCODING 538
SWIDTH 617 0
DWIDTH 12 0
BBX 12 19 0 -5
BITMAP
FFF0
FFF0
FFF0
0F00
0F00
0F00
0F00
0F00
0F00
0F00
0F00
0F00
0F00
0F00
0000
0600
0600
0600
0600
ENDCHAR
STARTCHAR 021B
ENCODING 539
SWIDTH 411 0
DWIDTH 8 0
BBX 8 18 0 -5
BITMAP
38
38
38
FE
FE
38
38
38
38
38
3C
3F
1F
00
0C
0C
0C
0C
ENDCHAR
STARTCHAR 021E
ENCODING 542
SWIDTH 822 0
DWIDTH 16 0
BBX 12 18 2 0
BITMAP
3980
1F00
0E00
0000
E070
E070
E070
E070
E070
FFF0
FFF0
FFF0
E070
E070
E070
E070
E070
E070
ENDCHAR
STARTCHAR 021F
ENCODING 543
SWIDTH 668 0
DWIDTH 13 0
BBX 13 19 -1 0
BITMAP
E600
7C00
3C00
0000
3800
3800
3800
3800
3BE0
3FF0
3FF8
3C38
3C38
3838
3838
3838
3838
3838
3838
ENDCHAR
STARTCHAR 022A
ENCODING 554
SWIDTH 822 0
DWIDTH 16 0
BBX 15 20 1 0
BITMAP
0FE0
0FE0
0440
0EC0
0CC0
0000
0FC0
3FF0
7FF8
783C
F01C
E01C
E01E
E01E
E01C
F01C
783C
7FF8
3FF0
0FC0
ENDCHAR
STARTCHAR 022B
ENCODING 555
SWIDTH 668 0
DWIDTH 13 0
BBX 11 18 1 0
BITMAP
3F80
3F80
0000
3300
3B80
1100
0000
1F00
7F80
FFC0
E1E0
E0E0
E0E0
E0E0
E1E0
FBC0
7F80
1F00
ENDCHAR
STARTCHAR 022C
ENCODING 556
SWIDTH 822 0
DWIDTH 16 0
BBX 15 20 1 0
BITMAP
0FE0
0FE0
0400
0FE0
09C0
0000
0FC0
3FF0
7FF8
783C
F01C
E01C
E01E
E01E
E01C
F01C
783C
7FF8
3FF0
0FC0
ENDCHAR
STARTCHAR 022D
ENCODING 557
SWIDTH 668 0
DWIDTH 13 0
BBX 11 17 1 0
BITMAP
3F80
3F80
0000
3F80
2700
0000
1F00
7F80
FFC0
E1E0
E0E0
E0E0
E0E0
E1E0
FBC0
7F80
1F00
ENDCHAR
STARTCHAR 0230
ENCODING 560
SWIDTH 822 0
DWIDTH 16 0
BBX 15 20 1 0
BITMAP
0FE0
0FE0
0100
0380
0300
0000
0FC0
3FF0
7FF8
783C
F01C
E01C
E01E
E01E
E01C
F01C
783C
7FF8
3FF0
0FC0
ENDCHAR
STARTCHAR 0231
ENCODING 561
SWIDTH 668 0
DWIDTH 13 0
BBX 11 18 1 0
BITMAP
3F80
3F80
0000
0C00
0E00
0400
0000
1F00
7F80
FFC0
E1E0
E0E0
E0E0
E0E0
E1E0
FBC0
7F80
1F00
ENDCHAR
STARTCHAR 0232
ENCODING 562
SWIDTH 668 0
DWIDTH 13 0
BBX 13 18 0 0
BITMAP
1FC0
1FC0
0000
0000
E038
7078
7870
38E0
3CE0
1DC0
0FC0
0F80
0700
0700
0700
0700
0700
0700
ENDCHAR
STARTCHAR 0233
ENCODING 563
SWIDTH 617 0
DWIDTH 12 0
BBX 12 19 0 -4
BITMAP
3F80
3F80
0000
0000
E070
F0E0
70E0
71C0
39C0
39C0
3F80
1F80
1F00
0F00
0F00
0E00
5E00
FC00
F800
ENDCHAR
STARTCHAR 0237
ENCODING 567
SWIDTH 308 0
DWIDTH 6 0
BBX 7 15 -2 -4
BITMAP
0E
0E
0E
0E
0E
0E
0E
0E
0E
0E
0E
1E
5C
7C
F8
ENDCHAR
STARTCHAR 0259
ENCODING 601
SWIDTH 617 0
DWIDTH 12 0
BBX 11 11 1 0
BITMAP
3E00
7F80
77C0
01C0
01E0
FFE0
FFE0
E1C0
F3C0
7F80
1F00
ENDCHAR
STARTCHAR 0292
ENCODING 658
SWIDTH 565 0
DWIDTH 11 0
BBX 10 15 0 -4
BITMAP
FFC0
FFC0
FF80
0700
0700
0E00
1F00
1F80
03C0
01C0
01C0
81C0
FFC0
FF80
3F00
ENDCHAR
STARTCHAR 02B9
ENCODING 697
SWIDTH 205 0
DWIDTH 4 0
BBX 3 6 1 8
BITMAP
E0
C0
C0
C0
C0
C0
ENDCHAR
STARTCHAR 02BA
ENCODING 698
SWIDTH 462 0
DWIDTH 9 0
BBX 7 6 1 8
BITMAP
EE
CC
CC
CC
CC
CC
ENDCHAR
STARTCHAR 02BB
ENCODING 699
SWIDTH 308 0
DWIDTH 6 0
BBX 4 7 1 11
BITMAP
60
60
60
E0
E0
F0
E0
ENDCHAR
STARTCHAR 02BC
ENCODING 700
SWIDTH 205 0
DWIDTH 4 0
BBX 2 5 1 9
BITMAP
C0
C0
C0
C0
80
ENDCHAR
STARTCHAR 02BE
ENCODING 702
SWIDTH 617 0
DWIDTH 12 0
BBX 2 4 6 12
BITMAP
C0
40
40
C0
ENDCHAR
STARTCHAR 02BF
ENCODING 703
SWIDTH 617 0
DWIDTH 12 0
BBX 3 4 3 12
BITMAP
60
C0
C0
60
ENDCHAR
STARTCHAR 02C6
ENCODING 710
SWIDTH 617 0
DWIDTH 12 0
BBX 7 3 2 12
BITMAP
3C
7E
C6
ENDCHAR
STARTCHAR 02C7
ENCODING 711
SWIDTH 617 0
DWIDTH 12 0
BBX 7 3 2 12
BITMAP
E6
7C
38
ENDCHAR
STARTCHAR 02C8
ENCODING 712
SWIDTH 205 0
DWIDTH 4 0
BBX 2 4 1 10
BITMAP
C0
C0
C0
C0
ENDCHAR
STARTCHAR 02C9
ENCODING 713
SWIDTH 617 0
DWIDTH 12 0
BBX 7 2 2 12
BITMAP
FE
FE
ENDCHAR
STARTCHAR 02CA
ENCODING 714
SWIDTH 617 0
DWIDTH 12 0
BBX 5 3 4 12
BITMAP
38
70
E0
ENDCHAR
STARTCHAR 02CB
ENCODING 715
SWIDTH 617 0
DWIDTH 12 0
BBX 5 3 2 12
BITMAP
E0
30
18
ENDCHAR
STARTCHAR 02CC
ENCODING 716
SWIDTH 205 0
DWIDTH 4 0
BBX 2 4 1 -4
BITMAP
C0
C0
C0
C0
ENDCHAR
STARTCHAR 02D8
ENCODING 728
SWIDTH 617 0
DWIDTH 12 0
BBX 7 3 2 12
BITMAP
C6
7E
3C
ENDCHAR
STARTCHAR 02D9
ENCODING 729
SWIDTH 617 0
DWIDTH 12 0
BBX 3 3 4 12
BITMAP
E0
E0
60
ENDCHAR
STARTCHAR 02DA
ENCODING 730
SWIDTH 617 0
DWIDTH 12 0
BBX 5 4 3 12
BITMAP
78
C8
C8
78
ENDCHAR
STARTCHAR 02DB
ENCODING 731
SWIDTH 617 0
DWIDTH 12 0
BBX 4 6 2 -5
BITMAP
20
E0
C0
C0
F0
20
ENDCHAR
STARTCHAR 02DC
ENCODING 732
SWIDTH 617 0
DWIDTH 12 0
BBX 8 3 2 12
BITMAP
73
FE
CC
ENDCHAR
STARTCHAR 02DD
ENCODING 733
SWIDTH 617 0
DWIDTH 12 0
BBX 8 3 3 12
BITMAP
77
EE
CC
ENDCHAR
STARTCHAR 0300
ENCODING 768
SWIDTH 0 0
DWIDTH 0 0
BBX 5 3 -9 12
BITMAP
E0
70
38
ENDCHAR
STARTCHAR 0301
ENCODING 769
SWIDTH 0 0
DWIDTH 0 0
BBX 5 3 -7 12
BITMAP
38
60
C0
ENDCHAR
STARTCHAR 0302
ENCODING 770
SWIDTH 0 0
DWIDTH 0 0
BBX 7 3 -9 12
BITMAP
78
FC
CE
ENDCHAR
STARTCHAR 0303
ENCODING 771
SWIDTH 0 0
DWIDTH 0 0
BBX 8 3 -10 12
BITMAP
73
7F
C6
ENDCHAR
STARTCHAR 0304
ENCODING 772
SWIDTH 0 0
DWIDTH 0 0
BBX 7 2 -9 12
BITMAP
FE
FE
ENDCHAR
STARTCHAR 0306
ENCODING 774
SWIDTH 0 0
DWIDTH 0 0
BBX 7 3 -9 12
BITMAP
C6
FC
78
ENDCHAR
STARTCHAR 0307
ENCODING 775
SWIDTH 0 0
DWIDTH 0 0
BBX 3 3 -7 12
BITMAP
E0
E0
C0
ENDCHAR
STARTCHAR 0308
ENCODING 776
SWIDTH 0 0
DWIDTH 0 0
BBX 6 3 -9 12
BITMAP
CC
EC
CC
ENDCHAR
STARTCHAR 0309
ENCODING 777
SWIDTH 0 0
DWIDTH 0 0
BBX 5 4 -8 11
BITMAP
F0
70
18
30
ENDCHAR
STARTCHAR 030A
ENCODING 778
SWIDTH 0 0
DWIDTH 0 0
BBX 5 4 -8 12
BITMAP
F0
98
98
F0
ENDCHAR
STARTCHAR 030B
ENCODING 779
SWIDTH 0 0
DWIDTH 0 0
BBX 8 3 -9 12
BITMAP
77
66
EC
ENDCHAR
STARTCHAR 030C
ENCODING 780
SWIDTH 0 0
DWIDTH 0 0
BBX 7 3 -9 12
BITMAP
CE
7C
38
ENDCHAR
STARTCHAR 030F
ENCODING 783
SWIDTH 0 0
DWIDTH 0 0
BBX 8 3 -11 12
BITMAP
EE
77
33
ENDCHAR
STARTCHAR 0311
ENCODING 785
SWIDTH 0 0
DWIDTH 0 0
BBX 7 3 -9 12
BITMAP
78
FC
C6
ENDCHAR
STARTCHAR 0312
ENCODING 786
SWIDTH 0 0
DWIDTH 0 0
BBX 3 4 -7 12
BITMAP
40
C0
E0
E0
ENDCHAR
STARTCHAR 031B
ENCODING 795
SWIDTH 0 0
DWIDTH 0 0
BBX 3 5 -6 9
BITMAP
60
60
60
E0
C0
ENDCHAR
STARTCHAR 0323
ENCODING 803
SWIDTH 0 0
DWIDTH 0 0
BBX 2 3 -7 -4
BITMAP
40
C0
C0
ENDCHAR
STARTCHAR 0324
ENCODING 804
SWIDTH 0 0
DWIDTH 0 0
BBX 6 3 -9 -4
BITMAP
40
EC
CC
ENDCHAR
STARTCHAR 0326
ENCODING 806
SWIDTH 0 0
DWIDTH 0 0
BBX 2 4 -7 -5
BITMAP
C0
C0
40
C0
ENDCHAR
STARTCHAR 0327
ENCODING 807
SWIDTH 0 0
DWIDTH 0 0
BBX 4 4 -8 -4
BITMAP
60
70
30
F0
ENDCHAR
STARTCHAR 0328
ENCODING 808
SWIDTH 0 0
DWIDTH 0 0
BBX 4 6 -10 -5
BITMAP
20
70
C0
C0
F0
20
ENDCHAR
STARTCHAR 032E
ENCODING 814
SWIDTH 0 0
DWIDTH 0 0
BBX 7 3 -9 -4
BITMAP
86
EC
78
ENDCHAR
STARTCHAR 0331
ENCODING 817
SWIDTH 0 0
DWIDTH 0 0
BBX 7 2 -9 -4
BITMAP
FE
FE
ENDCHAR
STARTCHAR 0335
ENCODING 821
SWIDTH 0 0
DWIDTH 0 0
BBX 8 2 -10 7
BITMAP
FF
FF
ENDCHAR
STARTCHAR 0336
ENCODING 822
SWIDTH 0 0
DWIDTH 0 0
BBX 16 2 -17 7
BITMAP
FFFF
FFFF
ENDCHAR
STARTCHAR 0337
ENCODING 823
SWIDTH 0 0
DWIDTH 0 0
BBX 7 6 -8 5
BITMAP
04
0E
38
70
E0
80
ENDCHAR
STARTCHAR 0338
ENCODING 824
SWIDTH 0 0
DWIDTH 0 0
BBX 10 13 -11 -1
BITMAP
00C0
0180
0100
0300
0600
0400
0C00
1800
1000
3000
2000
4000
C000
ENDCHAR
STARTCHAR 0394
ENCODING 916
SWIDTH 771 0
DWIDTH 15 0
BBX 15 14 0 0
BITMAP
0380
07C0
07C0
0EE0
0EE0
1CE0
1C70
1C70
3838
3838
703C
7FFC
FFFC
FFFE
ENDCHAR
STARTCHAR 03A9
ENCODING 937
SWIDTH 874 0
DWIDTH 17 0
BBX 17 14 0 0
BITMAP
03F000
0FF800
1FFE00
3C1E00
380F00
780700
700700
700700
780700
380E00
3C1E00
FE3F80
FE3F80
FE3F80
ENDCHAR
STARTCHAR 03BC
ENCODING 956
SWIDTH 668 0
DWIDTH 13 0
BBX 11 15 1 -4
BITMAP
E0E0
E0E0
E0E0
E0E0
E0E0
E0E0
E0E0
F1E0
FFE0
FFE0
EEE0
E000
E000
E000
E000
ENDCHAR
STARTCHAR 03C0
ENCODING 960
SWIDTH 720 0
DWIDTH 14 0
BBX 14 11 0 0
BITMAP
7FFC
FFFC
EE60
CE60
CE60
8E60
0C60
0C60
0C60
1C60
1C60
ENDCHAR
STARTCHAR 0400
ENCODING 1024
SWIDTH 668 0
DWIDTH 13 0
BBX 10 18 2 0
BITMAP
7000
1800
0C00
0000
FFC0
FFC0
FFC0
E000
E000
E000
FF80
FF80
E000
E000
E000
FFC0
FFC0
FFC0
ENDCHAR
STARTCHAR 0401
ENCODING 1025
SWIDTH 668 0
DWIDTH 13 0
BBX 10 18 2 0
BITMAP
3300
3700
3300
0000
FFC0
FFC0
FFC0
E000
E000
E000
FF80
FF80
E000
E000
E000
FFC0
FFC0
FFC0
ENDCHAR
STARTCHAR 0402
ENCODING 1026
SWIDTH 874 0
DWIDTH 17 0
BBX 16 14 0 0
BITMAP
FFF8
FFF8
FFF8
0700
0700
0710
07FE
07FE
070F
0707
0707
073F
073E
073C
ENDCHAR
STARTCHAR 0403
ENCODING 1027
SWIDTH 617 0
DWIDTH 12 0
BBX 9 18 2 0
BITMAP
0700
0E00
1800
0000
FF80
FF80
FF80
E000
E000
E000
E000
E000
E000
E000
E000
E000
E000
E000
ENDCHAR
STARTCHAR 0404
ENCODING 1028
SWIDTH 720 0
DWIDTH 14 0
BBX 12 14 1 0
BITMAP
0FC0
3FE0
7FF0
7830
F000
E000
FF80
FF80
E000
F000
7020
7FF0
3FF0
0FC0
ENDCHAR
STARTCHAR 0405
ENCODING 1029
SWIDTH 668 0
DWIDTH 13 0
BBX 11 14 1 0
BITMAP
1F80
7FC0
FFC0
E040
E000
F000
7F00
3FC0
07E0
00E0
00E0
FFE0
FFC0
3F00
ENDCHAR
STARTCHAR 0406
ENCODING 1030
SWIDTH 360 0
DWIDTH 7 0
BBX 3 14 2 0
BITMAP
E0
E0
E0
E0
E0
E0
E0
E0
E0
E0
E0
E0
E0
E0
ENDCHAR
STARTCHAR 0407
ENCODING 1031
SWIDTH 308 0
DWIDTH 6 0
BBX 6 18 0 0
BITMAP
CC
EC
CC
00
38
38
38
38
38
38
38
38
38
38
38
38
38
38
ENDCHAR
STARTCHAR 0408
ENCODING 1032
SWIDTH 565 0
DWIDTH 11 0
BBX 9 14 1 0
BITMAP
7F80
7F80
7F80
0780
0780
0780
0780
0780
0780
0780
8700
FF00
FF00
7C00
ENDCHAR
STARTCHAR 0409
ENCODING 1033
SWIDTH 1182 0
DWIDTH 23 0
BBX 22 14 0 0
BITMAP
1FFC00
1FFC00
1FFC00
1C1C00
1C1C00
1C1FF8
1C1FFC
1C1C1C
1C1C1C
1C1C1C
381C1C
F81C3C
F81FF8
F01FF0
ENDCHAR
STARTCHAR 040A
ENCODING 1034
SWIDTH 1182 0
DWIDTH 23 0
BBX 20 14 2 0
BITMAP
E07000
E07000
E07000
E07000
E07000
FFFFC0
FFFFE0
FFF0F0
E07070
E07070
E07070
E070F0
E07FE0
E07FC0
ENDCHAR
STARTCHAR 040B
ENCODING 1035
SWIDTH 874 0
DWIDTH 17 0
BBX 16 14 0 0
BITMAP
FFF8
FFF8
FFF8
0700
0700
0778
07FE
07FE
070F
0707
0707
0707
0707
0707
ENDCHAR
STARTCHAR 040C
ENCODING 1036
SWIDTH 720 0
DWIDTH 14 0
BBX 12 18 2 0
BITMAP
0380
0700
0C00
0000
E0F0
E0E0
E1C0
E1C0
E380
E700
FF00
FF00
FF00
E380
E3C0
E1C0
E1E0
E0F0
ENDCHAR
STARTCHAR 040D
ENCODING 1037
SWIDTH 822 0
DWIDTH 16 0
BBX 12 18 2 0
BITMAP
3C00
0E00
0600
0000
E070
E0F0
E0F0
E1F0
E3F0
E7F0
E770
EE70
FE70
FC70
F870
F070
F070
E070
ENDCHAR
STARTCHAR 040E
ENCODING 1038
SWIDTH 720 0
DWIDTH 14 0
BBX 14 18 0 0
BITMAP
1860
0FC0
0780
0000
F01C
7038
3838
3870
1C70
1CE0
0EC0
0FC0
0780
0780
0700
3F00
3E00
7C00
ENDCHAR
STARTCHAR 040F
ENCODING 1039
SWIDTH 822 0
DWIDTH 16 0
BBX 12 17 2 -3
BITMAP
E070
E070
E070
E070
E070
E070
E070
E070
E070
E070
E070
FFF0
FFF0
FFF0
0E00
0E00
0E00
ENDCHAR
STARTCHAR 0410
ENCODING 1040
SWIDTH 822 0
DWIDTH 16 0
BBX 15 14 0 0
BITMAP
03C0
03C0
07C0
07E0
0EE0
0E70
1C70
1C78
1C38
3FF8
3FFC
701C
701E
F00E
ENDCHAR
STARTCHAR 0411
ENCODING 1041
SWIDTH 720 0
DWIDTH 14 0
BBX 12 14 2 0
BITMAP
FFE0
FFE0
FFE0
E000
E000
E000
FFC0
FFE0
E0E0
E0F0
E0F0
E1E0
FFE0
FF80
ENDCHAR
STARTCHAR 0412
ENCODING 1042
SWIDTH 720 0
DWIDTH 14 0
BBX 12 14 2 0
BITMAP
FF80
FFC0
E1E0
E0E0
E0E0
E1C0
FF80
FFE0
E0E0
E0F0
E0F0
E1E0
FFE0
FF80
ENDCHAR
STARTCHAR 0413
ENCODING 1043
SWIDTH 617 0
DWIDTH 12 0
BBX 9 14 2 0
BITMAP
FF80
FF80
FF80
E000
E000
E000
E000
E000
E000
E000
E000
E000
E000
E000
ENDCHAR
STARTCHAR 0414
ENCODING 1044
SWIDTH 822 0
DWIDTH 16 0
BBX 16 17 0 -3
BITMAP
1FFC
1FFC
1FFC
1C1C
1C1C
1C1C
1C1C
1C1C
1C1C
181C
381C
FFFF
FFFF
FFFF
E007
E007
E007
ENDCHAR
STARTCHAR 0415
ENCODING 1045
SWIDTH 668 0
DWIDTH 13 0
BBX 10 14 2 0
BITMAP
FFC0
FFC0
FFC0
E000
E000
E000
FF80
FF80
E000
E000
E000
FFC0
FFC0
FFC0
ENDCHAR
STARTCHAR 0416
ENCODING 1046
SWIDTH 1080 0
DWIDTH 21 0
BBX 19 14 1 0
BITMAP
E0E0E0
F0E1E0
70E1C0
78E3C0
38E380
1CE700
1FFF00
1FFF00
3FFF80
38E380
78E3C0
70E1C0
F0E1E0
E0E0E0
ENDCHAR
STARTCHAR 0417
ENCODING 1047
SWIDTH 668 0
DWIDTH 13 0
BBX 12 14 0 0
BITMAP
3F80
7FC0
7FE0
00E0
00E0
01E0
1FC0
1FE0
00F0
0070
40F0
7FF0
FFE0
1F80
ENDCHAR
STARTCHAR 0418
ENCODING 1048
SWIDTH 822 0
DWIDTH 16 0
BBX 12 14 2 0
BITMAP
E070
E0F0
E0F0
E1F0
E3F0
E7F0
E770
EE70
FE70
FC70
F870
F070
F070
E070
ENDCHAR
STARTCHAR 0419
ENCODING 1049
SWIDTH 822 0
DWIDTH 16 0
BBX 12 18 2 0
BITMAP
30C0
1F80
0F00
0000
E070
E0F0
E0F0
E1F0
E3F0
E7F0
E770
EE70
FE70
FC70
F870
F070
F070
E070
ENDCHAR
STARTCHAR 041A
ENCODING 1050
SWIDTH 720 0
DWIDTH 14 0
BBX 12 14 2 0
BITMAP
E0F0
E0E0
E1C0
E1C0
E380
E700
FF00
FF00
FF00
E380
E3C0
E1C0
E1E0
E0F0
ENDCHAR
STARTCHAR 041B
ENCODING 1051
SWIDTH 822 0
DWIDTH 16 0
BBX 14 14 0 0
BITMAP
1FFC
1FFC
1FFC
1C1C
1C1C
1C1C
1C1C
1C1C
1C1C
1C1C
381C
F81C
F81C
F01C
ENDCHAR
STARTCHAR 041C
ENCODING 1052
SWIDTH 977 0
DWIDTH 19 0
BBX 15 14 2 0
BITMAP
E00E
E00E
F01E
F03E
F83E
FC7E
FC7E
EEEE
EFCE
E7CE
E78E
E38E
E10E
E00E
ENDCHAR
STARTCHAR 041D
ENCODING 1053
SWIDTH 822 0
DWIDTH 16 0
BBX 12 14 2 0
BITMAP
E070
E070
E070
E070
E070
FFF0
FFF0
FFF0
E070
E070
E070
E070
E070
E070
ENDCHAR
STARTCHAR 041E
ENCODING 1054
SWIDTH 822 0
DWIDTH 16 0
BBX 15 14 1 0
BITMAP
0FC0
3FF0
7FF8
783C
F01C
E01C
E01E
E01E
E01C
F01C
783C
7FF8
3FF0
0FC0
ENDCHAR
STARTCHAR 041F
ENCODING 1055
SWIDTH 822 0
DWIDTH 16 0
BBX 12 14 2 0
BITMAP
FFF0
FFF0
FFF0
E070
E070
E070
E070
E070
E070
E070
E070
E070
E070
E070
ENDCHAR
STARTCHAR 0420
ENCODING 1056
SWIDTH 720 0
DWIDTH 14 0
BBX 11 14 2 0
BITMAP
FF00
FFC0
FFE0
E0E0
E0E0
E0E0
E0E0
FFE0
FFC0
FF00
E000
E000
E000
E000
ENDCHAR
STARTCHAR 0421
ENCODING 1057
SWIDTH 720 0
DWIDTH 14 0
BBX 13 14 1 0
BITMAP
0FC0
3FF0
7FF0
7830
F000
E000
E000
E000
E000
F000
7830
7FF8
3FF0
0FC0
ENDCHAR
STARTCHAR 0422
ENCODING 1058
SWIDTH 617 0
DWIDTH 12 0
BBX 12 14 0 0
BITMAP
FFF0
FFF0
FFF0
0700
0700
0700
0700
0700
0700
0700
0700
0700
0700
0700
ENDCHAR
STARTCHAR 0423
ENCODING 1059
SWIDTH 720 0
DWIDTH 14 0
BBX 14 14 0 0
BITMAP
F01C
7038
3838
3870
1C70
1CE0
0EC0
0FC0
0780
0780
0700
3F00
3E00
7C00
ENDCHAR
STARTCHAR 0424
ENCODING 1060
SWIDTH 925 0
DWIDTH 18 0
BBX 17 14 1 0
BITMAP
01C000
03E000
3FFC00
7FFE00
F1CF00
E1C780
E1C380
E1C380
E1C380
F1C700
7FFF00
3FFE00
0FF800
01C000
ENDCHAR
STARTCHAR 0425
ENCODING 1061
SWIDTH 720 0
DWIDTH 14 0
BBX 12 14 1 0
BITMAP
E0F0
F0E0
79E0
3BC0
3F80
1F80
0F00
0F00
1F80
3FC0
39C0
79E0
F0F0
E070
ENDCHAR
STARTCHAR 0426
ENCODING 1062
SWIDTH 822 0
DWIDTH 16 0
BBX 14 17 2 -3
BITMAP
E070
E070
E070
E070
E070
E070
E070
E070
E070
E070
E070
FFFC
FFFC
FFFC
001C
001C
001C
ENDCHAR
STARTCHAR 0427
ENCODING 1063
SWIDTH 771 0
DWIDTH 15 0
BBX 12 14 1 0
BITMAP
E070
E070
E070
E070
E070
E070
F0F0
7FF0
3FF0
0E70
0070
0070
0070
0070
ENDCHAR
STARTCHAR 0428
ENCODING 1064
SWIDTH 1080 0
DWIDTH 21 0
BBX 18 14 2 0
BITMAP
E1C1C0
E1C1C0
E1C1C0
E1C1C0
E1C1C0
E1C1C0
E1C1C0
E1C1C0
E1C1C0
E1C1C0
E1C1C0
FFFFC0
FFFFC0
FFFFC0
ENDCHAR
STARTCHAR 0429
ENCODING 1065
SWIDTH 1131 0
DWIDTH 22 0
BBX 20 17 2 -3
BITMAP
E1C1C0
E1C1C0
E1C1C0
E1C1C0
E1C1C0
E1C1C0
E1C1C0
E1C1C0
E1C1C0
E1C1C0
E1C1C0
FFFFF0
FFFFF0
FFFFF0
000070
000070
000070
ENDCHAR
STARTCHAR 042A
ENCODING 1066
SWIDTH 822 0
DWIDTH 16 0
BBX 16 14 0 0
BITMAP
FE00
FE00
FE00
0E00
0E00
0FFC
0FFE
0E0F
0E07
0E07
0E0F
0E1E
0FFE
0FF8
ENDCHAR
STARTCHAR 042B
ENCODING 1067
SWIDTH 1028 0
DWIDTH 20 0
BBX 16 14 2 0
BITMAP
E007
E007
E007
E007
E007
FFC7
FFE7
E0E7
E0E7
E0E7
E0E7
E1E7
FFC7
FF87
ENDCHAR
STARTCHAR 042C
ENCODING 1068
SWIDTH 720 0
DWIDTH 14 0
BBX 11 14 2 0
BITMAP
E000
E000
E000
E000
E000
FFC0
FFE0
E0E0
E0E0
E0E0
E0E0
E1E0
FFC0
FF80
ENDCHAR
STARTCHAR 042D
ENCODING 1069
SWIDTH 720 0
DWIDTH 14 0
BBX 13 14 0 0
BITMAP
1F80
7FE0
FFF0
20F0
0078
0038
0FF8
0FF8
0038
0078
60F0
FFF0
7FE0
1F80
ENDCHAR
STARTCHAR 042E
ENCODING 1070
SWIDTH 1131 0
DWIDTH 22 0
BBX 19 14 2 0
BITMAP
E07E00
E1FF00
E3FF80
E783C0
E701E0
FF00E0
FF00E0
FF00E0
E701E0
E701C0
E783C0
E3FF80
E1FF00
E07C00
ENDCHAR
STARTCHAR 042F
ENCODING 1071
SWIDTH 720 0
DWIDTH 14 0
BBX 12 14 1 0
BITMAP
1FF0
7FF0
FFF0
E0F0
E0F0
E0F0
E0F0
F8F0
7FF0
1FF0
38F0
78F0
70F0
E0F0
ENDCHAR
STARTCHAR 0430
ENCODING 1072
SWIDTH 617 0
DWIDTH 12 0
BBX 10 11 1 0
BITMAP
3E00
FF80
6780
0380
3FC0
FFC0
E1C0
E3C0
E3C0
FFC0
7DC0
ENDCHAR
STARTCHAR 0431
ENCODING 1073
SWIDTH 668 0
DWIDTH 13 0
BBX 11 15 1 0
BITMAP
03E0
1FE0
3F80
7800
F000
EF80
FFC0
F9E0
F0E0
E0E0
E0E0
F0E0
79E0
3FC0
1F00
ENDCHAR
STARTCHAR 0432
ENCODING 1074
SWIDTH 617 0
DWIDTH 12 0
BBX 10 11 1 0
BITMAP
FF00
FFC0
E1C0
E1C0
FF80
FF80
E1C0
E1C0
E1C0
FFC0
FF80
ENDCHAR
STARTCHAR 0433
ENCODING 1075
SWIDTH 514 0
DWIDTH 10 0
BBX 9 11 1 0
BITMAP
FF80
FF80
FF80
E000
E000
E000
E000
E000
E000
E000
E000
ENDCHAR
STARTCHAR 0434
ENCODING 1076
SWIDTH 720 0
DWIDTH 14 0
BBX 13 13 0 -2
BITMAP
1FF0
1FF0
3870
3870
3870
3870
3870
3870
7070
FFF8
FFF8
E038
E038
ENDCHAR
STARTCHAR 0435
ENCODING 1077
SWIDTH 668 0
DWIDTH 13 0
BBX 11 11 1 0
BITMAP
1F00
7F80
F3C0
E1C0
FFE0
FFE0
E000
E000
FB80
7FC0
1F00
ENDCHAR
STARTCHAR 0436
ENCODING 1078
SWIDTH 925 0
DWIDTH 18 0
BBX 17 11 0 0
BITMAP
71C380
71C780
39C700
39CE00
1DCE00
1FFC00
1FFE00
3DCE00
39C700
79C780
F1C380
ENDCHAR
STARTCHAR 0437
ENCODING 1079
SWIDTH 565 0
DWIDTH 11 0
BBX 9 11 1 0
BITMAP
7E00
FF00
C780
0380
3F00
3F00
0380
0380
C780
FF00
7E00
ENDCHAR
STARTCHAR 0438
ENCODING 1080
SWIDTH 720 0
DWIDTH 14 0
BBX 11 11 1 0
BITMAP
E0E0
E1E0
E1E0
E3E0
E7E0
EFE0
EEE0
FCE0
F8E0
F0E0
F0E0
ENDCHAR
STARTCHAR 0439
ENCODING 1081
SWIDTH 720 0
DWIDTH 14 0
BBX 11 15 1 0
BITMAP
3180
1F80
1F00
0000
E0E0
E1E0
E1E0
E3E0
E7E0
EFE0
EEE0
FCE0
F8E0
F0E0
F0E0
ENDCHAR
STARTCHAR 043A
ENCODING 1082
SWIDTH 617 0
DWIDTH 12 0
BBX 11 11 1 0
BITMAP
E0E0
E1C0
E3C0
E380
E700
FF00
FF00
E780
E3C0
E1C0
E0E0
ENDCHAR
STARTCHAR 043B
ENCODING 1083
SWIDTH 668 0
DWIDTH 13 0
BBX 11 11 0 0
BITMAP
1FE0
3FE0
38E0
38E0
38E0
38E0
38E0
38E0
F8E0
F0E0
E0E0
ENDCHAR
STARTCHAR 043C
ENCODING 1084
SWIDTH 822 0
DWIDTH 16 0
BBX 13 11 1 0
BITMAP
F038
F038
F878
F878
FCF8
EFD8
EF98
E798
E718
E318
E018
ENDCHAR
STARTCHAR 043D
ENCODING 1085
SWIDTH 668 0
DWIDTH 13 0
BBX 11 11 1 0
BITMAP
E0E0
E0E0
E0E0
E0E0
E0E0
FFE0
FFE0
E0E0
E0E0
E0E0
E0E0
ENDCHAR
STARTCHAR 043E
ENCODING 1086
SWIDTH 668 0
DWIDTH 13 0
BBX 11 11 1 0
BITMAP
1F00
7F80
FFC0
E1E0
E0E0
E0E0
E0E0
E1E0
FBC0
7F80
1F00
ENDCHAR
STARTCHAR 043F
ENCODING 1087
SWIDTH 668 0
DWIDTH 13 0
BBX 11 11 1 0
BITMAP
FFE0
FFE0
E0E0
E0E0
E0E0
E0E0
E0E0
E0E0
E0E0
E0E0
E0E0
ENDCHAR
STARTCHAR 0440
ENCODING 1088
SWIDTH 668 0
DWIDTH 13 0
BBX 12 15 1 -4
BITMAP
EF80
FFC0
FFE0
F0F0
F070
E070
F070
F0F0
FFE0
FFC0
EF80
E000
E000
E000
E000
ENDCHAR
STARTCHAR 0441
ENCODING 1089
SWIDTH 617 0
DWIDTH 12 0
BBX 10 11 1 0
BITMAP
1F00
7F80
FFC0
E180
E000
E000
E000
E180
FBC0
7F80
1F00
ENDCHAR
STARTCHAR 0442
ENCODING 1090
SWIDTH 514 0
DWIDTH 10 0
BBX 10 11 0 0
BITMAP
FFC0
FFC0
0FC0
0E00
0E00
0E00
0E00
0E00
0E00
0E00
0E00
ENDCHAR
STARTCHAR 0443
ENCODING 1091
SWIDTH 617 0
DWIDTH 12 0
BBX 12 15 0 -4
BITMAP
E070
70E0
70E0
78E0
39C0
39C0
1F80
1F80
1F00
0F00
0F00
0E00
5E00
FC00
7800
ENDCHAR
STARTCHAR 0444
ENCODING 1092
SWIDTH 874 0
DWIDTH 17 0
BBX 15 19 1 -4
BITMAP
0380
0380
0380
0380
1FE0
7FF8
FBBC
E39E
E38E
E38E
E38E
E39E
FBFC
7FF8
1FE0
0380
0380
0380
0380
ENDCHAR
STARTCHAR 0445
ENCODING 1093
SWIDTH 617 0
DWIDTH 12 0
BBX 11 11 0 0
BITMAP
70E0
79C0
3BC0
1F80
1F00
0F00
1F00
1F80
3BC0
71C0
F0E0
ENDCHAR
STARTCHAR 0446
ENCODING 1094
SWIDTH 720 0
DWIDTH 14 0
BBX 12 13 1 -2
BITMAP
E0E0
E0E0
E0E0
E0E0
E0E0
E0E0
E0E0
E0E0
E0E0
FFF0
FFF0
0070
0070
ENDCHAR
STARTCHAR 0447
ENCODING 1095
SWIDTH 617 0
DWIDTH 12 0
BBX 10 11 1 0
BITMAP
E1C0
E1C0
E1C0
E1C0
E1C0
FFC0
7FC0
01C0
01C0
01C0
01C0
ENDCHAR
STARTCHAR 0448
ENCODING 1096
SWIDTH 977 0
DWIDTH 19 0
BBX 16 11 1 0
BITMAP
E1C7
E1C7
E1C7
E1C7
E1C7
E1C7
E1C7
E1C7
E1C7
FFFF
FFFF
ENDCHAR
STARTCHAR 0449
ENCODING 1097
SWIDTH 977 0
DWIDTH 19 0
BBX 18 13 1 -2
BITMAP
E1C700
E1C700
E1C700
E1C700
E1C700
E1C700
E1C700
E1C700
E1C700
FFFFC0
FFFFC0
0001C0
0001C0
ENDCHAR
STARTCHAR 044A
ENCODING 1098
SWIDTH 668 0
DWIDTH 13 0
BBX 13 11 0 0
BITMAP
FC00
FC00
1C00
1FE0
1FF0
1C78
1C38
1C38
1C78
1FF0
1FE0
ENDCHAR
STARTCHAR 044B
ENCODING 1099
SWIDTH 874 0
DWIDTH 17 0
BBX 14 11 1 0
BITMAP
E01C
E01C
E01C
E01C
FF1C
FFDC
E1DC
E1DC
E1DC
FF9C
FF1C
ENDCHAR
STARTCHAR 044C
ENCODING 1100
SWIDTH 617 0
DWIDTH 12 0
BBX 10 11 1 0
BITMAP
E000
E000
E000
E000
FF80
FFC0
E1C0
E1C0
E1C0
FFC0
FF00
ENDCHAR
STARTCHAR 044D
ENCODING 1101
SWIDTH 565 0
DWIDTH 11 0
BBX 10 11 1 0
BITMAP
7E00
FF00
E780
01C0
1FC0
1FC0
01C0
0380
E780
FF00
7E00
ENDCHAR
STARTCHAR 044E
ENCODING 1102
SWIDTH 925 0
DWIDTH 18 0
BBX 16 11 1 0
BITMAP
E0F8
E3FC
E3FE
E70F
FF07
FF07
FF07
E70F
E3FE
E3FC
E0F8
ENDCHAR
STARTCHAR 044F
ENCODING 1103
SWIDTH 617 0
DWIDTH 12 0
BBX 10 11 1 0
BITMAP
3FC0
7FC0
F9C0
E1C0
E1C0
E1C0
FFC0
3FC0
71C0
71C0
E1C0
ENDCHAR
STARTCHAR 0450
ENCODING 1104
SWIDTH 668 0
DWIDTH 13 0
BBX 11 15 1 0
BITMAP
3800
1C00
0E00
0000
1F00
7F80
F3C0
E1C0
FFE0
FFE0
E000
E000
FB80
7FC0
1F00
ENDCHAR
STARTCHAR 0451
ENCODING 1105
SWIDTH 668 0
DWIDTH 13 0
BBX 11 15 1 0
BITMAP
3300
3300
3300
0000
1F00
7F80
F3C0
E1C0
FFE0
FFE0
E000
E000
FB80
7FC0
1F00
ENDCHAR
STARTCHAR 0452
ENCODING 1106
SWIDTH 668 0
DWIDTH 13 0
BBX 12 19 0 -4
BITMAP
7000
FF80
FF80
7000
73C0
7FE0
7FF0
7870
7870
7070
7070
7070
7070
7070
7070
0070
02F0
03E0
03C0
ENDCHAR
STARTCHAR 0453
ENCODING 1107
SWIDTH 514 0
DWIDTH 10 0
BBX 9 15 1 0
BITMAP
0700
0E00
1C00
0000
FF80
FF80
FF80
E000
E000
E000
E000
E000
E000
E000
E000
ENDCHAR
STARTCHAR 0454
ENCODING 1108
SWIDTH 617 0
DWIDTH 12 0
BBX 10 11 1 0
BITMAP
1F00
7FC0
79C0
E080
E000
FE00
FE00
E000
F1C0
7FC0
1F00
ENDCHAR
STARTCHAR 0455
ENCODING 1109
SWIDTH 565 0
DWIDTH 11 0
BBX 9 11 1 0
BITMAP
3F00
7F00
E300
E000
F000
FF00
3F80
0380
C380
FF00
7E00
ENDCHAR
STARTCHAR 0456
ENCODING 1110
SWIDTH 308 0
DWIDTH 6 0
BBX 4 16 1 0
BITMAP
60
F0
F0
00
00
E0
E0
E0
E0
E0
E0
E0
E0
E0
E0
E0
ENDCHAR
STARTCHAR 0457
ENCODING 1111
SWIDTH 308 0
DWIDTH 6 0
BBX 6 15 0 0
BITMAP
DC
FC
48
00
70
70
70
70
70
70
70
70
70
70
70
ENDCHAR
STARTCHAR 0458
ENCODING 1112
SWIDTH 308 0
DWIDTH 6 0
BBX 7 20 -2 -4
BITMAP
0C
1E
1E
00
00
1E
1E
1E
1E
1E
1E
1E
1E
1E
1E
1E
1C
5C
FC
F8
ENDCHAR
STARTCHAR 0459
ENCODING 1113
SWIDTH 977 0
DWIDTH 19 0
BBX 18 11 0 0
BITMAP
1FE000
3FE000
38E000
38FF00
38FFC0
38E1C0
38E1C0
38E1C0
F8E1C0
F0FFC0
E0FF00
ENDCHAR
STARTCHAR 045A
ENCODING 1114
SWIDTH 977 0
DWIDTH 19 0
BBX 18 11 1 0
BITMAP
E0E000
E0E000
E0E000
E0E000
FFFF00
FFFF80
E0E380
E0E3C0
E0E380
E0FF80
E0FF00
ENDCHAR
STARTCHAR 045B
ENCODING 1115
SWIDTH 668 0
DWIDTH 13 0
BBX 13 15 -1 0
BITMAP
3800
FFC0
FFC0
3800
39E0
3FF0
3FF8
3C38
3C38
3838
3838
3838
3838
3838
3838
ENDCHAR
STARTCHAR 045C
ENCODING 1116
SWIDTH 617 0
DWIDTH 12 0
BBX 11 15 1 0
BITMAP
0380
0700
0C00
0000
E0E0
E1C0
E3C0
E380
E700
FF00
FF00
E780
E3C0
E1C0
E0E0
ENDCHAR
STARTCHAR 045D
ENCODING 1117
SWIDTH 720 0
DWIDTH 14 0
BBX 11 15 1 0
BITMAP
3800
1C00
0600
0000
E0E0
E1E0
E1E0
E3E0
E7E0
EFE0
EEE0
FCE0
F8E0
F0E0
F0E0
ENDCHAR
STARTCHAR 045E
ENCODING 1118
SWIDTH 617 0
DWIDTH 12 0
BBX 12 19 0 -4
BITMAP
3180
1F80
1F00
0000
E070
70E0
70E0
78E0
39C0
39C0
1F80
1F80
1F00
0F00
0F00
0E00
5E00
FC00
7800
ENDCHAR
STARTCHAR 045F
ENCODING 1119
SWIDTH 668 0
DWIDTH 13 0
BBX 10 13 1 -2
BITMAP
E1C0
E1C0
E1C0
E1C0
E1C0
E1C0
E1C0
E1C0
E1C0
FFC0
FFC0
0E00
0E00
ENDCHAR
STARTCHAR 0462
ENCODING 1122
SWIDTH 822 0
DWIDTH 16 0
BBX 16 15 0 0
BITMAP
0E00
0E00
FFE0
FFE0
0E00
0E00
0FFC
0FFE
0E0E
0E0E
0E0F
0E0E
0E1E
0FFC
0FF8
ENDCHAR
STARTCHAR 0463
ENCODING 1123
SWIDTH 668 0
DWIDTH 13 0
BBX 12 15 0 0
BITMAP
3800
3800
3800
FF80
FF80
3800
3800
3800
3FC0
3FF0
3870
3870
3870
3FE0
3FC0
ENDCHAR
STARTCHAR 046A
ENCODING 1130
SWIDTH 925 0
DWIDTH 18 0
BBX 18 14 0 0
BITMAP
3FFF00
3FFF00
1C0700
0E0E00
071C00
03B800
0FFC00
1FFE00
3CEF00
38E780
78E380
70E380
70E3C0
F0E1C0
ENDCHAR
STARTCHAR 046B
ENCODING 1131
SWIDTH 771 0
DWIDTH 15 0
BBX 15 11 0 0
BITMAP
3FF8
3FF8
3838
1C70
0EE0
1FF0
3FF8
739C
739C
739C
E38E
ENDCHAR
STARTCHAR 0472
ENCODING 1138
SWIDTH 822 0
DWIDTH 16 0
BBX 15 14 1 0
BITMAP
0FC0
3FF0
7FF8
783C
F01C
E01C
FFFE
FFFE
E01C
F01C
783C
7FF8
3FF0
0FC0
ENDCHAR
STARTCHAR 0473
ENCODING 1139
SWIDTH 668 0
DWIDTH 13 0
BBX 11 11 1 0
BITMAP
1F00
7FC0
71C0
E0E0
E0E0
FFE0
FFE0
E0E0
F1C0
7FC0
1F00
ENDCHAR
STARTCHAR 0474
ENCODING 1140
SWIDTH 771 0
DWIDTH 15 0
BBX 15 14 0 0
BITMAP
F01E
703E
783E
3878
3870
3C70
1CF0
1CE0
0EE0
0FC0
0FC0
07C0
0780
0780
ENDCHAR
STARTCHAR 0475
ENCODING 1141
SWIDTH 668 0
DWIDTH 13 0
BBX 12 11 0 0
BITMAP
F070
70F0
70F0
79E0
39C0
39C0
1F80
1F80
0F80
0F00
0F00
ENDCHAR
STARTCHAR 048A
ENCODING 1162
SWIDTH 874 0
DWIDTH 17 0
BBX 14 21 2 -3
BITMAP
30C0
1F80
0F00
0000
E070
E0F0
E0F0
E1F0
E3F0
E7F0
E770
EE70
FE70
FC70
F870
F07C
F07C
E07C
0018
0038
0038
ENDCHAR
STARTCHAR 048B
ENCODING 1163
SWIDTH 720 0
DWIDTH 14 0
BBX 13 17 1 -2
BITMAP
3180
1F80
0F00
0000
E0E0
E1E0
E1E0
E3E0
E7E0
EFE0
EEE0
FCE0
F8E0
F0F8
F0F0
0030
0070
ENDCHAR
STARTCHAR 048C
ENCODING 1164
SWIDTH 771 0
DWIDTH 15 0
BBX 14 15 0 0
BITMAP
3800
3800
FF80
FF80
3800
3800
3FF0
3FF8
383C
381C
381C
381C
387C
3FF8
3FE0
ENDCHAR
STARTCHAR 048D
ENCODING 1165
SWIDTH 617 0
DWIDTH 12 0
BBX 12 11 0 0
BITMAP
3800
FF80
FF80
3800
3FC0
3FF0
3870
3870
3870
3FE0
3FC0
ENDCHAR
STARTCHAR 048E
ENCODING 1166
SWIDTH 720 0
DWIDTH 14 0
BBX 11 14 2 0
BITMAP
FF00
FFC0
FFE0
E0E0
E0E0
E4E0
E6E0
E3E0
FFE0
FFC0
FEC0
E060
E000
E000
ENDCHAR
STARTCHAR 048F
ENCODING 1167
SWIDTH 720 0
DWIDTH 14 0
BBX 12 15 1 -4
BITMAP
E780
FFC0
FFE0
F0F0
F070
E070
F370
F1F0
FFE0
FFC0
E7E0
E020
E000
E000
E000
ENDCHAR
STARTCHAR 0490
ENCODING 1168
SWIDTH 617 0
DWIDTH 12 0
BBX 9 17 2 0
BITMAP
0380
0380
0380
FF80
FF80
FF80
E000
E000
E000
E000
E000
E000
E000
E000
E000
E000
E000
ENDCHAR
STARTCHAR 0491
ENCODING 1169
SWIDTH 514 0
DWIDTH 10 0
BBX 9 13 1 0
BITMAP
0380
0380
FF80
FF80
FF80
E000
E000
E000
E000
E000
E000
E000
E000
ENDCHAR
STARTCHAR 0492
ENCODING 1170
SWIDTH 617 0
DWIDTH 12 0
BBX 12 14 0 0
BITMAP
3FF0
3FF0
3FF0
3C00
3C00
3C00
3C00
FFE0
FFE0
3C00
3C00
3C00
3C00
3C00
ENDCHAR
STARTCHAR 0493
ENCODING 1171
SWIDTH 565 0
DWIDTH 11 0
BBX 9 11 1 0
BITMAP
7F80
7F80
7F80
7000
7000
FF00
FF00
7000
7000
7000
7000
ENDCHAR
STARTCHAR 0494
ENCODING 1172
SWIDTH 720 0
DWIDTH 14 0
BBX 11 17 2 -3
BITMAP
FFC0
FFC0
FFC0
E000
E000
E000
FF00
FFC0
F3C0
E1E0
E0E0
E0E0
E0E0
E1E0
03C0
0F80
0F00
ENDCHAR
STARTCHAR 0495
ENCODING 1173
SWIDTH 617 0
DWIDTH 12 0
BBX 11 15 1 -4
BITMAP
FF80
FF80
FF80
E000
E000
FF00
FFC0
FBC0
E1E0
E0E0
E0E0
01E0
0FC0
0F80
0F00
ENDCHAR
STARTCHAR 0496
ENCODING 1174
SWIDTH 1131 0
DWIDTH 22 0
BBX 20 17 1 -3
BITMAP
E0E0E0
F0E1E0
70E1C0
78E3C0
38E380
1CE700
1FFF00
1FFF00
3FFF80
38E380
78E3C0
70E1F0
F0E1F0
E0E0F0
000070
000070
000070
ENDCHAR
STARTCHAR 0497
ENCODING 1175
SWIDTH 925 0
DWIDTH 18 0
BBX 18 13 0 -2
BITMAP
71C380
71C780
39C700
39CE00
1DCE00
1FFC00
1FFE00
3DCE00
39C700
79C7C0
F1C3C0
0001C0
0001C0
ENDCHAR
STARTCHAR 0498
ENCODING 1176
SWIDTH 668 0
DWIDTH 13 0
BBX 11 17 1 -3
BITMAP
7F00
FF80
FFC0
01C0
01C0
03C0
3F80
3FC0
01E0
00E0
00E0
C3E0
FFC0
7F00
1C00
1C00
1C00
ENDCHAR
STARTCHAR 0499
ENCODING 1177
SWIDTH 565 0
DWIDTH 11 0
BBX 9 13 1 -2
BITMAP
7E00
FF00
C780
0380
3F00
3F00
0380
0380
C780
FF00
7E00
1C00
1C00
ENDCHAR
STARTCHAR 049A
ENCODING 1178
SWIDTH 771 0
DWIDTH 15 0
BBX 13 17 2 -3
BITMAP
E0F0
E0E0
E1C0
E1C0
E380
E700
FF00
FF00
FF00
E380
E3C0
E1F8
E1F8
E0F8
0038
0038
0038
ENDCHAR
STARTCHAR 049B
ENCODING 1179
SWIDTH 617 0
DWIDTH 12 0
BBX 12 13 1 -2
BITMAP
E0E0
E1C0
E3C0
E380
E700
FF00
FF00
E780
E3C0
E1F0
E0F0
0070
0070
ENDCHAR
STARTCHAR 049C
ENCODING 1180
SWIDTH 771 0
DWIDTH 15 0
BBX 13 14 2 0
BITMAP
E070
E0F0
E0E0
E9E0
E9C0
EB80
FF80
FF80
FF80
E9C0
E9E0
E0E0
E0F0
E078
ENDCHAR
STARTCHAR 049D
ENCODING 1181
SWIDTH 668 0
DWIDTH 13 0
BBX 11 11 1 0
BITMAP
E0E0
E1E0
E1C0
EF80
EF80
FF00
FF80
EFC0
EDC0
E1E0
E0E0
ENDCHAR
STARTCHAR 049E
ENCODING 1182
SWIDTH 771 0
DWIDTH 15 0
BBX 14 14 0 0
BITMAP
381C
FF38
FF78
3870
38E0
3FE0
3FC0
3FE0
38E0
38F0
3870
3878
383C
381C
ENDCHAR
STARTCHAR 049F
ENCODING 1183
SWIDTH 617 0
DWIDTH 12 0
BBX 12 15 0 0
BITMAP
7000
FE00
FE00
7000
7070
70E0
71C0
71C0
7380
7F80
7F80
73C0
71E0
70E0
70F0
ENDCHAR
STARTCHAR 04A0
ENCODING 1184
SWIDTH 874 0
DWIDTH 17 0
BBX 16 14 0 0
BITMAP
FE07
FE0E
FE1E
0E1C
0E38
0FF8
0FF0
0FF8
0E38
0E3C
0E1C
0E1E
0E0F
0E07
ENDCHAR
STARTCHAR 04A1
ENCODING 1185
SWIDTH 720 0
DWIDTH 14 0
BBX 14 11 0 0
BITMAP
FC38
FC38
1C70
1CE0
1FE0
1FE0
1CE0
1CF0
1C70
1C38
1C3C
ENDCHAR
STARTCHAR 04A2
ENCODING 1186
SWIDTH 874 0
DWIDTH 17 0
BBX 14 17 2 -3
BITMAP
E070
E070
E070
E070
E070
FFF0
FFF0
FFF0
E070
E070
E070
E07C
E07C
E07C
001C
001C
001C
ENDCHAR
STARTCHAR 04A3
ENCODING 1187
SWIDTH 720 0
DWIDTH 14 0
BBX 13 13 1 -2
BITMAP
E0E0
E0E0
E0E0
E0E0
E0E0
FFE0
FFE0
E0E0
E0E0
E0F8
E0F8
0038
0038
ENDCHAR
STARTCHAR 04A4
ENCODING 1188
SWIDTH 1080 0
DWIDTH 21 0
BBX 19 14 2 0
BITMAP
E07FE0
E07FE0
E07FE0
E07000
E07000
FFF000
FFF000
FFF000
E07000
E07000
E07000
E07000
E07000
E07000
ENDCHAR
STARTCHAR 04A5
ENCODING 1189
SWIDTH 925 0
DWIDTH 18 0
BBX 16 11 1 0
BITMAP
E0FF
E0FF
E0FF
E0E0
E0E0
FFE0
FFE0
E0E0
E0E0
E0E0
E0E0
ENDCHAR
STARTCHAR 04A6
ENCODING 1190
SWIDTH 1182 0
DWIDTH 23 0
BBX 20 17 2 -3
BITMAP
FFF000
FFF000
FFF000
E07000
E07000
E07000
E07FC0
E07FE0
E07DF0
E07070
E07070
E07070
E07070
E07070
0001E0
0003E0
000380
ENDCHAR
STARTCHAR 04A7
ENCODING 1191
SWIDTH 977 0
DWIDTH 19 0
BBX 18 15 1 -4
BITMAP
FFE000
FFE000
E0E000
E0E000
E0E000
E0FF00
E0FF80
E0F7C0
E0E1C0
E0E1C0
E0E1C0
0001C0
000F80
001F80
001E00
ENDCHAR
STARTCHAR 04A8
ENCODING 1192
SWIDTH 977 0
DWIDTH 19 0
BBX 17 14 1 0
BITMAP
307C00
78FE00
71EF00
F38700
E38380
E38380
E38380
E38380
E38700
F1C700
79EE00
3CFC00
1FFF80
07FF80
ENDCHAR
STARTCHAR 04A9
ENCODING 1193
SWIDTH 822 0
DWIDTH 16 0
BBX 14 11 1 0
BITMAP
21F0
73F8
E7BC
E71C
E71C
E71C
E71C
E3B8
7BF8
3FFC
1FFC
ENDCHAR
STARTCHAR 04AA
ENCODING 1194
SWIDTH 720 0
DWIDTH 14 0
BBX 13 17 1 -3
BITMAP
0FC0
3FF0
7FF0
7830
F000
E000
E000
E000
E000
E000
7020
7C78
3FF0
0FC0
0700
0700
0700
ENDCHAR
STARTCHAR 04AB
ENCODING 1195
SWIDTH 617 0
DWIDTH 12 0
BBX 10 13 1 -2
BITMAP
1F00
7F80
FFC0
E180
E000
E000
E000
E000
FBC0
7F80
1F00
0E00
0E00
ENDCHAR
STARTCHAR 04AC
ENCODING 1196
SWIDTH 617 0
DWIDTH 12 0
BBX 12 17 0 -3
BITMAP
FFF0
FFF0
FFF0
0700
0700
0700
0700
0700
0700
0700
0700
07C0
07C0
07C0
01C0
01C0
01C0
ENDCHAR
STARTCHAR 04AD
ENCODING 1197
SWIDTH 514 0
DWIDTH 10 0
BBX 10 13 0 -2
BITMAP
FFC0
FFC0
0FC0
0E00
0E00
0E00
0E00
0E00
0E00
0F00
0F00
0700
0700
ENDCHAR
STARTCHAR 04AE
ENCODING 1198
SWIDTH 720 0
DWIDTH 14 0
BBX 13 14 0 0
BITMAP
F038
7038
3870
3870
1CE0
1FE0
0FC0
0F80
0780
0700
0700
0700
0700
0700
ENDCHAR
STARTCHAR 04AF
ENCODING 1199
SWIDTH 617 0
DWIDTH 12 0
BBX 12 15 0 -4
BITMAP
E070
70E0
70E0
78E0
39C0
39C0
1F80
1F80
1F80
0F00
0F00
0E00
0E00
0E00
0E00
ENDCHAR
STARTCHAR 04B0
ENCODING 1200
SWIDTH 720 0
DWIDTH 14 0
BBX 13 14 0 0
BITMAP
F038
7038
3870
3870
1CE0
1FE0
0FC0
0F80
1FE0
1FE0
0700
0700
0700
0700
ENDCHAR
STARTCHAR 04B1
ENCODING 1201
SWIDTH 617 0
DWIDTH 12 0
BBX 12 15 0 -4
BITMAP
E070
70E0
70E0
78E0
39C0
39C0
1F80
1F80
1F80
0F00
7FE0
7FE0
0E00
0E00
0E00
ENDCHAR
STARTCHAR 04B2
ENCODING 1202
SWIDTH 771 0
DWIDTH 15 0
BBX 13 17 1 -3
BITMAP
E0F0
F0E0
79E0
3BC0
3F80
1F80
0F00
0F00
1F80
3FC0
39C0
79F8
F0F8
E078
0038
0038
0038
ENDCHAR
STARTCHAR 04B3
ENCODING 1203
SWIDTH 617 0
DWIDTH 12 0
BBX 12 13 0 -2
BITMAP
70E0
79C0
3BC0
1F80
1F00
0E00
1F00
1F80
3BC0
71F0
F0F0
0070
0070
ENDCHAR
STARTCHAR 04B4
ENCODING 1204
SWIDTH 977 0
DWIDTH 19 0
BBX 19 17 0 -3
BITMAP
FFE380
FFE380
FFE380
070380
070380
070380
070380
070380
070380
070380
070380
07FFE0
07FFE0
07FFE0
0000E0
0000E0
0000E0
ENDCHAR
STARTCHAR 04B5
ENCODING 1205
SWIDTH 822 0
DWIDTH 16 0
BBX 15 13 0 -2
BITMAP
FF9C
FF9C
0F9C
0E1C
0E1C
0E1C
0E1C
0E1C
0E1C
0FFE
0FFE
000E
000E
ENDCHAR
STARTCHAR 04B6
ENCODING 1206
SWIDTH 771 0
DWIDTH 15 0
BBX 14 17 1 -3
BITMAP
E070
E070
E070
E070
E070
E070
F0F0
7FF0
3FF0
0E70
0070
007C
007C
007C
001C
001C
001C
ENDCHAR
STARTCHAR 04B7
ENCODING 1207
SWIDTH 668 0
DWIDTH 13 0
BBX 11 13 1 -2
BITMAP
E1C0
E1C0
E1C0
E1C0
E1C0
FFC0
7FC0
01C0
01C0
01E0
01E0
0060
0060
ENDCHAR
STARTCHAR 04B8
ENCODING 1208
SWIDTH 771 0
DWIDTH 15 0
BBX 12 14 1 0
BITMAP
E070
E070
E070
E070
E670
E670
F6F0
7FF0
3FF0
0E70
0670
0670
0070
0070
ENDCHAR
STARTCHAR 04B9
ENCODING 1209
SWIDTH 617 0
DWIDTH 12 0
BBX 10 11 1 0
BITMAP
E1C0
E1C0
E1C0
E9C0
EBC0
FFC0
7FC0
09C0
09C0
01C0
01C0
ENDCHAR
STARTCHAR 04BA
ENCODING 1210
SWIDTH 771 0
DWIDTH 15 0
BBX 12 14 2 0
BITMAP
E000
E000
E000
E000
E700
FFC0
FFE0
E0E0
E0F0
E070
E070
E070
E070
E070
ENDCHAR
STARTCHAR 04BB
ENCODING 1211
SWIDTH 668 0
DWIDTH 13 0
BBX 11 15 1 0
BITMAP
E000
E000
E000
E000
E780
FFC0
FFE0
F0E0
F0E0
E0E0
E0E0
E0E0
E0E0
E0E0
E0E0
ENDCHAR
STARTCHAR 04BC
ENCODING 1212
SWIDTH 1028 0
DWIDTH 20 0
BBX 19 14 0 0
BITMAP
007E00
01FF80
03FFC0
73C3C0
E781E0
E700E0
7FFFE0
3FFFE0
070000
078000
03C180
03FFC0
01FF80
007E00
ENDCHAR
STARTCHAR 04BD
ENCODING 1213
SWIDTH 822 0
DWIDTH 16 0
BBX 15 11 0 0
BITMAP
01F0
03FC
679E
EE0E
FFFE
7FFE
0E00
0F00
079C
03FC
01F8
ENDCHAR
STARTCHAR 04BE
ENCODING 1214
SWIDTH 1028 0
DWIDTH 20 0
BBX 19 17 0 -3
BITMAP
007E00
01FF80
03FFC0
73C3C0
E781E0
E700E0
7FFFE0
3FFFE0
070000
078000
038100
03E380
01FFC0
007F00
001C00
001C00
001C00
ENDCHAR
STARTCHAR 04BF
ENCODING 1215
SWIDTH 822 0
DWIDTH 16 0
BBX 15 13 0 -2
BITMAP
01F0
03FC
679C
EF0E
EE0E
7FFE
3FFE
0E00
079C
03FE
01F8
00E0
00E0
ENDCHAR
STARTCHAR 04C0
ENCODING 1216
SWIDTH 360 0
DWIDTH 7 0
BBX 3 14 2 0
BITMAP
E0
E0
E0
E0
E0
E0
E0
E0
E0
E0
E0
E0
E0
E0
ENDCHAR
STARTCHAR 04C1
ENCODING 1217
SWIDTH 1080 0
DWIDTH 21 0
BBX 19 18 1 0
BITMAP
031800
03F800
01F000
000000
E0E0E0
F0E1E0
70E1C0
78E3C0
38E380
1CE700
1FFF00
1FFF00
3FFF80
38E380
78E3C0
70E1C0
F0E1E0
E0E0E0
ENDCHAR
STARTCHAR 04C2
ENCODING 1218
SWIDTH 925 0
DWIDTH 18 0
BBX 17 15 0 0
BITMAP
063000
03F000
01E000
000000
71C380
71C780
39C700
39CE00
1DCE00
1FFC00
1FFE00
3DCE00
39C700
79C780
F1C380
ENDCHAR
STARTCHAR 04C3
ENCODING 1219
SWIDTH 720 0
DWIDTH 14 0
BBX 12 18 2 -4
BITMAP
E0F0
E0E0
E1C0
E1C0
E380
E780
FF00
FF00
FF80
E3C0
E1E0
E1E0
E0F0
E070
0070
03F0
03E0
03C0
ENDCHAR
STARTCHAR 04C4
ENCODING 1220
SWIDTH 617 0
DWIDTH 12 0
BBX 11 15 1 -4
BITMAP
E0E0
E1C0
E3C0
E380
E700
FF00
FF80
E3C0
E1C0
E1E0
E0E0
00E0
01E0
07E0
0780
ENDCHAR
STARTCHAR 04C6
ENCODING 1222
SWIDTH 668 0
DWIDTH 13 0
BBX 13 13 0 -2
BITMAP
1FE0
3FE0
38E0
38E0
38E0
38E0
38E0
38E0
F8E0
F0F8
E0F0
0030
0070
ENDCHAR
STARTCHAR 04C7
ENCODING 1223
SWIDTH 822 0
DWIDTH 16 0
BBX 12 18 2 -4
BITMAP
E070
E070
E070
E070
E070
E070
FFF0
FFF0
FFF0
E070
E070
E070
E070
E070
0070
02F0
03E0
03C0
ENDCHAR
STARTCHAR 04C8
ENCODING 1224
SWIDTH 720 0
DWIDTH 14 0
BBX 11 15 1 -4
BITMAP
E0E0
E0E0
E0E0
E0E0
E0E0
FFE0
FFE0
E0E0
E0E0
E0E0
E0E0
00E0
05E0
07C0
0780
ENDCHAR
STARTCHAR 04C9
ENCODING 1225
SWIDTH 874 0
DWIDTH 17 0
BBX 14 17 2 -3
BITMAP
E070
E070
E070
E070
E070
FFF0
FFF0
FFF0
E070
E070
E070
E07C
E07C
E07C
0018
0038
0038
ENDCHAR
STARTCHAR 04CA
ENCODING 1226
SWIDTH 720 0
DWIDTH 14 0
BBX 12 13 1 -2
BITMAP
E0E0
E0E0
E0E0
E0E0
E0E0
FFE0
FFE0
E0E0
E0E0
E0F0
E0F0
0070
0060
ENDCHAR
STARTCHAR 04CB
ENCODING 1227
SWIDTH 720 0
DWIDTH 14 0
BBX 12 17 1 -3
BITMAP
E070
E070
E070
E070
E070
E070
FFF0
7FF0
3F70
0070
0070
03F0
03F0
03F0
0380
0380
0380
ENDCHAR
STARTCHAR 04CC
ENCODING 1228
SWIDTH 617 0
DWIDTH 12 0
BBX 10 13 1 -2
BITMAP
E1C0
E1C0
E1C0
E1C0
F3C0
FFC0
7DC0
01C0
01C0
07C0
07C0
0700
0700
ENDCHAR
STARTCHAR 04CD
ENCODING 1229
SWIDTH 1028 0
DWIDTH 20 0
BBX 17 17 2 -3
BITMAP
E00E00
E00E00
F01E00
F03E00
F83E00
F87E00
FC7E00
EEEE00
EECE00
E7CE00
E78E00
E38F80
E10F80
E00F80
000300
000300
000700
ENDCHAR
STARTCHAR 04CE
ENCODING 1230
SWIDTH 874 0
DWIDTH 17 0
BBX 15 13 1 -2
BITMAP
F038
F038
F878
F878
FCF8
EDD8
EFD8
E798
E718
E31E
E01E
000C
000C
ENDCHAR
STARTCHAR 04CF
ENCODING 1231
SWIDTH 308 0
DWIDTH 6 0
BBX 3 15 1 0
BITMAP
E0
E0
E0
E0
E0
E0
E0
E0
E0
E0
E0
E0
E0
E0
E0
ENDCHAR
STARTCHAR 04D0
ENCODING 1232
SWIDTH 822 0
DWIDTH 16 0
BBX 15 18 0 0
BITMAP
0C70
0FE0
07C0
0000
03C0
03C0
07C0
07E0
0EE0
0E70
1C70
1C78
1C38
3FF8
3FFC
701C
701E
F00E
ENDCHAR
STARTCHAR 04D1
ENCODING 1233
SWIDTH 617 0
DWIDTH 12 0
BBX 10 15 1 0
BITMAP
6300
3F00
1E00
0000
3E00
FF80
6780
0380
3FC0
FFC0
E1C0
E3C0
E3C0
FFC0
7DC0
ENDCHAR
STARTCHAR 04D2
ENCODING 1234
SWIDTH 822 0
DWIDTH 16 0
BBX 15 18 0 0
BITMAP
0660
0EE0
0640
0000
03C0
03C0
07C0
07E0
0EE0
0E70
1C70
1C78
1C38
3FF8
3FFC
701C
701E
F00E
ENDCHAR
STARTCHAR 04D3
ENCODING 1235
SWIDTH 617 0
DWIDTH 12 0
BBX 10 15 1 0
BITMAP
3300
3700
3300
0000
3E00
FF80
6780
0380
3FC0
FFC0
E1C0
E3C0
E3C0
FFC0
7DC0
ENDCHAR
STARTCHAR 04D4
ENCODING 1236
SWIDTH 1080 0
DWIDTH 21 0
BBX 20 14 0 0
BITMAP
01FFF0
01FFF0
03FFF0
03B800
073800
073800
0E3FE0
0E3FE0
1C3800
1FF800
3FF800
783FF0
703FF0
F03FF0
ENDCHAR
STARTCHAR 04D5
ENCODING 1237
SWIDTH 977 0
DWIDTH 19 0
BBX 18 11 1 0
BITMAP
3E3E00
FFFF00
67E780
03C380
3FFFC0
FFFFC0
E1C000
E3C000
E3F700
FFFF80
7E3E00
ENDCHAR
STARTCHAR 04D6
ENCODING 1238
SWIDTH 668 0
DWIDTH 13 0
BBX 10 18 2 0
BITMAP
6380
7F00
3E00
0000
FFC0
FFC0
FFC0
E000
E000
E000
FF80
FF80
E000
E000
E000
FFC0
FFC0
FFC0
ENDCHAR
STARTCHAR 04D7
ENCODING 1239
SWIDTH 668 0
DWIDTH 13 0
BBX 11 15 1 0
BITMAP
3380
3F00
1E00
0000
1F00
7F80
F3C0
E1C0
FFE0
FFE0
E000
E000
FB80
7FC0
1F00
ENDCHAR
STARTCHAR 04D8
ENCODING 1240
SWIDTH 822 0
DWIDTH 16 0
BBX 14 14 1 0
BITMAP
0FC0
3FE0
7FF8
3078
003C
001C
FFFC
FFFC
E01C
E03C
F078
7FF8
3FF0
0FC0
ENDCHAR
STARTCHAR 04D9
ENCODING 1241
SWIDTH 668 0
DWIDTH 13 0
BBX 11 11 1 0
BITMAP
3F00
7F80
73C0
01C0
00E0
FFE0
FFE0
E0E0
73C0
7F80
1F00
ENDCHAR
STARTCHAR 04DA
ENCODING 1242
SWIDTH 822 0
DWIDTH 16 0
BBX 14 18 1 0
BITMAP
0CC0
0CC0
0CC0
0000
0FC0
3FE0
7FF8
3078
003C
001C
FFFC
FFFC
E01C
E03C
F078
7FF8
3FF0
0FC0
ENDCHAR
STARTCHAR 04DB
ENCODING 1243
SWIDTH 668 0
DWIDTH 13 0
BBX 11 15 1 0
BITMAP
3300
3B80
1100
0000
3F00
7F80
73C0
01C0
00E0
FFE0
FFE0
E0E0
73C0
7F80
1F00
ENDCHAR
STARTCHAR 04DC
ENCODING 1244
SWIDTH 1080 0
DWIDTH 21 0
BBX 19 18 1 0
BITMAP
03B800
03B800
011000
000000
E0E0E0
F0E1E0
70E1C0
78E3C0
38E380
1CE700
1FFF00
1FFF00
3FFF80
38E380
78E3C0
70E1C0
F0E1E0
E0E0E0
ENDCHAR
STARTCHAR 04DD
ENCODING 1245
SWIDTH 925 0
DWIDTH 18 0
BBX 17 15 0 0
BITMAP
033000
033000
033000
000000
71C380
71C780
39C700
39CE00
1DCE00
1FFC00
1FFE00
3DCE00
39C700
79C780
F1C380
ENDCHAR
STARTCHAR 04DE
ENCODING 1246
SWIDTH 668 0
DWIDTH 13 0
BBX 12 18 0 0
BITMAP
0880
1DC0
1980
0000
3F80
7FC0
7FE0
00E0
00E0
01E0
1FC0
1FE0
00F0
0070
40F0
7FF0
FFE0
1F80
ENDCHAR
STARTCHAR 04DF
ENCODING 1247
SWIDTH 565 0
DWIDTH 11 0
BBX 9 15 1 0
BITMAP
6600
7700
2200
0000
7E00
FF00
C780
0380
3F00
3F00
0380
0380
C780
FF00
7E00
ENDCHAR
STARTCHAR 04E0
ENCODING 1248
SWIDTH 617 0
DWIDTH 12 0
BBX 11 14 1 0
BITMAP
FFC0
FFC0
FFC0
0780
0F00
0E00
1F80
1FC0
01E0
01E0
81E0
FFC0
FF80
7F00
ENDCHAR
STARTCHAR 04E1
ENCODING 1249
SWIDTH 565 0
DWIDTH 11 0
BBX 10 15 0 -4
BITMAP
FFC0
FFC0
FF80
0700
0700
0E00
1F00
1F80
03C0
01C0
01C0
81C0
FFC0
FF80
3F00
ENDCHAR
STARTCHAR 04E2
ENCODING 1250
SWIDTH 822 0
DWIDTH 16 0
BBX 12 18 2 0
BITMAP
3FC0
3FC0
0000
0000
E070
E0F0
E0F0
E1F0
E3F0
E7F0
E770
EE70
FE70
FC70
F870
F070
F070
E070
ENDCHAR
STARTCHAR 04E3
ENCODING 1251
SWIDTH 720 0
DWIDTH 14 0
BBX 11 15 1 0
BITMAP
3F80
3F80
0000
0000
E0E0
E1E0
E1E0
E3E0
E7E0
EFE0
EEE0
FCE0
F8E0
F0E0
F0E0
ENDCHAR
STARTCHAR 04E4
ENCODING 1252
SWIDTH 822 0
DWIDTH 16 0
BBX 12 18 2 0
BITMAP
1980
1980
1980
0000
E070
E0F0
E0F0
E1F0
E3F0
E7F0
E770
EE70
FE70
FC70
F870
F070
F070
E070
ENDCHAR
STARTCHAR 04E5
ENCODING 1253
SWIDTH 720 0
DWIDTH 14 0
BBX 11 15 1 0
BITMAP
1980
3B80
1100
0000
E0E0
E1E0
E1E0
E3E0
E7E0
EFE0
EEE0
FCE0
F8E0
F0E0
F0E0
ENDCHAR
STARTCHAR 04E6
ENCODING 1254
SWIDTH 822 0
DWIDTH 16 0
BBX 15 18 1 0
BITMAP
04C0
0EC0
0CC0
0000
0FC0
3FF0
7FF8
783C
F01C
E01C
E01E
E01E
E01C
F01C
783C
7FF8
3FF0
0FC0
ENDCHAR
STARTCHAR 04E7
ENCODING 1255
SWIDTH 668 0
DWIDTH 13 0
BBX 11 15 1 0
BITMAP
3300
3B80
1100
0000
1F00
7F80
FFC0
E1E0
E0E0
E0E0
E0E0
E1E0
FBC0
7F80
1F00
ENDCHAR
STARTCHAR 04E8
ENCODING 1256
SWIDTH 822 0
DWIDTH 16 0
BBX 15 14 1 0
BITMAP
0FC0
3FF0
7FF8
783C
F01C
E01C
FFFE
FFFE
E01C
F01C
783C
7FF8
3FF0
0FC0
ENDCHAR
STARTCHAR 04E9
ENCODING 1257
SWIDTH 668 0
DWIDTH 13 0
BBX 11 11 1 0
BITMAP
1F00
7FC0
71C0
E0E0
E0E0
FFE0
FFE0
E0E0
F1C0
7FC0
1F00
ENDCHAR
STARTCHAR 04EA
ENCODING 1258
SWIDTH 822 0
DWIDTH 16 0
BBX 15 18 1 0
BITMAP
04C0
0EC0
0CC0
0000
0FC0
3FF0
7FF8
783C
F01C
E01C
FFFE
FFFE
E01C
F01C
783C
7FF8
3FF0
0FC0
ENDCHAR
STARTCHAR 04EB
ENCODING 1259
SWIDTH 668 0
DWIDTH 13 0
BBX 11 15 1 0
BITMAP
3B00
3B80
1100
0000
1F00
7FC0
71C0
E0E0
E0E0
FFE0
FFE0
E0E0
F1C0
7FC0
1F00
ENDCHAR
STARTCHAR 04EC
ENCODING 1260
SWIDTH 720 0
DWIDTH 14 0
BBX 13 18 0 0
BITMAP
0880
1DC0
1D80
0000
0F80
3FE0
7FF0
60F0
0078
0038
0FF8
0FF8
0038
0078
60F0
FFF0
7FE0
1F80
ENDCHAR
STARTCHAR 04ED
ENCODING 1261
SWIDTH 565 0
DWIDTH 11 0
BBX 10 15 1 0
BITMAP
6600
7700
2200
0000
7E00
FF00
E780
01C0
1FC0
1FC0
01C0
0380
E780
FF00
7E00
ENDCHAR
STARTCHAR 04EE
ENCODING 1262
SWIDTH 720 0
DWIDTH 14 0
BBX 14 18 0 0
BITMAP
1FE0
1FE0
0000
0000
F01C
7038
3838
3870
1C70
1CE0
0EC0
0FC0
0780
0780
0700
3F00
3E00
7C00
ENDCHAR
STARTCHAR 04EF
ENCODING 1263
SWIDTH 617 0
DWIDTH 12 0
BBX 12 19 0 -4
BITMAP
3F80
3F80
0000
0000
E070
70E0
70E0
78E0
39C0
39C0
1F80
1F80
1F00
0F00
0F00
0E00
5E00
FC00
7800
ENDCHAR
STARTCHAR 04F0
ENCODING 1264
SWIDTH 720 0
DWIDTH 14 0
BBX 14 18 0 0
BITMAP
0CC0
0CC0
0CC0
0000
F01C
7038
3838
3870
1C70
1CE0
0EC0
0FC0
0780
0780
0700
3F00
3E00
7C00
ENDCHAR
STARTCHAR 04F1
ENCODING 1265
SWIDTH 617 0
DWIDTH 12 0
BBX 12 19 0 -4
BITMAP
1980
3B80
1100
0000
E070
70E0
70E0
78E0
39C0
39C0
1F80
1F80
1F00
0F00
0F00
0E00
5E00
FC00
7800
ENDCHAR
STARTCHAR 04F2
ENCODING 1266
SWIDTH 720 0
DWIDTH 14 0
BBX 14 18 0 0
BITMAP
0770
06E0
0CC0
0000
F01C
7038
3838
3870
1C70
1CE0
0EC0
0FC0
0780
0780
0700
3F00
3E00
7C00
ENDCHAR
STARTCHAR 04F3
ENCODING 1267
SWIDTH 617 0
DWIDTH 12 0
BBX 12 19 0 -4
BITMAP
0EC0
1DC0
1980
0000
E070
70E0
70E0
78E0
39C0
39C0
1F80
1F80
1F00
0F00
0F00
0E00
5E00
FC00
7800
ENDCHAR
STARTCHAR 04F4
ENCODING 1268
SWIDTH 771 0
DWIDTH 15 0
BBX 12 18 1 0
BITMAP
1980
1980
1980
0000
E070
E070
E070
E070
E070
E070
F0F0
7FF0
3FF0
0E70
0070
0070
0070
0070
ENDCHAR
STARTCHAR 04F5
ENCODING 1269
SWIDTH 617 0
DWIDTH 12 0
BBX 10 15 1 0
BITMAP
3300
7700
2200
0000
E1C0
E1C0
E1C0
E1C0
E1C0
FFC0
7FC0
01C0
01C0
01C0
01C0
ENDCHAR
STARTCHAR 04F6
ENCODING 1270
SWIDTH 617 0
DWIDTH 12 0
BBX 9 17 2 -3
BITMAP
FF80
FF80
FF80
E000
E000
E000
E000
E000
E000
E000
E000
F800
F800
F800
3800
3800
3800
ENDCHAR
STARTCHAR 04F7
ENCODING 1271
SWIDTH 514 0
DWIDTH 10 0
BBX 9 13 1 -2
BITMAP
FF80
FF80
FF80
E000
E000
E000
E000
E000
E000
F800
F800
3800
3800
ENDCHAR
STARTCHAR 04F8
ENCODING 1272
SWIDTH 1028 0
DWIDTH 20 0
BBX 16 18 2 0
BITMAP
0660
0660
0660
0000
E007
E007
E007
E007
E007
FFC7
FFE7
E0E7
E0E7
E0E7
E0E7
E1E7
FFC7
FF87
ENDCHAR
STARTCHAR 04F9
ENCODING 1273
SWIDTH 874 0
DWIDTH 17 0
BBX 14 15 1 0
BITMAP
0EE0
0EE0
0440
0000
E01C
E01C
E01C
E01C
FF1C
FFDC
E1DC
E1DC
E1DC
FF9C
FF1C
ENDCHAR
STARTCHAR 04FA
ENCODING 1274
SWIDTH 617 0
DWIDTH 12 0
BBX 12 18 0 -4
BITMAP
3FF0
3FF0
3FF0
3C00
3C00
3C00
3C00
FFE0
FFE0
3C00
3C00
3C00
3E00
3E00
0E00
5E00
7E00
7800
ENDCHAR
STARTCHAR 04FB
ENCODING 1275
SWIDTH 514 0
DWIDTH 10 0
BBX 10 15 0 -4
BITMAP
3FC0
3FC0
3FC0
3800
3800
FF80
FF80
3800
3800
3E00
3E00
0E00
1C00
7C00
F800
ENDCHAR
STARTCHAR 04FC
ENCODING 1276
SWIDTH 720 0
DWIDTH 14 0
BBX 14 18 0 -4
BITMAP
7038
7878
3CF0
1CE0
1FC0
0FC0
0780
07C0
0FC0
1FE0
1CF0
3870
7878
F038
003C
00F8
01F8
01F0
ENDCHAR
STARTCHAR 04FD
ENCODING 1277
SWIDTH 617 0
DWIDTH 12 0
BBX 11 15 0 -4
BITMAP
70E0
79C0
3BC0
1F80
1F00
0F00
1F80
1F80
39C0
71E0
F0E0
00E0
02E0
07E0
07C0
ENDCHAR
STARTCHAR 04FE
ENCODING 1278
SWIDTH 720 0
DWIDTH 14 0
BBX 13 14 1 0
BITMAP
F070
70F0
79E0
39C0
3FC0
1F80
7FE0
7FE0
1F80
3FC0
39E0
79E0
F0F0
E078
ENDCHAR
STARTCHAR 04FF
ENCODING 1279
SWIDTH 617 0
DWIDTH 12 0
BBX 10 11 1 0
BITMAP
E1C0
F380
7380
3F00
3F00
FF80
FF80
3F00
7780
F380
E1C0
ENDCHAR
STARTCHAR 0510
ENCODING 1296
SWIDTH 668 0
DWIDTH 13 0
BBX 11 14 1 0
BITMAP
1F80
7FE0
7FC0
F000
F000
7800
3F80
7F80
E000
E000
E000
FFE0
7FE0
1F80
ENDCHAR
STARTCHAR 0511
ENCODING 1297
SWIDTH 565 0
DWIDTH 11 0
BBX 9 11 1 0
BITMAP
3F00
7F80
F180
E000
7E00
7E00
E000
E000
F180
FF80
3F00
ENDCHAR
STARTCHAR 0512
ENCODING 1298
SWIDTH 822 0
DWIDTH 16 0
BBX 14 18 0 -4
BITMAP
1FFC
1FFC
1FFC
1C1C
1C1C
1C1C
1C1C
1C1C
1C1C
1C1C
381C
F81C
F81C
F01C
001C
00BC
00F8
00F0
ENDCHAR
STARTCHAR 0513
ENCODING 1299
SWIDTH 668 0
DWIDTH 13 0
BBX 12 15 0 -4
BITMAP
1FF0
3FF0
38F0
38F0
38F0
38F0
38F0
38F0
F8F0
F0F0
E0F0
00E0
02E0
07E0
07C0
ENDCHAR
STARTCHAR 051A
ENCODING 1306
SWIDTH 822 0
DWIDTH 16 0
BBX 15 17 1 -3
BITMAP
0FC0
3FF0
7FF8
783C
F01C
E01C
E01E
E01E
E01C
F01C
703C
7FF8
3FF0
0FC0
01E6
00FE
007C
ENDCHAR
STARTCHAR 051B
ENCODING 1307
SWIDTH 668 0
DWIDTH 13 0
BBX 11 15 1 -4
BITMAP
1EE0
7FE0
FFE0
E1E0
E0E0
E0E0
E0E0
E1E0
FBE0
7FE0
1EE0
00E0
00E0
00E0
00E0
ENDCHAR
STARTCHAR 051C
ENCODING 1308
SWIDTH 1131 0
DWIDTH 22 0
BBX 21 14 0 0
BITMAP
F07838
707838
707838
78FC78
38FC70
38FC70
3CCE70
1DCEE0
1DCEE0
1D86E0
0F87C0
0F87C0
0F07C0
070380
ENDCHAR
STARTCHAR 051D
ENCODING 1309
SWIDTH 977 0
DWIDTH 19 0
BBX 19 11 0 0
BITMAP
E0E0E0
70E1C0
71F1C0
71F1C0
39B380
3BBB80
3BBB00
1F1F00
1F1F00
1F1E00
0E0E00
ENDCHAR
STARTCHAR 0524
ENCODING 1316
SWIDTH 822 0
DWIDTH 16 0
BBX 14 17 2 -3
BITMAP
FFF0
FFF0
FFF0
E070
E070
E070
E070
E070
E070
E070
E070
E07C
E07C
E07C
001C
001C
001C
ENDCHAR
STARTCHAR 0525
ENCODING 1317
SWIDTH 668 0
DWIDTH 13 0
BBX 12 13 1 -2
BITMAP
FFE0
FFE0
E0E0
E0E0
E0E0
E0E0
E0E0
E0E0
E0E0
E0F0
E0F0
0030
0030
ENDCHAR
STARTCHAR 0526
ENCODING 1318
SWIDTH 822 0
DWIDTH 16 0
BBX 14 17 2 -3
BITMAP
E000
E000
E000
E000
E700
FFC0
FFE0
E0E0
E0F0
E070
E070
E07C
E07C
E07C
001C
001C
001C
ENDCHAR
STARTCHAR 0527
ENCODING 1319
SWIDTH 720 0
DWIDTH 14 0
BBX 13 17 1 -2
BITMAP
E000
E000
E000
E000
E780
FFC0
FFE0
F0E0
F0E0
E0E0
E0E0
E0E0
E0E0
E0F8
E0F8
0038
0038
ENDCHAR
STARTCHAR 0528
ENCODING 1320
SWIDTH 822 0
DWIDTH 16 0
BBX 15 18 -1 -4
BITMAP
1C0E
1C0E
1C0E
1C0E
1C0E
1C0E
1FFE
1FFE
1FFE
1C0E
1C0E
1C0E
1C0E
1C0E
1C00
BC00
F800
F000
ENDCHAR
STARTCHAR 0529
ENCODING 1321
SWIDTH 720 0
DWIDTH 14 0
BBX 14 15 -2 -4
BITMAP
1C1C
1C1C
1C1C
1C1C
1C1C
1FFC
1FFC
1C1C
1C1C
1C1C
1C1C
1C00
1C00
FC00
F800
ENDCHAR
STARTCHAR 052E
ENCODING 1326
SWIDTH 822 0
DWIDTH 16 0
BBX 16 16 0 -2
BITMAP
1FFC
1FFC
1FFC
1C1C
1C1C
1C1C
1C1C
1C1C
1C1C
1C1C
381C
F81F
F81F
F01F
0007
0007
ENDCHAR
STARTCHAR 052F
ENCODING 1327
SWIDTH 668 0
DWIDTH 13 0
BBX 13 13 0 -2
BITMAP
1FE0
3FE0
38E0
38E0
38E0
38E0
38E0
38E0
F8E0
F0F8
E0F8
0038
0038
ENDCHAR
STARTCHAR 1E08
ENCODING 7688
SWIDTH 720 0
DWIDTH 14 0
BBX 13 22 1 -4
BITMAP
00E0
01C0
0300
0000
0FC0
3FF0
7FF0
7830
F000
E000
E000
E000
E000
F000
7830
7FF8
3FF0
0FC0
0200
0700
0180
0F80
ENDCHAR
STARTCHAR 1E09
ENCODING 7689
SWIDTH 565 0
DWIDTH 11 0
BBX 10 19 1 -4
BITMAP
0780
0600
0C00
0000
1F00
7F80
FFC0
E180
E000
E000
E000
E180
FBC0
7F80
1F00
0C00
0E00
0600
1E00
ENDCHAR
STARTCHAR 1E0C
ENCODING 7692
SWIDTH 822 0
DWIDTH 16 0
BBX 13 18 2 -4
BITMAP
FF80
FFE0
FFF0
E070
E078
E038
E038
E038
E038
E078
E070
FFF0
FFE0
FF80
0000
0400
0E00
0C00
ENDCHAR
STARTCHAR 1E0D
ENCODING 7693
SWIDTH 668 0
DWIDTH 13 0
BBX 11 19 1 -4
BITMAP
00E0
00E0
00E0
00E0
1EE0
7FE0
FFE0
E1E0
E0E0
E0E0
E0E0
E1E0
FBE0
7FE0
1EE0
0000
0600
0600
0600
ENDCHAR
STARTCHAR 1E0E
ENCODING 7694
SWIDTH 822 0
DWIDTH 16 0
BBX 13 18 2 -4
BITMAP
FF80
FFE0
FFF0
E070
E078
E038
E038
E038
E038
E078
E070
FFF0
FFE0
FF80
0000
0000
3F80
3F80
ENDCHAR
STARTCHAR 1E0F
ENCODING 7695
SWIDTH 668 0
DWIDTH 13 0
BBX 11 19 1 -4
BITMAP
00E0
00E0
00E0
00E0
1EE0
7FE0
FFE0
E1E0
E0E0
E0E0
E0E0
E1E0
FBE0
7FE0
1EE0
0000
0000
3FC0
3FC0
ENDCHAR
STARTCHAR 1E14
ENCODING 7700
SWIDTH 668 0
DWIDTH 13 0
BBX 10 20 2 0
BITMAP
3800
0C00
0000
7F00
7F00
0000
FFC0
FFC0
FFC0
E000
E000
E000
FF80
FF80
E000
E000
E000
FFC0
FFC0
FFC0
ENDCHAR
STARTCHAR 1E15
ENCODING 7701
SWIDTH 617 0
DWIDTH 12 0
BBX 11 17 1 0
BITMAP
3800
0C00
0000
3F80
3F80
0000
1F00
7F80
F3C0
E0C0
FFE0
FFE0
E000
E000
FB80
7FC0
1F00
ENDCHAR
STARTCHAR 1E16
ENCODING 7702
SWIDTH 668 0
DWIDTH 13 0
BBX 10 20 2 0
BITMAP
0F00
0C00
0000
7F00
7F00
0000
FFC0
FFC0
FFC0
E000
E000
E000
FF80
FF80
E000
E000
E000
FFC0
FFC0
FFC0
ENDCHAR
STARTCHAR 1E17
ENCODING 7703
SWIDTH 617 0
DWIDTH 12 0
BBX 11 17 1 0
BITMAP
0700
0C00
0000
3F80
3F80
0000
1F00
7F80
F3C0
E0C0
FFE0
FFE0
E000
E000
FB80
7FC0
1F00
ENDCHAR
STARTCHAR 1E1C
ENCODING 7708
SWIDTH 668 0
DWIDTH 13 0
BBX 10 22 2 -4
BITMAP
6300
3F00
1E00
0000
FFC0
FFC0
FFC0
E000
E000
E000
FF80
FF80
E000
E000
E000
FFC0
FFC0
FFC0
0800
0E00
0600
1E00
ENDCHAR
STARTCHAR 1E1D
ENCODING 7709
SWIDTH 617 0
DWIDTH 12 0
BBX 11 19 1 -4
BITMAP
3180
3F00
1E00
0000
1F00
7F80
F3C0
E0C0
FFE0
FFE0
E000
E000
7B80
7FC0
1F00
0C00
0E00
0600
1E00
ENDCHAR
STARTCHAR 1E20
ENCODING 7712
SWIDTH 771 0
DWIDTH 15 0
BBX 13 17 1 0
BITMAP
1FE0
1FE0
0000
0FC0
3FF0
7FF8
7830
F000
E000
E000
E038
E038
F038
7838
7FF8
3FF0
0FC0
ENDCHAR
STARTCHAR 1E21
ENCODING 7713
SWIDTH 720 0
DWIDTH 14 0
BBX 11 19 1 -4
BITMAP
3F80
3F80
0000
0000
3EE0
7FE0
FFE0
E0E0
E0E0
E0E0
E0E0
F1E0
7FE0
3FE0
00E0
40E0
73E0
FFC0
3F00
ENDCHAR
STARTCHAR 1E24
ENCODING 7716
SWIDTH 822 0
DWIDTH 16 0
BBX 12 18 2 -4
BITMAP
E070
E070
E070
E070
E070
FFF0
FFF0
FFF0
E070
E070
E070
E070
E070
E070
0000
0400
0600
0600
ENDCHAR
STARTCHAR 1E25
ENCODING 7717
SWIDTH 668 0
DWIDTH 13 0
BBX 11 19 1 -4
BITMAP
E000
E000
E000
E000
EF80
FFC0
FFE0
F0E0
F0E0
E0E0
E0E0
E0E0
E0E0
E0E0
E0E0
0000
0400
0E00
0600
ENDCHAR
STARTCHAR 1E2A
ENCODING 7722
SWIDTH 822 0
DWIDTH 16 0
BBX 12 18 2 -4
BITMAP
E070
E070
E070
E070
E070
FFF0
FFF0
FFF0
E070
E070
E070
E070
E070
E070
0000
3080
1B80
0F00
ENDCHAR
STARTCHAR 1E2B
ENCODING 7723
SWIDTH 668 0
DWIDTH 13 0
BBX 11 19 1 -4
BITMAP
E000
E000
E000
E000
EF80
FFC0
FFE0
F0E0
F0E0
E0E0
E0E0
E0E0
E0E0
E0E0
E0E0
0000
3080
1B80
0F00
ENDCHAR
STARTCHAR 1E2E
ENCODING 7726
SWIDTH 308 0
DWIDTH 6 0
BBX 6 20 0 0
BITMAP
1C
30
40
EC
CC
00
38
38
38
38
38
38
38
38
38
38
38
38
38
38
ENDCHAR
STARTCHAR 1E2F
ENCODING 7727
SWIDTH 308 0
DWIDTH 6 0
BBX 6 18 0 0
BITMAP
1C
38
00
CC
CC
08
00
70
70
70
70
70
70
70
70
70
70
70
ENDCHAR
STARTCHAR 1E36
ENCODING 7734
SWIDTH 617 0
DWIDTH 12 0
BBX 10 18 2 -4
BITMAP
E000
E000
E000
E000
E000
E000
E000
E000
E000
E000
E000
FFC0
FFC0
FFC0
0000
0800
1C00
0C00
ENDCHAR
STARTCHAR 1E37
ENCODING 7735
SWIDTH 308 0
DWIDTH 6 0
BBX 3 19 1 -4
BITMAP
E0
E0
E0
E0
E0
E0
E0
E0
E0
E0
E0
E0
E0
E0
E0
00
60
60
60
ENDCHAR
STARTCHAR 1E3A
ENCODING 7738
SWIDTH 617 0
DWIDTH 12 0
BBX 10 18 2 -4
BITMAP
E000
E000
E000
E000
E000
E000
E000
E000
E000
E000
E000
FFC0
FFC0
FFC0
0000
0000
7F00
7F00
ENDCHAR
STARTCHAR 1E3B
ENCODING 7739
SWIDTH 308 0
DWIDTH 6 0
BBX 8 19 -1 -4
BITMAP
38
38
38
38
38
38
38
38
38
38
38
38
38
38
38
00
00
FF
FF
ENDCHAR
STARTCHAR 1E42
ENCODING 7746
SWIDTH 977 0
DWIDTH 19 0
BBX 15 18 2 -4
BITMAP
C00E
E01E
F01E
F03E
F83E
F87E
FC6E
EEEE
EFCE
E7CE
E78E
E38E
E10E
E00E
0000
0100
0380
0300
ENDCHAR
STARTCHAR 1E43
ENCODING 7747
SWIDTH 1028 0
DWIDTH 20 0
BBX 18 15 1 -4
BITMAP
EF8F00
FFFF80
FFFFC0
F1E1C0
F0E1C0
E0E1C0
E0E1C0
E0E1C0
E0E1C0
E0E1C0
E0E1C0
000000
004000
00E000
00C000
ENDCHAR
STARTCHAR 1E44
ENCODING 7748
SWIDTH 822 0
DWIDTH 16 0
BBX 12 18 2 0
BITMAP
0E00
0E00
0600
0000
E070
E070
F070
F870
FC70
FE70
EE70
EF70
E7F0
E3F0
E1F0
E0F0
E0F0
E070
ENDCHAR
STARTCHAR 1E45
ENCODING 7749
SWIDTH 668 0
DWIDTH 13 0
BBX 11 15 1 0
BITMAP
0E00
0E00
0600
0000
EF80
FFC0
FFE0
F0E0
F0E0
E0E0
E0E0
E0E0
E0E0
E0E0
E0E0
ENDCHAR
STARTCHAR 1E46
ENCODING 7750
SWIDTH 822 0
DWIDTH 16 0
BBX 12 18 2 -4
BITMAP
E070
E070
F070
F870
FC70
FE70
EE70
EF70
E7F0
E3F0
E1F0
E0F0
E0F0
E070
0000
0400
0600
0600
ENDCHAR
STARTCHAR 1E47
ENCODING 7751
SWIDTH 668 0
DWIDTH 13 0
BBX 11 15 1 -4
BITMAP
EF80
FFC0
FFE0
F0E0
F0E0
E0E0
E0E0
E0E0
E0E0
E0E0
E0E0
0000
0400
0E00
0600
ENDCHAR
STARTCHAR 1E48
ENCODING 7752
SWIDTH 822 0
DWIDTH 16 0
BBX 12 18 2 -4
BITMAP
E070
E070
F070
F870
FC70
FE70
EE70
EF70
E7F0
E3F0
E1F0
E0F0
E0F0
E070
0000
0000
3F80
3F80
ENDCHAR
STARTCHAR 1E49
ENCODING 7753
SWIDTH 668 0
DWIDTH 13 0
BBX 11 15 1 -4
BITMAP
EF80
FFC0
FFE0
F0E0
F0E0
E0E0
E0E0
E0E0
E0E0
E0E0
E0E0
0000
0000
3F80
3F80
ENDCHAR
STARTCHAR 1E4C
ENCODING 7756
SWIDTH 822 0
DWIDTH 16 0
BBX 15 20 1 0
BITMAP
01C0
0300
0000
0FE0
0DC0
0000
0FC0
3FF0
7FF8
783C
F01C
E01C
E01E
E01E
E01C
F01C
783C
7FF8
3FF0
0FC0
ENDCHAR
STARTCHAR 1E4D
ENCODING 7757
SWIDTH 668 0
DWIDTH 13 0
BBX 11 17 1 0
BITMAP
0700
0E00
0000
3F80
2700
0000
1F00
7F80
FFC0
E1E0
E0E0
E0E0
E0E0
E1E0
FBC0
7F80
1F00
ENDCHAR
STARTCHAR 1E4E
ENCODING 7758
SWIDTH 822 0
DWIDTH 16 0
BBX 15 21 1 0
BITMAP
0440
0EC0
0CC0
0000
0FE0
0DC0
0000
0FC0
3FF0
7FF8
783C
F01C
E01C
E01E
E01E
E01C
F01C
783C
7FF8
3FF0
0FC0
ENDCHAR
STARTCHAR 1E4F
ENCODING 7759
SWIDTH 668 0
DWIDTH 13 0
BBX 11 18 1 0
BITMAP
3300
3B80
1100
0000
3F80
2700
0000
1F00
7F80
FFC0
E1E0
E0E0
E0E0
E0E0
E1E0
FBC0
7F80
1F00
ENDCHAR
STARTCHAR 1E50
ENCODING 7760
SWIDTH 822 0
DWIDTH 16 0
BBX 15 20 1 0
BITMAP
0F00
0300
0000
0FE0
0FE0
0000
0FC0
3FF0
7FF8
783C
F01C
E01C
E01E
E01E
E01C
F01C
783C
7FF8
3FF0
0FC0
ENDCHAR
STARTCHAR 1E51
ENCODING 7761
SWIDTH 668 0
DWIDTH 13 0
BBX 11 17 1 0
BITMAP
3C00
0E00
0000
3F80
3F80
0000
1F00
7F80
FFC0
E1E0
E0E0
E0E0
E0E0
E1E0
FBC0
7F80
1F00
ENDCHAR
STARTCHAR 1E52
ENCODING 7762
SWIDTH 822 0
DWIDTH 16 0
BBX 15 20 1 0
BITMAP
01C0
0300
0000
0FE0
0FE0
0000
0FC0
3FF0
7FF8
783C
F01C
E01C
E01E
E01E
E01C
F01C
783C
7FF8
3FF0
0FC0
ENDCHAR
STARTCHAR 1E53
ENCODING 7763
SWIDTH 668 0
DWIDTH 13 0
BBX 11 17 1 0
BITMAP
0700
0E00
0000
3F80
3F80
0000
1F00
7F80
FFC0
E1E0
E0E0
E0E0
E0E0
E1E0
FBC0
7F80
1F00
ENDCHAR
STARTCHAR 1E5A
ENCODING 7770
SWIDTH 720 0
DWIDTH 14 0
BBX 11 18 2 -4
BITMAP
FF00
FFC0
FFE0
E0E0
E0E0
E0E0
E0E0
E7E0
FFC0
FF80
E380
E1C0
E1E0
E0E0
0000
0400
0E00
0C00
ENDCHAR
STARTCHAR 1E5B
ENCODING 7771
SWIDTH 411 0
DWIDTH 8 0
BBX 7 15 1 -4
BITMAP
EE
FE
FE
F0
F0
E0
E0
E0
E0
E0
E0
00
60
60
60
ENDCHAR
STARTCHAR 1E5E
ENCODING 7774
SWIDTH 720 0
DWIDTH 14 0
BBX 11 18 2 -4
BITMAP
FF00
FFC0
FFE0
E0E0
E0E0
E0E0
E0E0
E7E0
FFC0
FF80
E380
E1C0
E1E0
E0E0
0000
0000
3F80
3F80
ENDCHAR
STARTCHAR 1E5F
ENCODING 7775
SWIDTH 411 0
DWIDTH 8 0
BBX 9 15 -1 -4
BITMAP
3B80
3F80
3F80
3C00
3C00
3800
3800
3800
3800
3800
3800
0000
0000
FF00
FF00
ENDCHAR
STARTCHAR 1E60
ENCODING 7776
SWIDTH 617 0
DWIDTH 12 0
BBX 11 18 1 0
BITMAP
0E00
0E00
0E00
0000
1F80
7FC0
FFC0
E000
E000
F000
7F00
3FC0
07E0
00E0
80E0
FFC0
FFC0
3F00
ENDCHAR
STARTCHAR 1E61
ENCODING 7777
SWIDTH 514 0
DWIDTH 10 0
BBX 9 15 1 0
BITMAP
1800
3C00
1800
0000
3F00
FF00
E300
E000
F000
FF00
3F80
0380
C780
FF00
7E00
ENDCHAR
STARTCHAR 1E62
ENCODING 7778
SWIDTH 617 0
DWIDTH 12 0
BBX 11 18 1 -4
BITMAP
1F80
7FC0
FFC0
E000
E000
F000
7F00
3FC0
07E0
00E0
80E0
FFC0
FFC0
3F00
0000
0400
0E00
0C00
ENDCHAR
STARTCHAR 1E63
ENCODING 7779
SWIDTH 514 0
DWIDTH 10 0
BBX 9 15 1 -4
BITMAP
3F00
FF00
E300
E000
F000
FF00
3F80
0380
C780
FF00
7E00
0000
1800
1800
1800
ENDCHAR
STARTCHAR 1E64
ENCODING 7780
SWIDTH 617 0
DWIDTH 12 0
BBX 11 21 1 0
BITMAP
0400
0E00
0C00
0000
0700
0C00
0000
1F80
7FC0
FFC0
E000
E000
F000
7F00
3FC0
07E0
00E0
80E0
FFC0
FFC0
3F00
ENDCHAR
STARTCHAR 1E65
ENCODING 7781
SWIDTH 514 0
DWIDTH 10 0
BBX 9 18 1 0
BITMAP
1800
1800
1800
0000
0E00
1800
0000
3F00
FF00
E300
E000
F000
FF00
3F80
0380
C780
FF00
7E00
ENDCHAR
STARTCHAR 1E66
ENCODING 7782
SWIDTH 617 0
DWIDTH 12 0
BBX 11 21 1 0
BITMAP
0400
0E00
0C00
0000
3380
1E00
0000
1F80
7FC0
FFC0
E000
E000
F000
7F00
3FC0
07E0
00E0
80E0
FFC0
FFC0
3F00
ENDCHAR
STARTCHAR 1E67
ENCODING 7783
SWIDTH 514 0
DWIDTH 10 0
BBX 9 18 1 0
BITMAP
1800
1800
1800
0000
6600
3C00
0000
3F00
FF00
E300
E000
F000
FF00
3F80
0380
C780
FF00
7E00
ENDCHAR
STARTCHAR 1E68
ENCODING 7784
SWIDTH 617 0
DWIDTH 12 0
BBX 11 22 1 -4
BITMAP
0E00
0E00
0E00
0000
1F80
7FC0
FFC0
E000
E000
F000
7F00
3FC0
07E0
00E0
80E0
FFC0
FFC0
3F00
0000
0400
0E00
0C00
ENDCHAR
STARTCHAR 1E69
ENCODING 7785
SWIDTH 514 0
DWIDTH 10 0
BBX 9 19 1 -4
BITMAP
1800
3C00
1800
0000
3F00
FF00
E300
E000
F000
FF00
3F80
0380
C780
FF00
7E00
0000
1800
1800
1800
ENDCHAR
STARTCHAR 1E6C
ENCODING 7788
SWIDTH 617 0
DWIDTH 12 0
BBX 12 18 0 -4
BITMAP
FFF0
FFF0
FFF0
0F00
0F00
0F00
0F00
0F00
0F00
0F00
0F00
0F00
0F00
0F00
0000
0600
0600
0600
ENDCHAR
STARTCHAR 1E6D
ENCODING 7789
SWIDTH 411 0
DWIDTH 8 0
BBX 8 17 0 -4
BITMAP
38
38
38
FE
FE
38
38
38
38
38
3C
3F
1F
00
0C
0C
0C
ENDCHAR
STARTCHAR 1E6E
ENCODING 7790
SWIDTH 617 0
DWIDTH 12 0
BBX 12 18 0 -4
BITMAP
FFF0
FFF0
FFF0
0F00
0F00
0F00
0F00
0F00
0F00
0F00
0F00
0F00
0F00
0F00
0000
0000
3FC0
3FC0
ENDCHAR
STARTCHAR 1E6F
ENCODING 7791
SWIDTH 411 0
DWIDTH 8 0
BBX 9 17 0 -4
BITMAP
3800
3800
3800
FE00
FE00
3800
3800
3800
3800
3800
3C00
3F00
1F00
0000
0000
3F80
3F80
ENDCHAR
STARTCHAR 1E78
ENCODING 7800
SWIDTH 771 0
DWIDTH 15 0
BBX 13 20 1 0
BITMAP
03C0
0700
0400
1FC0
19C0
0000
F038
F038
F038
F038
F038
F038
F038
F038
7038
7078
7070
7FF0
3FE0
0F80
ENDCHAR
STARTCHAR 1E79
ENCODING 7801
SWIDTH 668 0
DWIDTH 13 0
BBX 11 18 1 0
BITMAP
0380
0600
0800
1C80
3F80
3100
0000
E0E0
E0E0
E0E0
E0E0
E0E0
E0E0
E0E0
F1E0
7FE0
7FE0
3EE0
ENDCHAR
STARTCHAR 1E7A
ENCODING 7802
SWIDTH 771 0
DWIDTH 15 0
BBX 13 21 1 0
BITMAP
0CC0
1DC0
0880
0000
1FC0
1FC0
0000
F038
F038
F038
F038
F038
F038
F038
F038
7038
7078
7070
7FF0
3FE0
0F80
ENDCHAR
STARTCHAR 1E7B
ENCODING 7803
SWIDTH 668 0
DWIDTH 13 0
BBX 11 18 1 0
BITMAP
1980
3B80
1100
0000
3F80
3F80
0000
E0E0
E0E0
E0E0
E0E0
E0E0
E0E0
E0E0
F1E0
7FE0
7FE0
3EE0
ENDCHAR
STARTCHAR 1E80
ENCODING 7808
SWIDTH 1182 0
DWIDTH 23 0
BBX 21 18 1 0
BITMAP
01C000
00E000
007000
000000
E07038
E0F038
E0F870
70F870
71F870
71DCE0
79DCE0
399CE0
3B8FC0
3F8FC0
1F0FC0
1F07C0
1F0780
0E0780
ENDCHAR
STARTCHAR 1E81
ENCODING 7809
SWIDTH 925 0
DWIDTH 18 0
BBX 18 15 0 0
BITMAP
038000
01C000
00E000
000000
E0E1C0
61E1C0
71E180
71F380
33F380
3BB300
3B3F00
1F3F00
1F1E00
1E1E00
0E1E00
ENDCHAR
STARTCHAR 1E82
ENCODING 7810
SWIDTH 1182 0
DWIDTH 23 0
BBX 21 18 1 0
BITMAP
001C00
003800
006000
000000
E07038
E0F038
E0F870
70F870
71F870
71DCE0
79DCE0
399CE0
3B8FC0
3F8FC0
1F0FC0
1F07C0
1F0780
0E0780
ENDCHAR
STARTCHAR 1E83
ENCODING 7811
SWIDTH 925 0
DWIDTH 18 0
BBX 18 15 0 0
BITMAP
007800
006000
00C000
000000
E0E1C0
61E1C0
71E180
71F380
33F380
3BB300
3B3F00
1F3F00
1F1E00
1E1E00
0E1E00
ENDCHAR
STARTCHAR 1E84
ENCODING 7812
SWIDTH 1182 0
DWIDTH 23 0
BBX 21 18 1 0
BITMAP
019800
01DC00
008800
000000
E07038
E0F038
E0F870
70F870
71F870
71DCE0
79DCE0
399CE0
3B8FC0
3F8FC0
1F0FC0
1F07C0
1F0780
0E0780
ENDCHAR
STARTCHAR 1E85
ENCODING 7813
SWIDTH 925 0
DWIDTH 18 0
BBX 18 15 0 0
BITMAP
033000
033000
033000
000000
E0E1C0
61E1C0
71E180
71F380
33F380
3BB300
3B3F00
1F3F00
1F1E00
1E1E00
0E1E00
ENDCHAR
STARTCHAR 1E8E
ENCODING 7822
SWIDTH 668 0
DWIDTH 13 0
BBX 13 18 0 0
BITMAP
0700
0700
0700
0000
E038
7078
7870
38E0
3CE0
1DC0
0FC0
0F80
0700
0700
0700
0700
0700
0700
ENDCHAR
STARTCHAR 1E8F
ENCODING 7823
SWIDTH 617 0
DWIDTH 12 0
BBX 12 20 0 -4
BITMAP
0E00
0E00
0E00
0000
0000
E070
F0E0
70E0
71C0
39C0
39C0
3F80
1F80
1F00
0F00
0F00
0E00
5E00
FC00
F800
ENDCHAR
STARTCHAR 1E92
ENCODING 7826
SWIDTH 668 0
DWIDTH 13 0
BBX 12 18 1 -4
BITMAP
FFE0
FFE0
FFE0
03C0
0380
0780
0F00
1E00
3C00
3800
7800
FFF0
FFF0
FFF0
0000
0400
0E00
0600
ENDCHAR
STARTCHAR 1E93
ENCODING 7827
SWIDTH 565 0
DWIDTH 11 0
BBX 9 15 1 -4
BITMAP
FF80
FF80
0700
0F00
1E00
1C00
3800
7000
F000
FF80
FF80
0000
0800
1C00
1800
ENDCHAR
STARTCHAR 1E97
ENCODING 7831
SWIDTH 411 0
DWIDTH 8 0
BBX 8 17 0 0
BITMAP
CC
EE
44
00
38
38
38
FE
FE
38
38
38
38
38
3C
3F
1F
ENDCHAR
STARTCHAR 1E9E
ENCODING 7838
SWIDTH 771 0
DWIDTH 15 0
BBX 13 14 1 0
BITMAP
0FC0
3FF0
3FF0
7870
70E0
71C0
F3F0
F3F8
F038
F038
F038
F3F8
F3F0
F7E0
ENDCHAR
STARTCHAR 1EA0
ENCODING 7840
SWIDTH 771 0
DWIDTH 15 0
BBX 15 18 0 -4
BITMAP
0380
07C0
07C0
0EE0
0EE0
1EE0
1C70
1C70
3838
3FF8
7FFC
701C
F01C
E00E
0000
0100
0380
0380
ENDCHAR
STARTCHAR 1EA1
ENCODING 7841
SWIDTH 617 0
DWIDTH 12 0
BBX 10 15 1 -4
BITMAP
3E00
FF80
6780
03C0
3FC0
FFC0
E1C0
E1C0
E3C0
FFC0
7DC0
0000
0800
1C00
0C00
ENDCHAR
STARTCHAR 1EA2
ENCODING 7842
SWIDTH 771 0
DWIDTH 15 0
BBX 15 20 0 0
BITMAP
0100
03C0
00C0
00C0
0180
0000
0380
07C0
07C0
0EE0
0EE0
1EE0
1C70
1C70
3838
3FF8
7FFC
701C
F01C
E00E
ENDCHAR
STARTCHAR 1EA3
ENCODING 7843
SWIDTH 617 0
DWIDTH 12 0
BBX 10 16 1 1
BITMAP
1E00
0600
0600
0400
0000
3E00
FF80
6780
03C0
3FC0
FFC0
E1C0
E1C0
E3C0
FFC0
7DC0
ENDCHAR
STARTCHAR 1EA4
ENCODING 7844
SWIDTH 771 0
DWIDTH 15 0
BBX 15 19 0 0
BITMAP
001C
0038
07C0
0EE0
0000
0380
07C0
07C0
0EE0
0EE0
1EE0
1C70
1C70
3838
3FF8
7FFC
701C
F01C
E00E
ENDCHAR
STARTCHAR 1EA5
ENCODING 7845
SWIDTH 617 0
DWIDTH 12 0
BBX 12 16 1 0
BITMAP
0070
00C0
1E00
3300
0000
3E00
FF80
6780
03C0
3FC0
FFC0
E1C0
E1C0
E3C0
FFC0
7DC0
ENDCHAR
STARTCHAR 1EA6
ENCODING 7846
SWIDTH 771 0
DWIDTH 15 0
BBX 15 19 0 0
BITMAP
0070
0038
07C0
0EE0
0000
0380
07C0
07C0
0EE0
0EE0
1EE0
1C70
1C70
3838
3FF8
7FFC
701C
F01C
E00E
ENDCHAR
STARTCHAR 1EA7
ENCODING 7847
SWIDTH 617 0
DWIDTH 12 0
BBX 10 16 1 0
BITMAP
0380
00C0
1E00
3300
0000
3E00
FF80
6780
03C0
3FC0
FFC0
E1C0
E1C0
E3C0
FFC0
7DC0
ENDCHAR
STARTCHAR 1EA8
ENCODING 7848
SWIDTH 771 0
DWIDTH 15 0
BBX 15 20 0 0
BITMAP
0070
0010
0010
07C0
0EE0
0000
0380
07C0
07C0
0EE0
0EE0
1EE0
1C70
1C70
3838
3FF8
7FFC
701C
F01C
E00E
ENDCHAR
STARTCHAR 1EA9
ENCODING 7849
SWIDTH 617 0
DWIDTH 12 0
BBX 10 17 1 0
BITMAP
0380
00C0
00C0
1E00
3300
0000
3E00
FF80
6780
03C0
3FC0
FFC0
E1C0
E1C0
E3C0
FFC0
7DC0
ENDCHAR
STARTCHAR 1EAA
ENCODING 7850
SWIDTH 771 0
DWIDTH 15 0
BBX 15 20 0 1
BITMAP
0FE0
09C0
0000
07C0
0EE0
0000
0380
07C0
07C0
0EE0
0EE0
1EE0
1C70
1C70
3838
3FF8
7FFC
701C
F01C
E00E
ENDCHAR
STARTCHAR 1EAB
ENCODING 7851
SWIDTH 617 0
DWIDTH 12 0
BBX 10 18 1 0
BITMAP
1000
3F00
6700
0000
1E00
3300
0000
3E00
FF80
6780
03C0
3FC0
FFC0
E1C0
E1C0
E3C0
FFC0
7DC0
ENDCHAR
STARTCHAR 1EAC
ENCODING 7852
SWIDTH 771 0
DWIDTH 15 0
BBX 15 22 0 -4
BITMAP
0380
06C0
0C60
0000
0380
07C0
07C0
0EE0
0EE0
1EE0
1C70
1C70
3838
3FF8
7FFC
701C
F01C
E00E
0000
0100
0380
0380
ENDCHAR
STARTCHAR 1EAD
ENCODING 7853
SWIDTH 617 0
DWIDTH 12 0
BBX 10 19 1 -4
BITMAP
1E00
3F00
7380
0000
3E00
FF80
6780
03C0
3FC0
FFC0
E1C0
E1C0
E3C0
FFC0
7DC0
0000
0800
1C00
0C00
ENDCHAR
STARTCHAR 1EAE
ENCODING 7854
SWIDTH 771 0
DWIDTH 15 0
BBX 15 20 0 0
BITMAP
01C0
0380
0000
0EE0
07C0
0000
0380
07C0
07C0
0EE0
0EE0
1EE0
1C70
1C70
3838
3FF8
7FFC
701C
F01C
E00E
ENDCHAR
STARTCHAR 1EAF
ENCODING 7855
SWIDTH 617 0
DWIDTH 12 0
BBX 10 17 1 0
BITMAP
0700
0C00
0000
3700
1E00
0000
3E00
FF80
6780
03C0
3FC0
FFC0
E1C0
E1C0
E3C0
FFC0
7DC0
ENDCHAR
STARTCHAR 1EB0
ENCODING 7856
SWIDTH 771 0
DWIDTH 15 0
BBX 15 20 0 0
BITMAP
0700
0380
0000
0EE0
07C0
0000
0380
07C0
07C0
0EE0
0EE0
1EE0
1C70
1C70
3838
3FF8
7FFC
701C
F01C
E00E
ENDCHAR
STARTCHAR 1EB1
ENCODING 7857
SWIDTH 617 0
DWIDTH 12 0
BBX 10 17 1 0
BITMAP
3800
0C00
0000
3700
1E00
0000
3E00
FF80
6780
03C0
3FC0
FFC0
E1C0
E1C0
E3C0
FFC0
7DC0
ENDCHAR
STARTCHAR 1EB2
ENCODING 7858
SWIDTH 771 0
DWIDTH 15 0
BBX 15 21 0 0
BITMAP
0380
0080
0180
0000
0EE0
07C0
0000
0380
07C0
07C0
0EE0
0EE0
1EE0
1C70
1C70
3838
3FF8
7FFC
701C
F01C
E00E
ENDCHAR
STARTCHAR 1EB3
ENCODING 7859
SWIDTH 617 0
DWIDTH 12 0
BBX 10 18 1 0
BITMAP
1C00
0600
0600
0000
3700
1E00
0000
3E00
FF80
6780
03C0
3FC0
FFC0
E1C0
E1C0
E3C0
FFC0
7DC0
ENDCHAR
STARTCHAR 1EB4
ENCODING 7860
SWIDTH 771 0
DWIDTH 15 0
BBX 15 20 0 1
BITMAP
0FE0
09C0
0000
0EE0
07C0
0000
0380
07C0
07C0
0EE0
0EE0
1EE0
1C70
1C70
3838
3FF8
7FFC
701C
F01C
E00E
ENDCHAR
STARTCHAR 1EB5
ENCODING 7861
SWIDTH 617 0
DWIDTH 12 0
BBX 10 18 1 0
BITMAP
1000
3F00
6700
0000
3700
1E00
0000
3E00
FF80
6780
03C0
3FC0
FFC0
E1C0
E1C0
E3C0
FFC0
7DC0
ENDCHAR
STARTCHAR 1EB6
ENCODING 7862
SWIDTH 771 0
DWIDTH 15 0
BBX 15 22 0 -4
BITMAP
0C60
0FE0
07C0
0000
0380
07C0
07C0
0EE0
0EE0
1EE0
1C70
1C70
3838
3FF8
7FFC
701C
F01C
E00E
0000
0100
0380
0380
ENDCHAR
STARTCHAR 1EB7
ENCODING 7863
SWIDTH 617 0
DWIDTH 12 0
BBX 10 19 1 -4
BITMAP
6300
3F00
1E00
0000
3E00
FF80
6780
03C0
3FC0
FFC0
E1C0
E1C0
E3C0
FFC0
7DC0
0000
0800
1C00
0C00
ENDCHAR
STARTCHAR 1EB8
ENCODING 7864
SWIDTH 668 0
DWIDTH 13 0
BBX 10 18 2 -4
BITMAP
FFC0
FFC0
FFC0
E000
E000
E000
FF80
FF80
E000
E000
E000
FFC0
FFC0
FFC0
0000
0C00
0C00
0C00
ENDCHAR
STARTCHAR 1EB9
ENCODING 7865
SWIDTH 617 0
DWIDTH 12 0
BBX 11 15 1 -4
BITMAP
1F00
7F80
F3C0
E0C0
FFE0
FFE0
E000
E000
FB80
7FC0
1F00
0000
0C00
0C00
0C00
ENDCHAR
STARTCHAR 1EBA
ENCODING 7866
SWIDTH 668 0
DWIDTH 13 0
BBX 10 19 2 1
BITMAP
1E00
0600
0600
0400
0000
FFC0
FFC0
FFC0
E000
E000
E000
FF80
FF80
E000
E000
E000
FFC0
FFC0
FFC0
ENDCHAR
STARTCHAR 1EBB
ENCODING 7867
SWIDTH 617 0
DWIDTH 12 0
BBX 11 16 1 1
BITMAP
1E00
0200
0200
0600
0000
1F00
7F80
F3C0
E0C0
FFE0
FFE0
E000
E000
FB80
7FC0
1F00
ENDCHAR
STARTCHAR 1EBC
ENCODING 7868
SWIDTH 668 0
DWIDTH 13 0
BBX 10 18 2 0
BITMAP
3900
7F00
6700
0000
FFC0
FFC0
FFC0
E000
E000
E000
FF80
FF80
E000
E000
E000
FFC0
FFC0
FFC0
ENDCHAR
STARTCHAR 1EBD
ENCODING 7869
SWIDTH 617 0
DWIDTH 12 0
BBX 11 15 1 0
BITMAP
3980
3F80
6300
0000
1F00
7F80
F3C0
E0C0
FFE0
FFE0
E000
E000
FB80
7FC0
1F00
ENDCHAR
STARTCHAR 1EBE
ENCODING 7870
SWIDTH 668 0
DWIDTH 13 0
BBX 12 19 2 0
BITMAP
00F0
00C0
1E00
7300
0000
FFC0
FFC0
FFC0
E000
E000
E000
FF80
FF80
E000
E000
E000
FFC0
FFC0
FFC0
ENDCHAR
STARTCHAR 1EBF
ENCODING 7871
SWIDTH 617 0
DWIDTH 12 0
BBX 12 16 1 0
BITMAP
0070
00C0
1E00
3300
0000
1F00
7F80
F3C0
E0C0
FFE0
FFE0
E000
E000
FB80
7FC0
1F00
ENDCHAR
STARTCHAR 1EC0
ENCODING 7872
SWIDTH 668 0
DWIDTH 13 0
BBX 10 19 2 0
BITMAP
0380
00C0
1E00
7300
0000
FFC0
FFC0
FFC0
E000
E000
E000
FF80
FF80
E000
E000
E000
FFC0
FFC0
FFC0
ENDCHAR
STARTCHAR 1EC1
ENCODING 7873
SWIDTH 617 0
DWIDTH 12 0
BBX 11 16 1 0
BITMAP
0380
00C0
1E00
3300
0000
1F00
7F80
F3C0
E0C0
FFE0
FFE0
E000
E000
FB80
7FC0
1F00
ENDCHAR
STARTCHAR 1EC2
ENCODING 7874
SWIDTH 668 0
DWIDTH 13 0
BBX 10 20 2 0
BITMAP
0380
00C0
0080
1E00
7300
0000
FFC0
FFC0
FFC0
E000
E000
E000
FF80
FF80
E000
E000
E000
FFC0
FFC0
FFC0
ENDCHAR
STARTCHAR 1EC3
ENCODING 7875
SWIDTH 617 0
DWIDTH 12 0
BBX 11 17 1 0
BITMAP
01C0
0040
00C0
1E00
3300
0000
1F00
7F80
F3C0
E0C0
FFE0
FFE0
E000
E000
FB80
7FC0
1F00
ENDCHAR
STARTCHAR 1EC4
ENCODING 7876
SWIDTH 668 0
DWIDTH 13 0
BBX 10 21 2 0
BITMAP
1000
7F00
6700
0000
1E00
7300
0000
FFC0
FFC0
FFC0
E000
E000
E000
FF80
FF80
E000
E000
E000
FFC0
FFC0
FFC0
ENDCHAR
STARTCHAR 1EC5
ENCODING 7877
SWIDTH 617 0
DWIDTH 12 0
BBX 11 18 1 0
BITMAP
1000
3F80
2700
0000
1E00
3300
0000
1F00
7F80
F3C0
E0C0
FFE0
FFE0
E000
E000
FB80
7FC0
1F00
ENDCHAR
STARTCHAR 1EC6
ENCODING 7878
SWIDTH 668 0
DWIDTH 13 0
BBX 10 22 2 -4
BITMAP
1E00
3E00
6300
0000
FFC0
FFC0
FFC0
E000
E000
E000
FF80
FF80
E000
E000
E000
FFC0
FFC0
FFC0
0000
0C00
0C00
0C00
ENDCHAR
STARTCHAR 1EC7
ENCODING 7879
SWIDTH 617 0
DWIDTH 12 0
BBX 11 19 1 -4
BITMAP
1E00
3F00
3380
0000
1F00
7F80
F3C0
E0C0
FFE0
FFE0
E000
E000
FB80
7FC0
1F00
0000
0C00
0C00
0C00
ENDCHAR
STARTCHAR 1EC8
ENCODING 7880
SWIDTH 308 0
DWIDTH 6 0
BBX 5 19 1 1
BITMAP
F0
18
10
30
00
70
70
70
70
70
70
70
70
70
70
70
70
70
70
ENDCHAR
STARTCHAR 1EC9
ENCODING 7881
SWIDTH 308 0
DWIDTH 6 0
BBX 4 16 1 1
BITMAP
F0
30
30
20
00
E0
E0
E0
E0
E0
E0
E0
E0
E0
E0
E0
ENDCHAR
STARTCHAR 1ECA
ENCODING 7882
SWIDTH 308 0
DWIDTH 6 0
BBX 3 18 2 -4
BITMAP
E0
E0
E0
E0
E0
E0
E0
E0
E0
E0
E0
E0
E0
E0
00
40
E0
C0
ENDCHAR
STARTCHAR 1ECB
ENCODING 7883
SWIDTH 308 0
DWIDTH 6 0
BBX 4 20 1 -4
BITMAP
60
F0
F0
00
00
E0
E0
E0
E0
E0
E0
E0
E0
E0
E0
E0
00
60
60
60
ENDCHAR
STARTCHAR 1ECC
ENCODING 7884
SWIDTH 822 0
DWIDTH 16 0
BBX 15 18 1 -4
BITMAP
0FC0
3FF0
7FF8
783C
F01C
E01C
E01E
E01E
E01C
F01C
783C
7FF8
3FF0
0FC0
0000
0100
0380
0300
ENDCHAR
STARTCHAR 1ECD
ENCODING 7885
SWIDTH 668 0
DWIDTH 13 0
BBX 11 15 1 -4
BITMAP
1F00
7F80
FFC0
E1E0
E0E0
E0E0
E0E0
E1E0
FBC0
7F80
1F00
0000
0400
0E00
0C00
ENDCHAR
STARTCHAR 1ECE
ENCODING 7886
SWIDTH 822 0
DWIDTH 16 0
BBX 15 19 1 0
BITMAP
0780
0380
00C0
0180
0000
0FC0
3FF0
7FF8
783C
F01C
E01C
E01E
E01E
E01C
F01C
783C
7FF8
3FF0
0FC0
ENDCHAR
STARTCHAR 1ECF
ENCODING 7887
SWIDTH 668 0
DWIDTH 13 0
BBX 11 17 1 0
BITMAP
0400
1E00
0300
0300
0600
0000
1F00
7F80
FFC0
E1E0
E0E0
E0E0
E0E0
E1E0
FBC0
7F80
1F00
ENDCHAR
STARTCHAR 1ED0
ENCODING 7888
SWIDTH 822 0
DWIDTH 16 0
BBX 15 19 1 0
BITMAP
001C
0038
0780
0EC0
0020
0FC0
3FF0
7FF8
783C
F01C
E01C
E01E
E01E
E01C
F01C
783C
7FF8
3FF0
0FC0
ENDCHAR
STARTCHAR 1ED1
ENCODING 7889
SWIDTH 668 0
DWIDTH 13 0
BBX 12 16 1 0
BITMAP
0070
00E0
1E00
3380
0000
1F00
7F80
FFC0
E1E0
E0E0
E0E0
E0E0
E1E0
FBC0
7F80
1F00
ENDCHAR
STARTCHAR 1ED2
ENCODING 7890
SWIDTH 822 0
DWIDTH 16 0
BBX 15 19 1 0
BITMAP
00E0
0030
0780
0EC0
0020
0FC0
3FF0
7FF8
783C
F01C
E01C
E01E
E01E
E01C
F01C
783C
7FF8
3FF0
0FC0
ENDCHAR
STARTCHAR 1ED3
ENCODING 7891
SWIDTH 668 0
DWIDTH 13 0
BBX 11 16 1 0
BITMAP
03C0
00E0
1E00
3380
0000
1F00
7F80
FFC0
E1E0
E0E0
E0E0
E0E0
E1E0
FBC0
7F80
1F00
ENDCHAR
STARTCHAR 1ED4
ENCODING 7892
SWIDTH 822 0
DWIDTH 16 0
BBX 15 20 1 0
BITMAP
0070
0010
0030
07A0
0EC0
0020
0FC0
3FF0
7FF8
783C
F01C
E01C
E01E
E01E
E01C
F01C
783C
7FF8
3FF0
0FC0
ENDCHAR
STARTCHAR 1ED5
ENCODING 7893
SWIDTH 668 0
DWIDTH 13 0
BBX 11 17 1 0
BITMAP
01C0
0040
00C0
1E00
3380
0000
1F00
7F80
FFC0
E1E0
E0E0
E0E0
E0E0
E1E0
FBC0
7F80
1F00
ENDCHAR
STARTCHAR 1ED6
ENCODING 7894
SWIDTH 822 0
DWIDTH 16 0
BBX 15 21 1 0
BITMAP
0400
0FE0
09C0
0000
0780
0EC0
0020
0FC0
3FF0
7FF8
783C
F01C
E01C
E01E
E01E
E01C
F01C
783C
7FF8
3FF0
0FC0
ENDCHAR
STARTCHAR 1ED7
ENCODING 7895
SWIDTH 668 0
DWIDTH 13 0
BBX 11 17 1 1
BITMAP
3F80
2700
0000
1E00
3380
0000
1F00
7F80
FFC0
E1E0
E0E0
E0E0
E0E0
E1E0
FBC0
7F80
1F00
ENDCHAR
STARTCHAR 1ED8
ENCODING 7896
SWIDTH 822 0
DWIDTH 16 0
BBX 15 22 1 -4
BITMAP
0380
07C0
0CE0
0000
0FC0
3FF0
7FF8
783C
F01C
E01C
E01E
E01E
E01C
F01C
783C
7FF8
3FF0
0FC0
0000
0100
0380
0300
ENDCHAR
STARTCHAR 1ED9
ENCODING 7897
SWIDTH 668 0
DWIDTH 13 0
BBX 11 19 1 -4
BITMAP
0E00
1B00
3180
0000
1F00
7F80
FFC0
E1E0
E0E0
E0E0
E0E0
E1E0
FBC0
7F80
1F00
0000
0400
0E00
0C00
ENDCHAR
STARTCHAR 1EDA
ENCODING 7898
SWIDTH 822 0
DWIDTH 16 0
BBX 15 18 1 0
BITMAP
00E0
01C4
030C
000C
0FFC
3FF8
7FF8
783C
F01C
E01C
E01E
E01E
E01C
F01C
783C
7FF8
3FF0
0FC0
ENDCHAR
STARTCHAR 1EDB
ENCODING 7899
SWIDTH 668 0
DWIDTH 13 0
BBX 11 15 1 0
BITMAP
0380
0760
0C60
0060
1FE0
7FC0
FFC0
E1E0
E0E0
E0E0
E0E0
E1E0
FBC0
7F80
1F00
ENDCHAR
STARTCHAR 1EDC
ENCODING 7900
SWIDTH 822 0
DWIDTH 16 0
BBX 15 18 1 0
BITMAP
1E00
0704
030C
000C
0FFC
3FF8
7FF8
783C
F01C
E01C
E01E
E01E
E01C
F01C
783C
7FF8
3FF0
0FC0
ENDCHAR
STARTCHAR 1EDD
ENCODING 7901
SWIDTH 668 0
DWIDTH 13 0
BBX 11 15 1 0
BITMAP
3800
1C60
0E60
0060
1FE0
7FC0
FFC0
E1E0
E0E0
E0E0
E0E0
E1E0
FBC0
7F80
1F00
ENDCHAR
STARTCHAR 1EDE
ENCODING 7902
SWIDTH 822 0
DWIDTH 16 0
BBX 15 19 1 0
BITMAP
0780
0380
00C4
018C
000C
0FFC
3FF8
7FF8
783C
F01C
E01C
E01E
E01E
E01C
F01C
783C
7FF8
3FF0
0FC0
ENDCHAR
STARTCHAR 1EDF
ENCODING 7903
SWIDTH 668 0
DWIDTH 13 0
BBX 11 17 1 0
BITMAP
0400
1E00
0300
0360
0660
0060
1FE0
7FC0
FFC0
E1E0
E0E0
E0E0
E0E0
E1E0
FBC0
7F80
1F00
ENDCHAR
STARTCHAR 1EE0
ENCODING 7904
SWIDTH 822 0
DWIDTH 16 0
BBX 15 18 1 0
BITMAP
0660
0FEC
09CC
000C
0FFC
3FF8
7FF8
783C
F01C
E01C
E01E
E01E
E01C
F01C
783C
7FF8
3FF0
0FC0
ENDCHAR
STARTCHAR 1EE1
ENCODING 7905
SWIDTH 668 0
DWIDTH 13 0
BBX 11 15 1 0
BITMAP
1900
3F60
2260
0060
1FE0
7FC0
FFC0
E1E0
E0E0
E0E0
E0E0
E1E0
FBC0
7F80
1F00
ENDCHAR
STARTCHAR 1EE2
ENCODING 7906
SWIDTH 822 0
DWIDTH 16 0
BBX 15 21 1 -4
BITMAP
0004
000C
000C
0FFC
3FF8
7FF8
783C
F01C
E01C
E01E
E01E
E01C
F01C
783C
7FF8
3FF0
0FC0
0000
0100
0380
0300
ENDCHAR
STARTCHAR 1EE3
ENCODING 7907
SWIDTH 668 0
DWIDTH 13 0
BBX 11 18 1 -4
BITMAP
0060
0060
0060
1FE0
7FC0
FFC0
E1E0
E0E0
E0E0
E0E0
E1E0
FBC0
7F80
1F00
0000
0400
0E00
0C00
ENDCHAR
STARTCHAR 1EE4
ENCODING 7908
SWIDTH 771 0
DWIDTH 15 0
BBX 13 18 1 -4
BITMAP
F038
F038
F038
F038
F038
F038
F038
F038
7038
7078
7070
7FF0
3FE0
0F80
0000
0200
0700
0300
ENDCHAR
STARTCHAR 1EE5
ENCODING 7909
SWIDTH 668 0
DWIDTH 13 0
BBX 11 15 1 -4
BITMAP
E0E0
E0E0
E0E0
E0E0
E0E0
E0E0
E0E0
F1E0
7FE0
7FE0
3EE0
0000
0400
0E00
0600
ENDCHAR
STARTCHAR 1EE6
ENCODING 7910
SWIDTH 771 0
DWIDTH 15 0
BBX 13 20 1 0
BITMAP
0200
0780
0180
0180
0100
0000
F038
F038
F038
F038
F038
F038
F038
F038
7038
7078
7070
7FF0
3FE0
0F80
ENDCHAR
STARTCHAR 1EE7
ENCODING 7911
SWIDTH 668 0
DWIDTH 13 0
BBX 11 17 1 0
BITMAP
0400
0F00
0300
0300
0200
0000
E0E0
E0E0
E0E0
E0E0
E0E0
E0E0
E0E0
F1E0
7FE0
7FE0
3EE0
ENDCHAR
STARTCHAR 1EE8
ENCODING 7912
SWIDTH 822 0
DWIDTH 16 0
BBX 15 18 1 0
BITMAP
01C0
0386
0706
0006
F03E
F03C
F038
F038
F038
F038
F038
F038
7038
7078
7070
7FF0
3FE0
0F80
ENDCHAR
STARTCHAR 1EE9
ENCODING 7913
SWIDTH 720 0
DWIDTH 14 0
BBX 13 15 1 0
BITMAP
0380
0710
0E18
0038
E0F0
E0F0
E0E0
E0E0
E0E0
E0E0
E0E0
F1E0
7FE0
7FE0
3EE0
ENDCHAR
STARTCHAR 1EEA
ENCODING 7914
SWIDTH 822 0
DWIDTH 16 0
BBX 15 18 1 0
BITMAP
1C00
0E06
0306
0006
F03E
F03C
F038
F038
F038
F038
F038
F038
7038
7078
7070
7FF0
3FE0
0F80
ENDCHAR
STARTCHAR 1EEB
ENCODING 7915
SWIDTH 720 0
DWIDTH 14 0
BBX 13 15 1 0
BITMAP
3800
1C10
0618
0018
E0F0
E0F0
E0E0
E0E0
E0E0
E0E0
E0E0
F1E0
7FE0
7FE0
3EE0
ENDCHAR
STARTCHAR 1EEC
ENCODING 7916
SWIDTH 822 0
DWIDTH 16 0
BBX 15 20 1 0
BITMAP
0200
0780
0180
0186
0106
0006
F03E
F03C
F038
F038
F038
F038
F038
F038
7038
7078
7070
7FF0
3FE0
0F80
ENDCHAR
STARTCHAR 1EED
ENCODING 7917
SWIDTH 720 0
DWIDTH 14 0
BBX 13 17 1 0
BITMAP
0400
0F00
0300
0310
0218
0038
E0F0
E0F0
E0E0
E0E0
E0E0
E0E0
E0E0
F1E0
7FE0
7FE0
3EE0
ENDCHAR
STARTCHAR 1EEE
ENCODING 7918
SWIDTH 822 0
DWIDTH 16 0
BBX 15 18 1 0
BITMAP
0E40
1FC6
19C6
0006
F03E
F03C
F038
F038
F038
F038
F038
F038
7038
7078
7070
7FF0
3FE0
0F80
ENDCHAR
STARTCHAR 1EEF
ENCODING 7919
SWIDTH 720 0
DWIDTH 14 0
BBX 13 15 1 0
BITMAP
1C80
3F90
2318
0018
E0F0
E0F0
E0E0
E0E0
E0E0
E0E0
E0E0
F1E0
7FE0
7FE0
3EE0
ENDCHAR
STARTCHAR 1EF0
ENCODING 7920
SWIDTH 822 0
DWIDTH 16 0
BBX 15 21 1 -4
BITMAP
0006
0006
0006
F03E
F03C
F038
F038
F038
F038
F038
F038
7038
7078
7070
7FF0
3FE0
0F80
0000
0200
0700
0300
ENDCHAR
STARTCHAR 1EF1
ENCODING 7921
SWIDTH 720 0
DWIDTH 14 0
BBX 13 18 1 -4
BITMAP
0010
0018
0038
E0F0
E0F0
E0E0
E0E0
E0E0
E0E0
E0E0
F1E0
7FE0
7FE0
3EE0
0000
0400
0E00
0600
ENDCHAR
STARTCHAR 1EF2
ENCODING 7922
SWIDTH 668 0
DWIDTH 13 0
BBX 13 18 0 0
BITMAP
1C00
0E00
0300
0000
E038
7078
7870
38E0
3CE0
1DC0
0FC0
0F80
0700
0700
0700
0700
0700
0700
ENDCHAR
STARTCHAR 1EF3
ENCODING 7923
SWIDTH 617 0
DWIDTH 12 0
BBX 12 19 0 -4
BITMAP
3800
1C00
0600
0000
E070
F0E0
70E0
71C0
39C0
39C0
3F80
1F80
1F00
0F00
0F00
0E00
5E00
FC00
F800
ENDCHAR
STARTCHAR 1EF4
ENCODING 7924
SWIDTH 668 0
DWIDTH 13 0
BBX 13 18 0 -4
BITMAP
E038
7078
7870
38E0
3CE0
1DC0
0FC0
0F80
0700
0700
0700
0700
0700
0700
0000
0200
0700
0700
ENDCHAR
STARTCHAR 1EF5
ENCODING 7925
SWIDTH 617 0
DWIDTH 12 0
BBX 12 15 0 -4
BITMAP
E070
F0E0
70E0
71C0
39C0
39C0
3F80
1F80
1F00
0F00
0F00
0E00
5EC0
FCC0
F8C0
ENDCHAR
STARTCHAR 1EF6
ENCODING 7926
SWIDTH 668 0
DWIDTH 13 0
BBX 13 20 0 0
BITMAP
0200
0780
0180
0180
0100
0000
E038
7078
7870
38E0
3CE0
1DC0
0FC0
0F80
0700
0700
0700
0700
0700
0700
ENDCHAR
STARTCHAR 1EF7
ENCODING 7927
SWIDTH 617 0
DWIDTH 12 0
BBX 12 21 0 -4
BITMAP
0400
0F00
0300
0300
0200
0000
E070
F0E0
70E0
71C0
39C0
39C0
3F80
1F80
1F00
0F00
0F00
0E00
5E00
FC00
F800
ENDCHAR
STARTCHAR 1EF8
ENCODING 7928
SWIDTH 668 0
DWIDTH 13 0
BBX 13 18 0 0
BITMAP
0E40
1FC0
1180
0000
E038
7078
7870
38E0
3CE0
1DC0
0FC0
0F80
0700
0700
0700
0700
0700
0700
ENDCHAR
STARTCHAR 1EF9
ENCODING 7929
SWIDTH 617 0
DWIDTH 12 0
BBX 12 19 0 -4
BITMAP
1C80
3F80
2300
0000
E070
F0E0
70E0
71C0
39C0
39C0
3F80
1F80
1F00
0F00
0F00
0E00
5E00
FC00
F800
ENDCHAR
STARTCHAR 2007
ENCODING 8199
SWIDTH 720 0
DWIDTH 14 0
BBX 0 0 0 0
BITMAP
ENDCHAR
STARTCHAR 2008
ENCODING 8200
SWIDTH 257 0
DWIDTH 5 0
BBX 0 0 0 0
BITMAP
ENDCHAR
STARTCHAR 2009
ENCODING 8201
SWIDTH 154 0
DWIDTH 3 0
BBX 0 0 0 0
BITMAP
ENDCHAR
STARTCHAR 200A
ENCODING 8202
SWIDTH 102 0
DWIDTH 2 0
BBX 0 0 0 0
BITMAP
ENDCHAR
STARTCHAR 200B
ENCODING 8203
SWIDTH 0 0
DWIDTH 0 0
BBX 0 0 0 0
BITMAP
ENDCHAR
STARTCHAR 2010
ENCODING 8208
SWIDTH 411 0
DWIDTH 8 0
BBX 6 2 1 4
BITMAP
FC
FC
ENDCHAR
STARTCHAR 2012
ENCODING 8210
SWIDTH 720 0
DWIDTH 14 0
BBX 12 2 1 6
BITMAP
FFF0
FFF0
ENDCHAR
STARTCHAR 2013
ENCODING 8211
SWIDTH 514 0
DWIDTH 10 0
BBX 10 2 0 4
BITMAP
FFC0
FFC0
ENDCHAR
STARTCHAR 2014
ENCODING 8212
SWIDTH 977 0
DWIDTH 19 0
BBX 19 2 0 4
BITMAP
FFFFE0
FFFFE0
ENDCHAR
STARTCHAR 2015
ENCODING 8213
SWIDTH 977 0
DWIDTH 19 0
BBX 19 2 0 4
BITMAP
FFFFE0
FFFFE0
ENDCHAR
STARTCHAR 2018
ENCODING 8216
SWIDTH 257 0
DWIDTH 5 0
BBX 3 7 1 8
BITMAP
60
60
E0
E0
E0
E0
40
ENDCHAR
STARTCHAR 2019
ENCODING 8217
SWIDTH 257 0
DWIDTH 5 0
BBX 3 7 1 8
BITMAP
E0
E0
E0
60
E0
C0
C0
ENDCHAR
STARTCHAR 201A
ENCODING 8218
SWIDTH 257 0
DWIDTH 5 0
BBX 3 7 1 -3
BITMAP
40
E0
E0
E0
60
C0
C0
ENDCHAR
STARTCHAR 201C
ENCODING 8220
SWIDTH 514 0
DWIDTH 10 0
BBX 8 7 1 8
BITMAP
63
66
E6
EF
EF
EF
46
ENDCHAR
STARTCHAR 201D
ENCODING 8221
SWIDTH 514 0
DWIDTH 10 0
BBX 8 7 1 8
BITMAP
E6
EF
EF
67
E6
C6
CC
ENDCHAR
STARTCHAR 201E
ENCODING 8222
SWIDTH 514 0
DWIDTH 10 0
BBX 8 7 1 -3
BITMAP
46
EF
EF
E7
66
C6
C6
ENDCHAR
STARTCHAR 2020
ENCODING 8224
SWIDTH 565 0
DWIDTH 11 0
BBX 10 18 1 -4
BITMAP
1C00
1C00
1C00
1C00
1C00
FFC0
FFC0
1C00
1C00
1C00
1C00
1C00
1C00
1C00
1C00
1C00
1C00
1C00
ENDCHAR
STARTCHAR 2021
ENCODING 8225
SWIDTH 565 0
DWIDTH 11 0
BBX 10 18 1 -4
BITMAP
1C00
1C00
1C00
1C00
FC00
FFC0
FFC0
1C00
1C00
1C00
1C00
FFC0
FFC0
FFC0
1C00
1C00
1C00
1C00
ENDCHAR
STARTCHAR 2022
ENCODING 8226
SWIDTH 360 0
DWIDTH 7 0
BBX 5 5 1 3
BITMAP
70
F8
F8
F8
70
ENDCHAR
STARTCHAR 2026
ENCODING 8230
SWIDTH 822 0
DWIDTH 16 0
BBX 14 4 1 0
BITMAP
6318
E7BC
E7BC
E718
ENDCHAR
STARTCHAR 2030
ENCODING 8240
SWIDTH 1234 0
DWIDTH 24 0
BBX 23 14 1 0
BITMAP
781800
FC3000
CC7000
8C6000
CCC000
CDC000
F99810
333E7C
0766E6
0666C6
0C63C6
1C66C6
187E7C
303C38
ENDCHAR
STARTCHAR 2032
ENCODING 8242
SWIDTH 205 0
DWIDTH 4 0
BBX 3 6 1 8
BITMAP
E0
C0
C0
C0
C0
C0
ENDCHAR
STARTCHAR 2033
ENCODING 8243
SWIDTH 462 0
DWIDTH 9 0
BBX 7 6 1 8
BITMAP
EE
CC
CC
CC
CC
CC
ENDCHAR
STARTCHAR 2039
ENCODING 8249
SWIDTH 360 0
DWIDTH 7 0
BBX 5 8 1 1
BITMAP
38
70
60
E0
E0
70
30
38
ENDCHAR
STARTCHAR 203A
ENCODING 8250
SWIDTH 360 0
DWIDTH 7 0
BBX 5 8 1 1
BITMAP
E0
60
70
38
30
70
E0
C0
ENDCHAR
STARTCHAR 2044
ENCODING 8260
SWIDTH 205 0
DWIDTH 4 0
BBX 11 14 -4 0
BITMAP
0060
00E0
00C0
0180
0380
0300
0600
0E00
0C00
1800
3800
3000
6000
E000
ENDCHAR
STARTCHAR 2052
ENCODING 8274
SWIDTH 617 0
DWIDTH 12 0
BBX 9 14 1 0
BITMAP
E300
E300
E700
0600
0600
0C00
0C00
1C00
1800
1800
3800
3380
3380
7180
ENDCHAR
STARTCHAR 2070
ENCODING 8304
SWIDTH 411 0
DWIDTH 8 0
BBX 8 9 0 6
BITMAP
3C
7E
67
E3
E3
E3
67
7E
1C
ENDCHAR
STARTCHAR 2074
ENCODING 8308
SWIDTH 411 0
DWIDTH 8 0
BBX 8 8 0 7
BITMAP
0C
18
30
70
66
FF
FF
06
ENDCHAR
STARTCHAR 2075
ENCODING 8309
SWIDTH 411 0
DWIDTH 8 0
BBX 7 9 1 6
BITMAP
FC
FC
C0
C0
F8
FC
0E
FC
F8
ENDCHAR
STARTCHAR 2076
ENCODING 8310
SWIDTH 411 0
DWIDTH 8 0
BBX 8 9 0 6
BITMAP
1F
3E
60
60
FE
F7
63
77
3E
ENDCHAR
STARTCHAR 2077
ENCODING 8311
SWIDTH 411 0
DWIDTH 8 0
BBX 7 8 1 7
BITMAP
FE
FE
8C
1C
18
38
30
70
ENDCHAR
STARTCHAR 2078
ENCODING 8312
SWIDTH 411 0
DWIDTH 8 0
BBX 8 9 0 6
BITMAP
3C
7E
63
66
7E
E7
E3
77
3E
ENDCHAR
STARTCHAR 2079
ENCODING 8313
SWIDTH 411 0
DWIDTH 8 0
BBX 8 9 0 6
BITMAP
3C
7E
C7
E7
7F
03
06
7E
38
ENDCHAR
STARTCHAR 2080
ENCODING 8320
SWIDTH 411 0
DWIDTH 8 0
BBX 8 8 0 -2
BITMAP
3C
7E
63
E3
E3
63
7E
3C
ENDCHAR
STARTCHAR 2081
ENCODING 8321
SWIDTH 411 0
DWIDTH 8 0
BBX 6 8 1 -2
BITMAP
78
78
38
38
38
38
FC
FC
ENDCHAR
STARTCHAR 2082
ENCODING 8322
SWIDTH 411 0
DWIDTH 8 0
BBX 8 8 0 -2
BITMAP
3C
FE
06
06
1C
38
7F
7F
ENDCHAR
STARTCHAR 2083
ENCODING 8323
SWIDTH 411 0
DWIDTH 8 0
BBX 7 8 1 -2
BITMAP
FC
FC
18
3C
0E
06
FC
F8
ENDCHAR
STARTCHAR 2084
ENCODING 8324
SWIDTH 411 0
DWIDTH 8 0
BBX 8 8 0 -2
BITMAP
1C
18
30
66
FF
FF
06
06
ENDCHAR
STARTCHAR 2085
ENCODING 8325
SWIDTH 411 0
DWIDTH 8 0
BBX 7 8 1 -2
BITMAP
FC
FC
C0
F8
FC
0E
FC
F8
ENDCHAR
STARTCHAR 2086
ENCODING 8326
SWIDTH 411 0
DWIDTH 8 0
BBX 8 8 0 -2
BITMAP
1F
7E
60
7E
F7
63
77
3E
ENDCHAR
STARTCHAR 2087
ENCODING 8327
SWIDTH 411 0
DWIDTH 8 0
BBX 7 8 1 -2
BITMAP
FE
FE
8C
1C
18
38
30
70
ENDCHAR
STARTCHAR 2088
ENCODING 8328
SWIDTH 411 0
DWIDTH 8 0
BBX 8 8 0 -2
BITMAP
7E
67
67
7E
67
E3
77
3E
ENDCHAR
STARTCHAR 2089
ENCODING 8329
SWIDTH 411 0
DWIDTH 8 0
BBX 8 8 0 -2
BITMAP
7E
66
C7
7F
3B
07
7E
7C
ENDCHAR
STARTCHAR 20A1
ENCODING 8353
SWIDTH 720 0
DWIDTH 14 0
BBX 12 18 1 -2
BITMAP
0360
0360
0FE0
1FE0
3FF0
7EF0
F6E0
E6C0
E480
ED80
ED80
ED80
F920
7FF0
3FF0
1FC0
3600
3600
ENDCHAR
STARTCHAR 20A3
ENCODING 8355
SWIDTH 668 0
DWIDTH 13 0
BBX 12 14 1 0
BITMAP
7FF0
7FF0
7FF0
7800
7800
7800
7FE0
7FE0
7FE0
7800
7800
FF80
7800
7800
ENDCHAR
STARTCHAR 20A4
ENCODING 8356
SWIDTH 668 0
DWIDTH 13 0
BBX 12 14 1 0
BITMAP
07E0
1FF0
3FE0
3800
3800
FF80
FF80
FF80
FF80
3800
3800
FFE0
FFE0
FFE0
ENDCHAR
STARTCHAR 20A6
ENCODING 8358
SWIDTH 925 0
DWIDTH 18 0
BBX 16 14 1 0
BITMAP
381C
381C
3C1C
3E1C
3F1C
FF9F
FF9F
FBDF
F9FF
38FC
387C
387C
383C
381C
ENDCHAR
STARTCHAR 20A7
ENCODING 8359
SWIDTH 1697 0
DWIDTH 33 0
BBX 31 14 2 0
BITMAP
FF000000
FFC38000
FFE38000
E0E380F8
E0EFF3FC
E0EFF38C
E0E38700
FFE38380
FFC383F8
FF0380FC
E003800E
E003D31E
E001F7FC
E000F1F8
ENDCHAR
STARTCHAR 20A9
ENCODING 8361
SWIDTH 1234 0
DWIDTH 24 0
BBX 23 14 1 0
BITMAP
E0381C
F0781C
707C3C
707C38
78FC38
F8FE7E
F9CE7E
FDCE7E
FDCFFE
1F87E0
1F87E0
0F87E0
0F03C0
0F03C0
ENDCHAR
STARTCHAR 20AB
ENCODING 8363
SWIDTH 668 0
DWIDTH 13 0
BBX 12 18 1 -3
BITMAP
00E0
0FF0
0FF0
00E0
1EE0
7FE0
FFE0
E1E0
E0E0
E0E0
E0E0
E1E0
FBE0
7FE0
1EE0
0000
FFE0
FFE0
ENDCHAR
STARTCHAR 20AC
ENCODING 8364
SWIDTH 822 0
DWIDTH 16 0
BBX 14 14 1 0
BITMAP
03F0
0FF8
1FFC
3C1C
3800
FFC0
FFC0
FFC0
FFC0
3800
3C08
1FFC
0FF8
03F0
ENDCHAR
STARTCHAR 20AD
ENCODING 8365
SWIDTH 720 0
DWIDTH 14 0
BBX 13 14 1 0
BITMAP
7878
7870
78F0
79E0
7BC0
7B80
FFF0
FFF0
7B80
7BC0
79E0
78F0
7870
7878
ENDCHAR
STARTCHAR 20AE
ENCODING 8366
SWIDTH 720 0
DWIDTH 14 0
BBX 12 14 1 0
BITMAP
FFF0
FFF0
FFF0
0E00
0EC0
0FC0
0F00
3EC0
3FC0
0F00
3E00
3E00
0E00
0E00
ENDCHAR
STARTCHAR 20B1
ENCODING 8369
SWIDTH 874 0
DWIDTH 17 0
BBX 15 14 1 0
BITMAP
3FC0
3FF0
3FF8
F83E
F83E
F83E
F83E
3878
3FF0
3FC0
3F00
3800
3800
3800
ENDCHAR
STARTCHAR 20B2
ENCODING 8370
SWIDTH 771 0
DWIDTH 15 0
BBX 13 18 1 -2
BITMAP
0300
0300
0FC0
1FF0
3FF8
7F70
F300
E300
E300
E338
E338
E338
7338
7FF8
3FF8
0FC0
0300
0300
ENDCHAR
STARTCHAR 20B4
ENCODING 8372
SWIDTH 822 0
DWIDTH 16 0
BBX 14 14 1 0
BITMAP
1FC0
3FE0
1FF0
0070
0070
FFFC
FFFC
FFFC
FFFC
7800
3810
3FF0
1FF8
0FE0
ENDCHAR
STARTCHAR 20B5
ENCODING 8373
SWIDTH 720 0
DWIDTH 14 0
BBX 12 18 1 -2
BITMAP
0300
0300
0FC0
1FE0
3FF0
7F70
F320
E300
E300
E300
E300
E300
7320
7FF0
3FF0
0FC0
0300
0300
ENDCHAR
STARTCHAR 20B8
ENCODING 8376
SWIDTH 720 0
DWIDTH 14 0
BBX 12 14 1 0
BITMAP
FFF0
FFF0
0000
FFF0
FFF0
0700
0700
0700
0700
0700
0700
0700
0700
0700
ENDCHAR
STARTCHAR 20B9
ENCODING 8377
SWIDTH 720 0
DWIDTH 14 0
BBX 12 14 1 0
BITMAP
FFF0
FFF0
03C0
FFF0
FFF0
01C0
03C0
7FC0
7F80
7F00
0700
0380
03C0
01C0
ENDCHAR
STARTCHAR 20BA
ENCODING 8378
SWIDTH 771 0
DWIDTH 15 0
BBX 13 14 1 0
BITMAP
3800
3980
3B00
3C80
3980
FF00
BC00
3838
F838
B878
38F0
3FE0
3FC0
3F00
ENDCHAR
STARTCHAR 20BC
ENCODING 8380
SWIDTH 925 0
DWIDTH 18 0
BBX 14 16 2 0
BITMAP
0300
0300
0FC0
3FF0
7FF8
7338
E33C
E31C
E31C
E31C
E31C
E31C
E31C
E31C
E01C
E01C
ENDCHAR
STARTCHAR 20BD
ENCODING 8381
SWIDTH 771 0
DWIDTH 15 0
BBX 13 14 1 0
BITMAP
7FC0
7FF0
7FF8
7838
7838
7838
7878
7FF0
7FE0
7800
7800
FF80
7800
7800
ENDCHAR
STARTCHAR 2113
ENCODING 8467
SWIDTH 462 0
DWIDTH 9 0
BBX 9 14 0 0
BITMAP
0700
0F00
1980
1900
1B00
3B00
3600
3C00
3800
7000
F100
3300
3F00
1C00
ENDCHAR
STARTCHAR 2116
ENCODING 8470
SWIDTH 1234 0
DWIDTH 24 0
BBX 21 14 2 0
BITMAP
E071E0
E073F0
F07318
F87318
FC7338
FC73F0
FE70C0
EF7000
E7F3F0
E3F3F0
E1F000
E1F000
E0F000
E07000
ENDCHAR
STARTCHAR 2122
ENCODING 8482
SWIDTH 1028 0
DWIDTH 20 0
BBX 19 8 0 6
BITMAP
FF6060
FF70E0
1871E0
1879E0
187F60
186E60
186660
186060
ENDCHAR
STARTCHAR 2126
ENCODING 8486
SWIDTH 874 0
DWIDTH 17 0
BBX 17 14 0 0
BITMAP
03F000
0FF800
1FFE00
3C1E00
380F00
780700
700700
700700
780700
380E00
3C1E00
FE3F80
FE3F80
FE3F80
ENDCHAR
STARTCHAR 212A
ENCODING 8490
SWIDTH 720 0
DWIDTH 14 0
BBX 12 14 2 0
BITMAP
E0F0
E1E0
E3C0
E380
E700
EE00
FE00
FF00
FF00
F780
E3C0
E1E0
E0E0
E070
ENDCHAR
STARTCHAR 212B
ENCODING 8491
SWIDTH 771 0
DWIDTH 15 0
BBX 15 20 0 0
BITMAP
0380
06C0
0440
06C0
0380
0000
0380
07C0
07C0
0EE0
0EE0
1EE0
1C70
1C70
3838
3FF8
7FFC
701C
F01C
E00E
ENDCHAR
STARTCHAR 212E
ENCODING 8494
SWIDTH 874 0
DWIDTH 17 0
BBX 15 14 1 0
BITMAP
07C0
1830
6008
600C
E00E
E00E
E00E
FFF0
E000
E000
6000
2008
1010
0FE0
ENDCHAR
STARTCHAR 2153
ENCODING 8531
SWIDTH 1028 0
DWIDTH 20 0
BBX 19 14 1 0
BITMAP
780E00
780C00
381800
383800
383000
386FC0
FCEFC0
FCC180
018380
0383C0
0300E0
0600E0
0E0FC0
0C0F80
ENDCHAR
STARTCHAR 2154
ENCODING 8532
SWIDTH 1028 0
DWIDTH 20 0
BBX 20 14 0 0
BITMAP
3C0700
FE0600
060C00
061C00
0C1800
383000
7F77E0
7F67E0
00C1C0
01C1E0
018070
030070
0707E0
0607C0
ENDCHAR
STARTCHAR 215B
ENCODING 8539
SWIDTH 1028 0
DWIDTH 20 0
BBX 19 14 1 0
BITMAP
780E00
780C00
381800
383800
383000
386000
FCEFC0
FCCCE0
018CE0
038FC0
030CE0
061860
0E0EE0
0C07C0
ENDCHAR
STARTCHAR 215C
ENCODING 8540
SWIDTH 1028 0
DWIDTH 20 0
BBX 19 14 1 0
BITMAP
FC0E00
FC0C00
181800
303800
3C3000
066000
FCEFC0
F8CCE0
018CE0
038FC0
030CE0
061860
0E0EE0
0C07C0
ENDCHAR
STARTCHAR 215D
ENCODING 8541
SWIDTH 1028 0
DWIDTH 20 0
BBX 19 14 1 0
BITMAP
FC0E00
FC0C00
C01800
F83800
FC3000
0E6000
FCEFC0
F8CCE0
018CE0
038FC0
030CE0
061860
0E0EE0
0C07C0
ENDCHAR
STARTCHAR 215E
ENCODING 8542
SWIDTH 1028 0
DWIDTH 20 0
BBX 19 14 1 0
BITMAP
FE0E00
FE0C00
8C1800
1C3800
183000
386000
30EFC0
70CCE0
018CE0
038FC0
030CE0
061860
0E0EE0
0C07C0
ENDCHAR
STARTCHAR 2190
ENCODING 8592
SWIDTH 617 0
DWIDTH 12 0
BBX 9 8 2 1
BITMAP
3000
7000
E000
FF80
FF80
E000
7000
3000
ENDCHAR
STARTCHAR 2191
ENCODING 8593
SWIDTH 617 0
DWIDTH 12 0
BBX 9 9 1 1
BITMAP
0C00
1E00
7F80
EF80
CC80
0C00
0C00
0C00
0C00
ENDCHAR
STARTCHAR 2192
ENCODING 8594
SWIDTH 617 0
DWIDTH 12 0
BBX 9 8 1 1
BITMAP
0E00
0700
0700
FF80
FF80
0700
0700
0E00
ENDCHAR
STARTCHAR 2193
ENCODING 8595
SWIDTH 617 0
DWIDTH 12 0
BBX 8 9 2 1
BITMAP
18
18
18
18
18
DB
FF
7E
18
ENDCHAR
STARTCHAR 2194
ENCODING 8596
SWIDTH 822 0
DWIDTH 16 0
BBX 14 8 1 1
BITMAP
3870
3038
7038
FFFC
FFFC
7038
3038
3870
ENDCHAR
STARTCHAR 2195
ENCODING 8597
SWIDTH 617 0
DWIDTH 12 0
BBX 9 13 1 0
BITMAP
0C00
1E00
7F80
EF80
CC80
0C00
0C00
0C00
CC80
EF80
7F80
1E00
0C00
ENDCHAR
STARTCHAR 2196
ENCODING 8598
SWIDTH 617 0
DWIDTH 12 0
BBX 8 8 2 1
BITMAP
1C
7E
F0
F8
FC
DE
CF
06
ENDCHAR
STARTCHAR 2197
ENCODING 8599
SWIDTH 617 0
DWIDTH 12 0
BBX 8 8 2 2
BITMAP
7E
3E
0F
1F
3B
73
E2
40
ENDCHAR
STARTCHAR 2198
ENCODING 8600
SWIDTH 617 0
DWIDTH 12 0
BBX 8 8 2 2
BITMAP
C0
E3
73
3B
1F
0E
7E
30
ENDCHAR
STARTCHAR 2199
ENCODING 8601
SWIDTH 617 0
DWIDTH 12 0
BBX 8 8 2 2
BITMAP
06
CF
DE
FC
F8
F0
7E
1C
ENDCHAR
STARTCHAR 2202
ENCODING 8706
SWIDTH 720 0
DWIDTH 14 0
BBX 12 15 1 0
BITMAP
0800
7F00
7FC0
03C0
00E0
00E0
1EE0
7FF0
FBF0
E0E0
E0E0
E0E0
79C0
7FC0
1F00
ENDCHAR
STARTCHAR 2205
ENCODING 8709
SWIDTH 617 0
DWIDTH 12 0
BBX 10 9 1 2
BITMAP
1EC0
7F80
6380
C780
CD80
F980
6380
7F00
9E00
ENDCHAR
STARTCHAR 2206
ENCODING 8710
SWIDTH 771 0
DWIDTH 15 0
BBX 15 14 0 0
BITMAP
0380
07C0
07C0
0EE0
0EE0
1CE0
1C70
1C70
3838
3838
703C
7FFC
FFFC
FFFE
ENDCHAR
STARTCHAR 220F
ENCODING 8719
SWIDTH 822 0
DWIDTH 16 0
BBX 12 18 2 -4
BITMAP
FFF0
FFF0
FFF0
E070
E070
E070
E070
E070
E070
E070
E070
E070
E070
E070
E070
E070
E070
E070
ENDCHAR
STARTCHAR 2211
ENCODING 8721
SWIDTH 668 0
DWIDTH 13 0
BBX 12 18 1 -4
BITMAP
FFE0
FFE0
FFE0
7800
3C00
1E00
0E00
0F00
0780
0780
0F00
0E00
1E00
3C00
7800
FFF0
FFF0
FFF0
ENDCHAR
STARTCHAR 2212
ENCODING 8722
SWIDTH 617 0
DWIDTH 12 0
BBX 9 2 1 6
BITMAP
FF80
FF80
ENDCHAR
STARTCHAR 2215
ENCODING 8725
SWIDTH 411 0
DWIDTH 8 0
BBX 8 18 0 -2
BITMAP
07
07
06
0E
0E
0C
1C
1C
18
38
38
30
70
70
60
E0
E0
C0
ENDCHAR
STARTCHAR 2219
ENCODING 8729
SWIDTH 308 0
DWIDTH 6 0
BBX 4 4 1 5
BITMAP
60
F0
F0
60
ENDCHAR
STARTCHAR 221A
ENCODING 8730
SWIDTH 822 0
DWIDTH 16 0
BBX 15 19 1 -4
BITMAP
000E
000E
001C
001C
001C
0018
0038
F838
FC30
1C70
1C70
0C60
0EE0
0EE0
06E0
07C0
07C0
03C0
0380
ENDCHAR
STARTCHAR 221E
ENCODING 8734
SWIDTH 925 0
DWIDTH 18 0
BBX 16 8 1 3
BITMAP
3C3C
7E7F
E7E7
C3C3
C1C3
E3E7
FF7F
7C3E
ENDCHAR
STARTCHAR 222B
ENCODING 8747
SWIDTH 411 0
DWIDTH 8 0
BBX 9 19 0 -4
BITMAP
0F80
1F80
1E00
1C00
1C00
1C00
1C00
1C00
1C00
1C00
1C00
1C00
1C00
1C00
1C00
1C00
BC00
F800
F000
ENDCHAR
STARTCHAR 2248
ENCODING 8776
SWIDTH 617 0
DWIDTH 12 0
BBX 10 8 1 3
BITMAP
78C0
FDC0
CF80
C700
0000
78C0
FF80
C780
ENDCHAR
STARTCHAR 2260
ENCODING 8800
SWIDTH 617 0
DWIDTH 12 0
BBX 9 12 1 1
BITMAP
0180
0380
0300
FF80
FF80
0C00
1C00
1800
FF80
FF80
7000
6000
ENDCHAR
STARTCHAR 2264
ENCODING 8804
SWIDTH 617 0
DWIDTH 12 0
BBX 9 12 1 1
BITMAP
0380
1F80
7E00
F000
F800
7F00
0F80
0180
0000
0000
FF80
FF80
ENDCHAR
STARTCHAR 2265
ENCODING 8805
SWIDTH 617 0
DWIDTH 12 0
BBX 9 13 1 0
BITMAP
8000
E000
FC00
3F80
0780
0F80
3F00
F800
E000
0000
0000
FF80
FF80
ENDCHAR
STARTCHAR 25A0
ENCODING 9632
SWIDTH 617 0
DWIDTH 12 0
BBX 8 8 2 1
BITMAP
FF
FF
FF
FF
FF
FF
FF
FF
ENDCHAR
STARTCHAR 25A1
ENCODING 9633
SWIDTH 617 0
DWIDTH 12 0
BBX 8 8 2 1
BITMAP
FF
FF
C3
C3
C3
C3
FF
FF
ENDCHAR
STARTCHAR 25B2
ENCODING 9650
SWIDTH 617 0
DWIDTH 12 0
BBX 8 8 2 1
BITMAP
10
18
38
3C
7C
7E
FE
FF
ENDCHAR
STARTCHAR 25B3
ENCODING 9651
SWIDTH 617 0
DWIDTH 12 0
BBX 8 8 2 1
BITMAP
10
18
38
2C
64
46
C2
FF
ENDCHAR
STARTCHAR 25B6
ENCODING 9654
SWIDTH 617 0
DWIDTH 12 0
BBX 8 8 2 1
BITMAP
C0
F0
FC
FF
FE
F8
E0
80
ENDCHAR
STARTCHAR 25B7
ENCODING 9655
SWIDTH 617 0
DWIDTH 12 0
BBX 8 8 2 1
BITMAP
C0
F0
9C
87
8E
B8
E0
80
ENDCHAR
STARTCHAR 25BC
ENCODING 9660
SWIDTH 617 0
DWIDTH 12 0
BBX 8 8 2 1
BITMAP
FF
7E
7E
3C
3C
18
18
10
ENDCHAR
STARTCHAR 25BD
ENCODING 9661
SWIDTH 617 0
DWIDTH 12 0
BBX 8 7 2 1
BITMAP
FF
42
46
24
3C
18
18
ENDCHAR
STARTCHAR 25C0
ENCODING 9664
SWIDTH 617 0
DWIDTH 12 0
BBX 7 8 2 1
BITMAP
02
0E
3E
FE
FE
3E
0E
02
ENDCHAR
STARTCHAR 25C1
ENCODING 9665
SWIDTH 617 0
DWIDTH 12 0
BBX 7 8 2 1
BITMAP
02
0E
3A
E2
E2
3A
0E
02
ENDCHAR
STARTCHAR 25C6
ENCODING 9670
SWIDTH 617 0
DWIDTH 12 0
BBX 11 11 0 0
BITMAP
0400
0E00
1F00
3F80
7FC0
FFE0
7FC0
3F80
1F00
0E00
0400
ENDCHAR
STARTCHAR 25C7
ENCODING 9671
SWIDTH 617 0
DWIDTH 12 0
BBX 11 11 0 0
BITMAP
0400
0E00
1F00
3980
70C0
E060
70C0
3980
1F00
0E00
0400
ENDCHAR
STARTCHAR 25CA
ENCODING 9674
SWIDTH 514 0
DWIDTH 10 0
BBX 8 12 1 1
BITMAP
18
38
3C
66
C6
C3
C6
66
7C
38
18
10
ENDCHAR
STARTCHAR 27E8
ENCODING 10216
SWIDTH 360 0
DWIDTH 7 0
BBX 6 19 0 -4
BITMAP
0C
1C
1C
18
38
38
70
70
70
E0
70
70
70
38
38
18
1C
1C
0C
ENDCHAR
STARTCHAR 27E9
ENCODING 10217
SWIDTH 360 0
DWIDTH 7 0
BBX 6 19 1 -4
BITMAP
E0
E0
E0
70
70
70
38
38
38
1C
38
38
38
70
70
70
E0
E0
E0
ENDCHAR
STARTCHAR A78B
ENCODING 42891
SWIDTH 308 0
DWIDTH 6 0
BBX 3 8 1 6
BITMAP
E0
E0
E0
E0
E0
E0
E0
E0
ENDCHAR
STARTCHAR A78C
ENCODING 42892
SWIDTH 308 0
DWIDTH 6 0
BBX 3 7 1 6
BITMAP
E0
E0
E0
E0
E0
E0
E0
ENDCHAR
STARTCHAR FB01
ENCODING 64257
SWIDTH 771 0
DWIDTH 15 0
BBX 14 16 0 0
BITMAP
0018
0F3C
3F3C
3800
3800
FE3C
FE3C
383C
383C
383C
383C
383C
383C
383C
383C
383C
ENDCHAR
STARTCHAR FB02
ENCODING 64258
SWIDTH 668 0
DWIDTH 13 0
BBX 12 15 0 0
BITMAP
0F70
3F70
3C70
3870
3870
FE70
FE70
3870
3870
3870
3870
3870
3870
3870
3870
ENDCHAR
ENDFONT
